NotoSansSoyombo-Regular.ufo
<glyph name="a-soyo" format="2">
  <advance width="620"/>
  <unicode hex="11A50"/>
  <anchor x="452" y="0" name="bottom"/>
  <anchor x="260" y="714" name="top"/>
  <outline>
    <contour>
      <point x="452" y="714" type="line"/>
      <point x="452" y="487" type="line"/>
      <point x="546" y="487" type="line"/>
      <point x="546" y="714" type="line"/>
    </contour>
    <contour>
      <point x="460" y="708" type="line"/>
      <point x="460" y="714" type="line"/>
      <point x="60" y="714" type="line"/>
      <point x="60" y="708" type="line"/>
      <point x="260" y="589" type="line"/>
    </contour>
    <contour>
      <point x="452" y="549" type="line"/>
      <point x="452" y="402" type="line"/>
      <point x="546" y="352" type="line"/>
      <point x="546" y="549" type="line"/>
    </contour>
    <contour>
      <point x="110" y="609" type="curve" smooth="yes"/>
      <point x="67" y="609"/>
      <point x="34" y="581"/>
      <point x="34" y="535" type="curve" smooth="yes"/>
      <point x="34" y="468"/>
      <point x="101" y="433"/>
      <point x="196" y="433" type="curve" smooth="yes"/>
      <point x="287" y="433"/>
      <point x="357" y="462"/>
      <point x="428" y="535" type="curve"/>
      <point x="399" y="572" type="line"/>
      <point x="345" y="528"/>
      <point x="290" y="504"/>
      <point x="225" y="504" type="curve" smooth="yes"/>
      <point x="173" y="504"/>
      <point x="148" y="524"/>
      <point x="148" y="553" type="curve" smooth="yes"/>
      <point x="148" y="567"/>
      <point x="153" y="582"/>
      <point x="163" y="591" type="curve"/>
      <point x="153" y="602"/>
      <point x="134" y="609"/>
    </contour>
    <contour>
      <point x="452" y="402" type="line"/>
      <point x="452" y="65" type="line"/>
      <point x="546" y="15" type="line"/>
      <point x="546" y="402" type="line"/>
    </contour>
    <contour>
      <point x="283" y="373" type="curve" smooth="yes"/>
      <point x="223" y="373"/>
      <point x="178" y="345"/>
      <point x="146" y="286" type="curve"/>
      <point x="181" y="265" type="line"/>
      <point x="204" y="295"/>
      <point x="234" y="309"/>
      <point x="267" y="309" type="curve" smooth="yes"/>
      <point x="311" y="309"/>
      <point x="334" y="283"/>
      <point x="334" y="246" type="curve" smooth="yes"/>
      <point x="334" y="202"/>
      <point x="302" y="176"/>
      <point x="244" y="176" type="curve" smooth="yes"/>
      <point x="173" y="176"/>
      <point x="111" y="213"/>
      <point x="48" y="291" type="curve"/>
      <point x="14" y="255" type="line"/>
      <point x="93" y="151"/>
      <point x="168" y="116"/>
      <point x="251" y="116" type="curve" smooth="yes"/>
      <point x="346" y="116"/>
      <point x="408" y="163"/>
      <point x="408" y="250" type="curve" smooth="yes"/>
      <point x="408" y="327"/>
      <point x="355" y="373"/>
    </contour>
    <contour>
      <point x="452" y="115" type="line"/>
      <point x="452" y="0" type="line"/>
      <point x="546" y="-50" type="line"/>
      <point x="546" y="65" type="line"/>
    </contour>
  </outline>
</glyph>
<glyph name="iMatra-soyo" format="2">
  <unicode hex="11A51"/>
  <anchor x="-320" y="714" name="_top"/>
  <anchor x="-320" y="886" name="top"/>
  <outline>
    <contour>
      <point x="-319" y="886" type="curve" smooth="yes"/>
      <point x="-446" y="886"/>
      <point x="-514" y="836"/>
      <point x="-554" y="744" type="curve"/>
      <point x="-550" y="740" type="line"/>
      <point x="-505" y="785"/>
      <point x="-427" y="806"/>
      <point x="-319" y="806" type="curve" smooth="yes"/>
      <point x="-211" y="806"/>
      <point x="-133" y="785"/>
      <point x="-88" y="740" type="curve"/>
      <point x="-84" y="744" type="line"/>
      <point x="-124" y="836"/>
      <point x="-192" y="886"/>
    </contour>
  </outline>
</glyph>
<glyph name="ueMatra-soyo" format="2">
  <unicode hex="11A52"/>
  <anchor x="-148" y="0" name="_bottom"/>
  <anchor x="-148" y="0" name="bottom"/>
  <outline>
    <contour>
      <point x="-297" y="170" type="curve" smooth="yes"/>
      <point x="-315" y="170"/>
      <point x="-335" y="165"/>
      <point x="-351" y="156" type="curve"/>
      <point x="-334" y="117" type="line"/>
      <point x="-324" y="123"/>
      <point x="-312" y="126"/>
      <point x="-301" y="126" type="curve" smooth="yes"/>
      <point x="-277" y="126"/>
      <point x="-262" y="110"/>
      <point x="-262" y="86" type="curve" smooth="yes"/>
      <point x="-262" y="61"/>
      <point x="-283" y="46"/>
      <point x="-307" y="46" type="curve" smooth="yes"/>
      <point x="-372" y="46"/>
      <point x="-448" y="141"/>
      <point x="-525" y="141" type="curve" smooth="yes"/>
      <point x="-536" y="141"/>
      <point x="-547" y="139"/>
      <point x="-555" y="136" type="curve"/>
      <point x="-555" y="94" type="line"/>
      <point x="-549" y="96"/>
      <point x="-542" y="97"/>
      <point x="-535" y="97" type="curve" smooth="yes"/>
      <point x="-456" y="97"/>
      <point x="-414" y="-13"/>
      <point x="-310" y="-13" type="curve" smooth="yes"/>
      <point x="-251" y="-13"/>
      <point x="-198" y="17"/>
      <point x="-198" y="80" type="curve" smooth="yes"/>
      <point x="-198" y="138"/>
      <point x="-243" y="170"/>
    </contour>
  </outline>
</glyph>
<glyph name="uMatra-soyo" format="2">
  <unicode hex="11A53"/>
  <anchor x="-148" y="0" name="_bottom"/>
  <anchor x="-148" y="0" name="bottom"/>
  <outline>
    <contour>
      <point x="-329" y="160" type="line"/>
      <point x="-259" y="27" type="line"/>
      <point x="-198" y="27" type="line"/>
      <point x="-268" y="160" type="line"/>
    </contour>
    <contour>
      <point x="-555" y="81" type="line"/>
      <point x="-555" y="27" type="line"/>
      <point x="-242" y="27" type="line"/>
      <point x="-242" y="81" type="line"/>
    </contour>
  </outline>
</glyph>
<glyph name="eMatra-soyo" format="2">
  <unicode hex="11A54"/>
  <anchor x="-320" y="714" name="_top"/>
  <anchor x="-320" y="886" name="top"/>
  <outline>
    <contour>
      <point x="-554" y="886" type="line"/>
      <point x="-554" y="806" type="line"/>
      <point x="-80" y="806" type="line"/>
      <point x="-80" y="708" type="line"/>
      <point x="6" y="754" type="line"/>
      <point x="-44" y="688" type="line"/>
      <point x="-44" y="886" type="line"/>
    </contour>
  </outline>
</glyph>
<glyph name="oMatra-soyo" format="2">
  <unicode hex="11A55"/>
  <anchor x="-320" y="714" name="_top"/>
  <anchor x="-320" y="886" name="top"/>
  <outline>
    <contour>
      <point x="-554" y="886" type="line"/>
      <point x="-554" y="806" type="line"/>
      <point x="-84" y="806" type="line"/>
      <point x="-84" y="886" type="line"/>
    </contour>
    <contour>
      <point x="-345" y="831" type="line"/>
      <point x="-345" y="710" type="line"/>
      <point x="-293" y="710" type="line"/>
      <point x="-293" y="831" type="line"/>
    </contour>
  </outline>
</glyph>
<glyph name="oeMatra-soyo" format="2">
  <unicode hex="11A56"/>
  <anchor x="-320" y="714" name="_top"/>
  <anchor x="-320" y="886" name="top"/>
  <outline>
    <contour>
      <point x="-322" y="740" type="curve"/>
      <point x="-316" y="740" type="line"/>
      <point x="-301" y="789"/>
      <point x="-278" y="806"/>
      <point x="-233" y="806" type="curve" smooth="yes"/>
      <point x="-184" y="806" type="line" smooth="yes"/>
      <point x="-113" y="806"/>
      <point x="-84" y="837"/>
      <point x="-84" y="926" type="curve"/>
      <point x="-90" y="926" type="line"/>
      <point x="-104" y="899"/>
      <point x="-129" y="886"/>
      <point x="-164" y="886" type="curve" smooth="yes"/>
      <point x="-235" y="886" type="line" smooth="yes"/>
      <point x="-284" y="886"/>
      <point x="-307" y="867"/>
      <point x="-319" y="826" type="curve"/>
      <point x="-331" y="867"/>
      <point x="-354" y="886"/>
      <point x="-403" y="886" type="curve" smooth="yes"/>
      <point x="-474" y="886" type="line" smooth="yes"/>
      <point x="-509" y="886"/>
      <point x="-534" y="899"/>
      <point x="-548" y="926" type="curve"/>
      <point x="-554" y="926" type="line"/>
      <point x="-554" y="837"/>
      <point x="-525" y="806"/>
      <point x="-454" y="806" type="curve" smooth="yes"/>
      <point x="-405" y="806" type="line" smooth="yes"/>
      <point x="-360" y="806"/>
      <point x="-337" y="789"/>
    </contour>
  </outline>
</glyph>
<glyph name="aiMatra-soyo" format="2">
  <advance width="195"/>
  <unicode hex="11A57"/>
  <outline>
    <contour>
      <point x="-84" y="714" type="line"/>
      <point x="-84" y="629" type="line"/>
      <point x="70" y="629" type="line"/>
      <point x="155" y="708" type="line"/>
      <point x="155" y="714" type="line"/>
    </contour>
    <contour>
      <point x="97" y="708" type="line"/>
      <point x="-84" y="467" type="line"/>
      <point x="-26" y="467" type="line"/>
      <point x="155" y="708" type="line"/>
    </contour>
    <contour>
      <point x="-84" y="467" type="line"/>
      <point x="71" y="345" type="line"/>
      <point x="149" y="385" type="line"/>
      <point x="-6" y="507" type="line"/>
    </contour>
    <contour>
      <point x="78" y="385" type="line"/>
      <point x="-90" y="238" type="line"/>
      <point x="-19" y="238" type="line"/>
      <point x="149" y="385" type="line"/>
    </contour>
    <contour>
      <point x="-90" y="238" type="line"/>
      <point x="-26" y="163"/>
      <point x="15" y="70"/>
      <point x="27" y="-20" type="curve"/>
      <point x="153" y="-20" type="line"/>
      <point x="119" y="91"/>
      <point x="41" y="203"/>
      <point x="-32" y="254" type="curve"/>
    </contour>
  </outline>
</glyph>
<glyph name="auMatra-soyo" format="2">
  <advance width="195"/>
  <unicode hex="11A58"/>
  <outline>
    <contour>
      <point x="-90" y="214" type="line"/>
      <point x="-26" y="147"/>
      <point x="15" y="62"/>
      <point x="27" y="-20" type="curve"/>
      <point x="153" y="-20" type="line"/>
      <point x="119" y="83"/>
      <point x="41" y="183"/>
      <point x="-32" y="230" type="curve"/>
    </contour>
    <contour>
      <point x="-90" y="714" type="curve"/>
      <point x="-90" y="674" type="line"/>
      <point x="8" y="674"/>
      <point x="58" y="645"/>
      <point x="58" y="584" type="curve" smooth="yes"/>
      <point x="58" y="523"/>
      <point x="8" y="494"/>
      <point x="-90" y="494" type="curve"/>
      <point x="-90" y="454" type="line"/>
      <point x="39" y="454"/>
      <point x="149" y="493"/>
      <point x="149" y="584" type="curve" smooth="yes"/>
      <point x="149" y="675"/>
      <point x="39" y="714"/>
    </contour>
    <contour>
      <point x="-90" y="474" type="curve"/>
      <point x="-90" y="434" type="line"/>
      <point x="8" y="434"/>
      <point x="58" y="405"/>
      <point x="58" y="344" type="curve" smooth="yes"/>
      <point x="58" y="283"/>
      <point x="8" y="254"/>
      <point x="-90" y="254" type="curve"/>
      <point x="-90" y="214" type="line"/>
      <point x="39" y="214"/>
      <point x="149" y="253"/>
      <point x="149" y="344" type="curve" smooth="yes"/>
      <point x="149" y="435"/>
      <point x="39" y="474"/>
    </contour>
  </outline>
</glyph>
<glyph name="rVocalicMatra-soyo" format="2">
  <unicode hex="11A59"/>
  <anchor x="-148" y="0" name="_bottom"/>
  <anchor x="-148" y="0" name="bottom"/>
  <outline>
    <contour>
      <point x="-468" y="-3" type="curve" smooth="yes"/>
      <point x="-407" y="-3"/>
      <point x="-372" y="50"/>
      <point x="-366" y="109" type="curve"/>
      <point x="-387" y="109" type="line"/>
      <point x="-381" y="50"/>
      <point x="-346" y="-3"/>
      <point x="-285" y="-3" type="curve" smooth="yes"/>
      <point x="-229" y="-3"/>
      <point x="-198" y="42"/>
      <point x="-198" y="95" type="curve" smooth="yes"/>
      <point x="-198" y="117"/>
      <point x="-203" y="141"/>
      <point x="-213" y="160" type="curve"/>
      <point x="-248" y="146" type="line"/>
      <point x="-244" y="135"/>
      <point x="-242" y="122"/>
      <point x="-242" y="110" type="curve" smooth="yes"/>
      <point x="-242" y="78"/>
      <point x="-259" y="61"/>
      <point x="-290" y="61" type="curve" smooth="yes"/>
      <point x="-329" y="61"/>
      <point x="-341" y="90"/>
      <point x="-354" y="146" type="curve"/>
      <point x="-399" y="146" type="line"/>
      <point x="-412" y="94"/>
      <point x="-423" y="61"/>
      <point x="-463" y="61" type="curve" smooth="yes"/>
      <point x="-493" y="61"/>
      <point x="-511" y="78"/>
      <point x="-511" y="110" type="curve" smooth="yes"/>
      <point x="-511" y="122"/>
      <point x="-509" y="135"/>
      <point x="-505" y="146" type="curve"/>
      <point x="-540" y="160" type="line"/>
      <point x="-550" y="141"/>
      <point x="-555" y="117"/>
      <point x="-555" y="95" type="curve" smooth="yes"/>
      <point x="-555" y="42"/>
      <point x="-524" y="-3"/>
    </contour>
  </outline>
</glyph>
<glyph name="lVocalicMatra-soyo" format="2">
  <unicode hex="11A5A"/>
  <anchor x="-148" y="0" name="_bottom"/>
  <anchor x="-148" y="0" name="bottom"/>
  <outline>
    <contour>
      <point x="-540" y="-3" type="curve"/>
      <point x="-505" y="11" type="line"/>
      <point x="-509" y="22"/>
      <point x="-511" y="35"/>
      <point x="-511" y="47" type="curve" smooth="yes"/>
      <point x="-511" y="79"/>
      <point x="-494" y="96"/>
      <point x="-463" y="96" type="curve" smooth="yes"/>
      <point x="-424" y="96"/>
      <point x="-412" y="67"/>
      <point x="-399" y="11" type="curve"/>
      <point x="-354" y="11" type="line"/>
      <point x="-341" y="63"/>
      <point x="-330" y="96"/>
      <point x="-290" y="96" type="curve" smooth="yes"/>
      <point x="-260" y="96"/>
      <point x="-242" y="79"/>
      <point x="-242" y="47" type="curve" smooth="yes"/>
      <point x="-242" y="35"/>
      <point x="-244" y="22"/>
      <point x="-248" y="11" type="curve"/>
      <point x="-213" y="-3" type="line"/>
      <point x="-203" y="16"/>
      <point x="-198" y="40"/>
      <point x="-198" y="62" type="curve" smooth="yes"/>
      <point x="-198" y="115"/>
      <point x="-229" y="160"/>
      <point x="-285" y="160" type="curve" smooth="yes"/>
      <point x="-346" y="160"/>
      <point x="-381" y="107"/>
      <point x="-387" y="48" type="curve"/>
      <point x="-366" y="48" type="line"/>
      <point x="-372" y="107"/>
      <point x="-407" y="160"/>
      <point x="-468" y="160" type="curve" smooth="yes"/>
      <point x="-524" y="160"/>
      <point x="-555" y="115"/>
      <point x="-555" y="62" type="curve" smooth="yes"/>
      <point x="-555" y="40"/>
      <point x="-550" y="16"/>
    </contour>
  </outline>
</glyph>
<glyph name="ka-soyo" format="2">
  <advance width="670"/>
  <unicode hex="11A5C"/>
  <anchor x="502" y="0" name="bottom"/>
  <anchor x="310" y="714" name="top"/>
  <outline>
    <contour>
      <point x="502" y="574" type="line"/>
      <point x="502" y="487" type="line"/>
      <point x="596" y="487" type="line"/>
      <point x="596" y="634" type="line"/>
    </contour>
    <contour>
      <point x="510" y="708" type="line"/>
      <point x="510" y="714" type="line"/>
      <point x="110" y="714" type="line"/>
      <point x="110" y="708" type="line"/>
      <point x="310" y="589" type="line"/>
    </contour>
    <contour>
      <point x="502" y="549" type="line"/>
      <point x="502" y="141" type="line"/>
      <point x="596" y="91" type="line"/>
      <point x="596" y="599" type="line"/>
    </contour>
    <contour>
      <point x="263" y="639" type="line"/>
      <point x="263" y="191" type="line"/>
      <point x="357" y="141" type="line"/>
      <point x="357" y="639" type="line"/>
    </contour>
    <contour>
      <point x="331" y="378" type="line"/>
      <point x="331" y="328" type="line"/>
      <point x="535" y="328" type="line"/>
      <point x="535" y="378" type="line"/>
    </contour>
    <contour>
      <point x="103" y="558" type="curve" smooth="yes"/>
      <point x="49" y="558"/>
      <point x="24" y="519"/>
      <point x="24" y="441" type="curve" smooth="yes"/>
      <point x="24" y="309"/>
      <point x="114" y="242"/>
      <point x="273" y="242" type="curve" smooth="yes"/>
      <point x="317" y="242" type="line"/>
      <point x="317" y="292" type="line"/>
      <point x="273" y="292" type="line" smooth="yes"/>
      <point x="170" y="292"/>
      <point x="118" y="342"/>
      <point x="118" y="435" type="curve" smooth="yes"/>
      <point x="118" y="478"/>
      <point x="127" y="515"/>
      <point x="148" y="546" type="curve"/>
      <point x="134" y="554"/>
      <point x="119" y="558"/>
    </contour>
    <contour>
      <point x="502" y="191" type="line"/>
      <point x="502" y="0" type="line"/>
      <point x="596" y="-50" type="line"/>
      <point x="596" y="141" type="line"/>
    </contour>
  </outline>
</glyph>
<glyph name="ga-soyo" format="2">
  <advance width="660"/>
  <unicode hex="11A5E"/>
  <anchor x="492" y="0" name="bottom"/>
  <anchor x="300" y="714" name="top"/>
  <outline>
    <contour>
      <point x="492" y="574" type="line"/>
      <point x="492" y="487" type="line"/>
      <point x="586" y="487" type="line"/>
      <point x="586" y="634" type="line"/>
    </contour>
    <contour>
      <point x="500" y="708" type="line"/>
      <point x="500" y="714" type="line"/>
      <point x="100" y="714" type="line"/>
      <point x="100" y="708" type="line"/>
      <point x="300" y="589" type="line"/>
    </contour>
    <contour>
      <point x="492" y="549" type="line"/>
      <point x="492" y="131" type="line"/>
      <point x="586" y="81" type="line"/>
      <point x="586" y="599" type="line"/>
    </contour>
    <contour>
      <point x="253" y="639" type="line"/>
      <point x="253" y="181" type="line"/>
      <point x="347" y="131" type="line"/>
      <point x="347" y="639" type="line"/>
    </contour>
    <contour>
      <point x="61" y="414" type="line"/>
      <point x="61" y="364" type="line"/>
      <point x="525" y="364" type="line"/>
      <point x="525" y="414" type="line"/>
    </contour>
    <contour>
      <point x="108" y="551" type="line"/>
      <point x="47" y="516"/>
      <point x="14" y="470"/>
      <point x="14" y="389" type="curve" smooth="yes"/>
      <point x="14" y="308"/>
      <point x="47" y="262"/>
      <point x="108" y="227" type="curve"/>
    </contour>
    <contour>
      <point x="492" y="181" type="line"/>
      <point x="492" y="0" type="line"/>
      <point x="586" y="-50" type="line"/>
      <point x="586" y="131" type="line"/>
    </contour>
  </outline>
</glyph>
<glyph name="gha-soyo" format="2">
  <advance width="660"/>
  <unicode hex="11A5F"/>
  <anchor x="492" y="0" name="bottom"/>
  <anchor x="300" y="714" name="top"/>
  <outline>
    <contour>
      <point x="492" y="574" type="line"/>
      <point x="492" y="487" type="line"/>
      <point x="586" y="487" type="line"/>
      <point x="586" y="634" type="line"/>
    </contour>
    <contour>
      <point x="500" y="708" type="line"/>
      <point x="500" y="714" type="line"/>
      <point x="100" y="714" type="line"/>
      <point x="100" y="708" type="line"/>
      <point x="300" y="589" type="line"/>
    </contour>
    <contour>
      <point x="492" y="549" type="line"/>
      <point x="492" y="131" type="line"/>
      <point x="586" y="81" type="line"/>
      <point x="586" y="599" type="line"/>
    </contour>
    <contour>
      <point x="253" y="639" type="line"/>
      <point x="253" y="181" type="line"/>
      <point x="347" y="131" type="line"/>
      <point x="347" y="639" type="line"/>
    </contour>
    <contour>
      <point x="111" y="414" type="line"/>
      <point x="111" y="364" type="line"/>
      <point x="525" y="364" type="line"/>
      <point x="525" y="414" type="line"/>
    </contour>
    <contour>
      <point x="24" y="551" type="curve"/>
      <point x="14" y="519" type="line"/>
      <point x="61" y="494"/>
      <point x="84" y="461"/>
      <point x="84" y="389" type="curve" smooth="yes"/>
      <point x="84" y="317"/>
      <point x="61" y="284"/>
      <point x="14" y="259" type="curve"/>
      <point x="24" y="227" type="line"/>
      <point x="110" y="253"/>
      <point x="158" y="299"/>
      <point x="158" y="389" type="curve" smooth="yes"/>
      <point x="158" y="480"/>
      <point x="110" y="525"/>
    </contour>
    <contour>
      <point x="492" y="181" type="line"/>
      <point x="492" y="0" type="line"/>
      <point x="586" y="-50" type="line"/>
      <point x="586" y="131" type="line"/>
    </contour>
  </outline>
</glyph>
<glyph name="nga-soyo" format="2">
  <advance width="670"/>
  <unicode hex="11A60"/>
  <anchor x="502" y="0" name="bottom"/>
  <anchor x="310" y="714" name="top"/>
  <outline>
    <contour>
      <point x="502" y="574" type="line"/>
      <point x="502" y="487" type="line"/>
      <point x="596" y="487" type="line"/>
      <point x="596" y="634" type="line"/>
    </contour>
    <contour>
      <point x="510" y="708" type="line"/>
      <point x="510" y="714" type="line"/>
      <point x="110" y="714" type="line"/>
      <point x="110" y="708" type="line"/>
      <point x="310" y="589" type="line"/>
    </contour>
    <contour>
      <point x="502" y="549" type="line"/>
      <point x="502" y="131" type="line"/>
      <point x="596" y="81" type="line"/>
      <point x="596" y="599" type="line"/>
    </contour>
    <contour>
      <point x="263" y="639" type="line"/>
      <point x="263" y="181" type="line"/>
      <point x="357" y="131" type="line"/>
      <point x="357" y="639" type="line"/>
    </contour>
    <contour>
      <point x="71" y="414" type="line"/>
      <point x="71" y="364" type="line"/>
      <point x="535" y="364" type="line"/>
      <point x="535" y="414" type="line"/>
    </contour>
    <contour>
      <point x="24" y="501" type="line"/>
      <point x="24" y="277" type="line"/>
      <point x="118" y="227" type="line"/>
      <point x="118" y="551" type="line"/>
    </contour>
    <contour>
      <point x="502" y="181" type="line"/>
      <point x="502" y="0" type="line"/>
      <point x="596" y="-50" type="line"/>
      <point x="596" y="131" type="line"/>
    </contour>
  </outline>
</glyph>
<glyph name="ca-soyo" format="2">
  <advance width="570"/>
  <unicode hex="11A61"/>
  <anchor x="402" y="0.049" name="bottom"/>
  <anchor x="210" y="714" name="top"/>
  <outline>
    <contour>
      <point x="402" y="714" type="line"/>
      <point x="402" y="487" type="line"/>
      <point x="496" y="487" type="line"/>
      <point x="496" y="714" type="line"/>
    </contour>
    <contour>
      <point x="410" y="708" type="line"/>
      <point x="410" y="714" type="line"/>
      <point x="10" y="714" type="line"/>
      <point x="10" y="708" type="line"/>
      <point x="210" y="589" type="line"/>
    </contour>
    <contour>
      <point x="402" y="549" type="line"/>
      <point x="402" y="159" type="line"/>
      <point x="496" y="109" type="line"/>
      <point x="496" y="549" type="line"/>
    </contour>
    <contour>
      <point x="207" y="549" type="line"/>
      <point x="160" y="502" type="line"/>
      <point x="355" y="307" type="line"/>
      <point x="402" y="354" type="line"/>
    </contour>
    <contour>
      <point x="207" y="159" type="line"/>
      <point x="402" y="354" type="line"/>
      <point x="355" y="401" type="line"/>
      <point x="160" y="206" type="line"/>
    </contour>
    <contour>
      <point x="207" y="159" type="line"/>
      <point x="254" y="206" type="line"/>
      <point x="59" y="401" type="line"/>
      <point x="12" y="354" type="line"/>
    </contour>
    <contour>
      <point x="402" y="209" type="line"/>
      <point x="402" y="0" type="line"/>
      <point x="496" y="-50" type="line"/>
      <point x="496" y="159" type="line"/>
    </contour>
  </outline>
</glyph>
<glyph name="cha-soyo" format="2">
  <advance width="620"/>
  <unicode hex="11A62"/>
  <anchor x="452" y="-0.103" name="bottom"/>
  <anchor x="260" y="714" name="top"/>
  <outline>
    <contour>
      <point x="452" y="714" type="line"/>
      <point x="452" y="487" type="line"/>
      <point x="546" y="487" type="line"/>
      <point x="546" y="714" type="line"/>
    </contour>
    <contour>
      <point x="460" y="708" type="line"/>
      <point x="460" y="714" type="line"/>
      <point x="60" y="714" type="line"/>
      <point x="60" y="708" type="line"/>
      <point x="260" y="589" type="line"/>
    </contour>
    <contour>
      <point x="452" y="549" type="line"/>
      <point x="452" y="199" type="line"/>
      <point x="546" y="149" type="line"/>
      <point x="546" y="549" type="line"/>
    </contour>
    <contour>
      <point x="277" y="549" type="line"/>
      <point x="230" y="502" type="line"/>
      <point x="405" y="327" type="line"/>
      <point x="452" y="374" type="line"/>
    </contour>
    <contour>
      <point x="277" y="199" type="line"/>
      <point x="452" y="374" type="line"/>
      <point x="405" y="421" type="line"/>
      <point x="230" y="246" type="line"/>
    </contour>
    <contour>
      <point x="277" y="549" type="line"/>
      <point x="22" y="294" type="line"/>
      <point x="69" y="247" type="line"/>
      <point x="324" y="502" type="line"/>
    </contour>
    <contour>
      <point x="277" y="199" type="line"/>
      <point x="324" y="246" type="line"/>
      <point x="69" y="501" type="line"/>
      <point x="22" y="454" type="line"/>
    </contour>
    <contour>
      <point x="452" y="249" type="line"/>
      <point x="452" y="0" type="line"/>
      <point x="546" y="-50" type="line"/>
      <point x="546" y="199" type="line"/>
    </contour>
  </outline>
</glyph>
<glyph name="jha-soyo" format="2">
  <advance width="590"/>
  <unicode hex="11A64"/>
  <anchor x="422" y="0.055" name="bottom"/>
  <anchor x="230" y="714" name="top"/>
  <outline>
    <contour>
      <point x="422" y="714" type="line"/>
      <point x="422" y="487" type="line"/>
      <point x="516" y="487" type="line"/>
      <point x="516" y="714" type="line"/>
    </contour>
    <contour>
      <point x="430" y="708" type="line"/>
      <point x="430" y="714" type="line"/>
      <point x="30" y="714" type="line"/>
      <point x="30" y="708" type="line"/>
      <point x="230" y="589" type="line"/>
    </contour>
    <contour>
      <point x="422" y="549" type="line"/>
      <point x="422" y="159" type="line"/>
      <point x="516" y="109" type="line"/>
      <point x="516" y="549" type="line"/>
    </contour>
    <contour>
      <point x="227" y="159" type="line"/>
      <point x="422" y="354" type="line"/>
      <point x="370" y="406" type="line"/>
      <point x="175" y="211" type="line"/>
    </contour>
    <contour>
      <point x="227" y="549" type="line"/>
      <point x="175" y="497" type="line"/>
      <point x="370" y="302" type="line"/>
      <point x="422" y="354" type="line"/>
    </contour>
    <contour>
      <point x="227" y="549" type="line"/>
      <point x="32" y="354" type="line"/>
      <point x="84" y="302" type="line"/>
      <point x="279" y="497" type="line"/>
    </contour>
    <contour>
      <point x="32" y="549" type="line"/>
      <point x="32" y="354" type="line"/>
      <point x="98" y="354" type="line"/>
      <point x="98" y="514" type="line"/>
    </contour>
    <contour>
      <point x="422" y="209" type="line"/>
      <point x="422" y="0" type="line"/>
      <point x="516" y="-50" type="line"/>
      <point x="516" y="159" type="line"/>
    </contour>
  </outline>
</glyph>
<glyph name="nya-soyo" format="2">
  <advance width="570"/>
  <unicode hex="11A65"/>
  <anchor x="402" y="0.055" name="bottom"/>
  <anchor x="210" y="714" name="top"/>
  <outline>
    <contour>
      <point x="402" y="714" type="line"/>
      <point x="402" y="487" type="line"/>
      <point x="496" y="487" type="line"/>
      <point x="496" y="714" type="line"/>
    </contour>
    <contour>
      <point x="410" y="708" type="line"/>
      <point x="410" y="714" type="line"/>
      <point x="10" y="714" type="line"/>
      <point x="10" y="708" type="line"/>
      <point x="210" y="589" type="line"/>
    </contour>
    <contour>
      <point x="402" y="549" type="line"/>
      <point x="402" y="159" type="line"/>
      <point x="496" y="109" type="line"/>
      <point x="496" y="549" type="line"/>
    </contour>
    <contour>
      <point x="207" y="159" type="line"/>
      <point x="402" y="354" type="line"/>
      <point x="357" y="399" type="line"/>
      <point x="162" y="204" type="line"/>
    </contour>
    <contour>
      <point x="207" y="549" type="line"/>
      <point x="162" y="504" type="line"/>
      <point x="357" y="309" type="line"/>
      <point x="402" y="354" type="line"/>
    </contour>
    <contour>
      <point x="207" y="549" type="line"/>
      <point x="87" y="429" type="line"/>
      <point x="131" y="384" type="line"/>
      <point x="252" y="504" type="line"/>
    </contour>
    <contour>
      <point x="207" y="159" type="line"/>
      <point x="252" y="204" type="line"/>
      <point x="57" y="399" type="line"/>
      <point x="12" y="354" type="line"/>
    </contour>
    <contour>
      <point x="207" y="308" type="line"/>
      <point x="252" y="353" type="line"/>
      <point x="131" y="473" type="line"/>
      <point x="87" y="429" type="line"/>
    </contour>
    <contour>
      <point x="402" y="209" type="line"/>
      <point x="402" y="0" type="line"/>
      <point x="496" y="-50" type="line"/>
      <point x="496" y="159" type="line"/>
    </contour>
  </outline>
</glyph>
<glyph name="ttha-soyo" format="2">
  <advance width="570"/>
  <unicode hex="11A67"/>
  <anchor x="402" y="0" name="bottom"/>
  <anchor x="210" y="714" name="top"/>
  <outline>
    <contour>
      <point x="402" y="714" type="line"/>
      <point x="402" y="487" type="line"/>
      <point x="496" y="487" type="line"/>
      <point x="496" y="714" type="line"/>
    </contour>
    <contour>
      <point x="410" y="708" type="line"/>
      <point x="410" y="714" type="line"/>
      <point x="10" y="714" type="line"/>
      <point x="10" y="708" type="line"/>
      <point x="210" y="589" type="line"/>
    </contour>
    <contour>
      <point x="402" y="549" type="line"/>
      <point x="402" y="61" type="line"/>
      <point x="496" y="11" type="line"/>
      <point x="496" y="549" type="line"/>
    </contour>
    <contour>
      <point x="163" y="649" type="line"/>
      <point x="163" y="111" type="line"/>
      <point x="257" y="61" type="line"/>
      <point x="257" y="649" type="line"/>
    </contour>
    <contour>
      <point x="51" y="444" type="line"/>
      <point x="163" y="384" type="line"/>
      <point x="163" y="504" type="line"/>
    </contour>
    <contour>
      <point x="51" y="324" type="line"/>
      <point x="163" y="264" type="line"/>
      <point x="163" y="384" type="line"/>
    </contour>
    <contour>
      <point x="369" y="384" type="line"/>
      <point x="257" y="444" type="line"/>
      <point x="257" y="324" type="line"/>
    </contour>
    <contour>
      <point x="402" y="111" type="line"/>
      <point x="402" y="0" type="line"/>
      <point x="496" y="-50" type="line"/>
      <point x="496" y="61" type="line"/>
    </contour>
  </outline>
</glyph>
<glyph name="ddha-soyo" format="2">
  <advance width="670"/>
  <unicode hex="11A69"/>
  <anchor x="502" y="-0.153" name="bottom"/>
  <anchor x="310" y="714" name="top"/>
  <outline>
    <contour>
      <point x="502" y="714" type="line"/>
      <point x="502" y="487" type="line"/>
      <point x="596" y="487" type="line"/>
      <point x="596" y="714" type="line"/>
    </contour>
    <contour>
      <point x="510" y="708" type="line"/>
      <point x="510" y="714" type="line"/>
      <point x="110" y="714" type="line"/>
      <point x="110" y="708" type="line"/>
      <point x="310" y="589" type="line"/>
    </contour>
    <contour>
      <point x="502" y="549" type="line"/>
      <point x="502" y="291" type="line"/>
      <point x="596" y="241" type="line"/>
      <point x="596" y="599" type="line"/>
    </contour>
    <contour>
      <point x="263" y="649" type="line"/>
      <point x="263" y="341" type="line"/>
      <point x="357" y="291" type="line"/>
      <point x="357" y="649" type="line"/>
    </contour>
    <contour>
      <point x="531" y="484" type="line"/>
      <point x="531" y="434" type="line"/>
      <point x="535" y="434" type="line"/>
      <point x="535" y="484" type="line"/>
    </contour>
    <contour>
      <point x="95" y="614" type="curve" smooth="yes"/>
      <point x="46" y="614"/>
      <point x="24" y="587"/>
      <point x="24" y="530" type="curve" smooth="yes"/>
      <point x="24" y="428"/>
      <point x="105" y="376"/>
      <point x="259" y="376" type="curve" smooth="yes"/>
      <point x="307" y="376" type="line"/>
      <point x="307" y="426" type="line"/>
      <point x="259" y="426" type="line" smooth="yes"/>
      <point x="161" y="426"/>
      <point x="118" y="461"/>
      <point x="118" y="526" type="curve" smooth="yes"/>
      <point x="118" y="556"/>
      <point x="125" y="582"/>
      <point x="140" y="604" type="curve"/>
      <point x="126" y="611"/>
      <point x="111" y="614"/>
    </contour>
    <contour>
      <point x="502" y="291" type="line"/>
      <point x="502" y="13" type="line"/>
      <point x="596" y="-37" type="line"/>
      <point x="596" y="291" type="line"/>
    </contour>
    <contour>
      <point x="263" y="351" type="line"/>
      <point x="263" y="63" type="line"/>
      <point x="357" y="13" type="line"/>
      <point x="357" y="351" type="line"/>
    </contour>
    <contour>
      <point x="151" y="224" type="line"/>
      <point x="263" y="164" type="line"/>
      <point x="263" y="284" type="line"/>
    </contour>
    <contour>
      <point x="521" y="249" type="line"/>
      <point x="521" y="199" type="line"/>
      <point x="535" y="199" type="line"/>
      <point x="535" y="249" type="line"/>
    </contour>
    <contour>
      <point x="502" y="63" type="line"/>
      <point x="502" y="0" type="line"/>
      <point x="596" y="-50" type="line"/>
      <point x="596" y="13" type="line"/>
    </contour>
  </outline>
</glyph>
<glyph name="ta-soyo" format="2">
  <advance width="620"/>
  <unicode hex="11A6B"/>
  <anchor x="452" y="-0.172" name="bottom"/>
  <anchor x="260" y="714" name="top"/>
  <outline>
    <contour>
      <point x="452" y="714" type="line"/>
      <point x="452" y="487" type="line"/>
      <point x="546" y="487" type="line"/>
      <point x="546" y="714" type="line"/>
    </contour>
    <contour>
      <point x="460" y="708" type="line"/>
      <point x="460" y="714" type="line"/>
      <point x="60" y="714" type="line"/>
      <point x="60" y="708" type="line"/>
      <point x="260" y="589" type="line"/>
    </contour>
    <contour>
      <point x="452" y="549" type="line"/>
      <point x="452" y="234" type="line"/>
      <point x="546" y="184" type="line"/>
      <point x="546" y="549" type="line"/>
    </contour>
    <contour>
      <point x="156" y="234" type="curve" smooth="yes"/>
      <point x="221" y="234"/>
      <point x="270" y="264"/>
      <point x="302" y="325" type="curve"/>
      <point x="267" y="346" type="line"/>
      <point x="242" y="313"/>
      <point x="209" y="298"/>
      <point x="171" y="298" type="curve" smooth="yes"/>
      <point x="117" y="298"/>
      <point x="88" y="329"/>
      <point x="88" y="376" type="curve" smooth="yes"/>
      <point x="88" y="428"/>
      <point x="128" y="459"/>
      <point x="204" y="459" type="curve" smooth="yes"/>
      <point x="301" y="459"/>
      <point x="397" y="412"/>
      <point x="493" y="311" type="curve"/>
      <point x="508" y="371" type="line"/>
      <point x="398" y="481"/>
      <point x="295" y="519"/>
      <point x="197" y="519" type="curve" smooth="yes"/>
      <point x="82" y="519"/>
      <point x="14" y="468"/>
      <point x="14" y="372" type="curve" smooth="yes"/>
      <point x="14" y="285"/>
      <point x="74" y="234"/>
    </contour>
    <contour>
      <point x="452" y="284" type="line"/>
      <point x="452" y="0" type="line"/>
      <point x="546" y="-50" type="line"/>
      <point x="546" y="234" type="line"/>
    </contour>
  </outline>
</glyph>
<glyph name="tha-soyo" format="2">
  <advance width="570"/>
  <unicode hex="11A6C"/>
  <anchor x="402" y="-0.041" name="bottom"/>
  <anchor x="210" y="714" name="top"/>
  <outline>
    <contour>
      <point x="402" y="714" type="line"/>
      <point x="402" y="487" type="line"/>
      <point x="496" y="487" type="line"/>
      <point x="496" y="714" type="line"/>
    </contour>
    <contour>
      <point x="410" y="708" type="line"/>
      <point x="410" y="714" type="line"/>
      <point x="10" y="714" type="line"/>
      <point x="10" y="708" type="line"/>
      <point x="210" y="589" type="line"/>
    </contour>
    <contour>
      <point x="207" y="289" type="curve" smooth="yes"/>
      <point x="285" y="289"/>
      <point x="339" y="342"/>
      <point x="339" y="419" type="curve" smooth="yes"/>
      <point x="339" y="496"/>
      <point x="285" y="549"/>
      <point x="207" y="549" type="curve" smooth="yes"/>
      <point x="129" y="549"/>
      <point x="75" y="496"/>
      <point x="75" y="419" type="curve" smooth="yes"/>
      <point x="75" y="342"/>
      <point x="129" y="289"/>
    </contour>
    <contour>
      <point x="207" y="354" type="curve" smooth="yes"/>
      <point x="167" y="354"/>
      <point x="140" y="380"/>
      <point x="140" y="419" type="curve" smooth="yes"/>
      <point x="140" y="458"/>
      <point x="167" y="484"/>
      <point x="207" y="484" type="curve" smooth="yes"/>
      <point x="247" y="484"/>
      <point x="274" y="458"/>
      <point x="274" y="419" type="curve" smooth="yes"/>
      <point x="274" y="380"/>
      <point x="247" y="354"/>
    </contour>
    <contour>
      <point x="496" y="239" type="line"/>
      <point x="496" y="549" type="line"/>
      <point x="402" y="549" type="line"/>
      <point x="402" y="289" type="line"/>
    </contour>
    <contour>
      <point x="496" y="81" type="line"/>
      <point x="496" y="289" type="line"/>
      <point x="402" y="289" type="line"/>
      <point x="402" y="131" type="line"/>
    </contour>
    <contour>
      <point x="176" y="305" type="line"/>
      <point x="176" y="176" type="line"/>
      <point x="244" y="176" type="line"/>
      <point x="244" y="305" type="line"/>
    </contour>
    <contour>
      <point x="48" y="199" type="line"/>
      <point x="48" y="131" type="line"/>
      <point x="366" y="131" type="line"/>
      <point x="366" y="199" type="line"/>
    </contour>
    <contour>
      <point x="402" y="181" type="line"/>
      <point x="402" y="0" type="line"/>
      <point x="496" y="-50" type="line"/>
      <point x="496" y="131" type="line"/>
    </contour>
  </outline>
</glyph>
<glyph name="da-soyo" format="2">
  <advance width="600"/>
  <unicode hex="11A6D"/>
  <anchor x="432" y="0.198" name="bottom"/>
  <anchor x="240" y="714" name="top"/>
  <outline>
    <contour>
      <point x="432" y="714" type="line"/>
      <point x="432" y="487" type="line"/>
      <point x="526" y="487" type="line"/>
      <point x="526" y="714" type="line"/>
    </contour>
    <contour>
      <point x="440" y="708" type="line"/>
      <point x="440" y="714" type="line"/>
      <point x="40" y="714" type="line"/>
      <point x="40" y="708" type="line"/>
      <point x="240" y="589" type="line"/>
    </contour>
    <contour>
      <point x="432" y="549" type="line"/>
      <point x="432" y="61" type="line"/>
      <point x="526" y="11" type="line"/>
      <point x="526" y="549" type="line"/>
    </contour>
    <contour>
      <point x="287" y="266" type="line"/>
      <point x="193" y="266" type="line"/>
      <point x="193" y="111" type="line"/>
      <point x="287" y="61" type="line"/>
    </contour>
    <contour>
      <point x="287" y="283" type="line"/>
      <point x="155" y="283"/>
      <point x="101" y="308"/>
      <point x="101" y="384" type="curve" smooth="yes"/>
      <point x="101" y="460"/>
      <point x="152" y="485"/>
      <point x="287" y="485" type="curve"/>
      <point x="287" y="549" type="line"/>
      <point x="111" y="549"/>
      <point x="27" y="502"/>
      <point x="27" y="384" type="curve" smooth="yes"/>
      <point x="27" y="267"/>
      <point x="108" y="219"/>
      <point x="287" y="219" type="curve"/>
    </contour>
    <contour>
      <point x="193" y="506" type="line"/>
      <point x="287" y="506" type="line"/>
      <point x="287" y="639" type="line"/>
      <point x="193" y="639" type="line"/>
    </contour>
    <contour>
      <point x="432" y="111" type="line"/>
      <point x="432" y="0" type="line"/>
      <point x="526" y="-50" type="line"/>
      <point x="526" y="61" type="line"/>
    </contour>
  </outline>
</glyph>
<glyph name="dha-soyo" format="2">
  <advance width="660"/>
  <unicode hex="11A6E"/>
  <anchor x="492" y="0" name="bottom"/>
  <anchor x="300" y="714" name="top"/>
  <outline>
    <contour>
      <point x="492" y="714" type="line"/>
      <point x="492" y="487" type="line"/>
      <point x="586" y="487" type="line"/>
      <point x="586" y="714" type="line"/>
    </contour>
    <contour>
      <point x="500" y="708" type="line"/>
      <point x="500" y="714" type="line"/>
      <point x="100" y="714" type="line"/>
      <point x="100" y="708" type="line"/>
      <point x="300" y="589" type="line"/>
    </contour>
    <contour>
      <point x="492" y="549" type="line"/>
      <point x="492" y="241" type="line"/>
      <point x="586" y="191" type="line"/>
      <point x="586" y="599" type="line"/>
    </contour>
    <contour>
      <point x="253" y="639" type="line"/>
      <point x="253" y="291" type="line"/>
      <point x="347" y="241" type="line"/>
      <point x="347" y="639" type="line"/>
    </contour>
    <contour>
      <point x="519" y="434" type="line"/>
      <point x="519" y="384" type="line"/>
      <point x="525" y="384" type="line"/>
      <point x="525" y="434" type="line"/>
    </contour>
    <contour>
      <point x="85" y="564" type="curve" smooth="yes"/>
      <point x="36" y="564"/>
      <point x="14" y="537"/>
      <point x="14" y="480" type="curve" smooth="yes"/>
      <point x="14" y="378"/>
      <point x="95" y="326"/>
      <point x="249" y="326" type="curve" smooth="yes"/>
      <point x="297" y="326" type="line"/>
      <point x="297" y="376" type="line"/>
      <point x="249" y="376" type="line" smooth="yes"/>
      <point x="151" y="376"/>
      <point x="108" y="411"/>
      <point x="108" y="476" type="curve" smooth="yes"/>
      <point x="108" y="506"/>
      <point x="115" y="532"/>
      <point x="130" y="554" type="curve"/>
      <point x="116" y="561"/>
      <point x="101" y="564"/>
    </contour>
    <contour>
      <point x="492" y="241" type="line"/>
      <point x="492" y="35" type="line"/>
      <point x="586" y="-15" type="line"/>
      <point x="586" y="241" type="line"/>
    </contour>
    <contour>
      <point x="250" y="50" type="curve" smooth="yes"/>
      <point x="286" y="50"/>
      <point x="324" y="59"/>
      <point x="358" y="76" type="curve"/>
      <point x="338" y="125" type="line"/>
      <point x="315" y="118"/>
      <point x="287" y="114"/>
      <point x="264" y="114" type="curve" smooth="yes"/>
      <point x="220" y="114"/>
      <point x="198" y="130"/>
      <point x="198" y="156" type="curve" smooth="yes"/>
      <point x="198" y="192"/>
      <point x="237" y="214"/>
      <point x="347" y="241" type="curve"/>
      <point x="347" y="333" type="line"/>
      <point x="253" y="333" type="line"/>
      <point x="253" y="272" type="line"/>
      <point x="176" y="251"/>
      <point x="124" y="215"/>
      <point x="124" y="150" type="curve" smooth="yes"/>
      <point x="124" y="87"/>
      <point x="174" y="50"/>
    </contour>
    <contour>
      <point x="492" y="85" type="line"/>
      <point x="492" y="0" type="line"/>
      <point x="586" y="-50" type="line"/>
      <point x="586" y="35" type="line"/>
    </contour>
  </outline>
</glyph>
<glyph name="na-soyo" format="2">
  <advance width="600"/>
  <unicode hex="11A6F"/>
  <anchor x="432" y="0.11" name="bottom"/>
  <anchor x="240" y="714" name="top"/>
  <outline>
    <contour>
      <point x="432" y="714" type="line"/>
      <point x="432" y="487" type="line"/>
      <point x="526" y="487" type="line"/>
      <point x="526" y="714" type="line"/>
    </contour>
    <contour>
      <point x="440" y="708" type="line"/>
      <point x="440" y="714" type="line"/>
      <point x="40" y="714" type="line"/>
      <point x="40" y="708" type="line"/>
      <point x="240" y="589" type="line"/>
    </contour>
    <contour>
      <point x="432" y="549" type="line"/>
      <point x="432" y="29" type="line"/>
      <point x="526" y="-21" type="line"/>
      <point x="526" y="549" type="line"/>
    </contour>
    <contour>
      <point x="281" y="349" type="line"/>
      <point x="281" y="299" type="line"/>
      <point x="465" y="299" type="line"/>
      <point x="465" y="349" type="line"/>
    </contour>
    <contour>
      <point x="234" y="499" type="line"/>
      <point x="234" y="79" type="line"/>
      <point x="328" y="29" type="line"/>
      <point x="328" y="549" type="line"/>
    </contour>
    <contour>
      <point x="280" y="213" type="line"/>
      <point x="234" y="213" type="line" smooth="yes"/>
      <point x="118" y="213"/>
      <point x="84" y="249"/>
      <point x="84" y="324" type="curve" smooth="yes"/>
      <point x="84" y="399"/>
      <point x="118" y="435"/>
      <point x="234" y="435" type="curve" smooth="yes"/>
      <point x="280" y="435" type="line"/>
      <point x="280" y="499" type="line"/>
      <point x="234" y="499" type="line" smooth="yes"/>
      <point x="78" y="499"/>
      <point x="20" y="434"/>
      <point x="20" y="324" type="curve" smooth="yes"/>
      <point x="20" y="214"/>
      <point x="78" y="149"/>
      <point x="234" y="149" type="curve" smooth="yes"/>
      <point x="280" y="149" type="line"/>
    </contour>
    <contour>
      <point x="432" y="79" type="line"/>
      <point x="432" y="0" type="line"/>
      <point x="526" y="-50" type="line"/>
      <point x="526" y="29" type="line"/>
    </contour>
  </outline>
</glyph>
<glyph name="pa-soyo" format="2">
  <advance width="620"/>
  <unicode hex="11A70"/>
  <anchor x="452" y="-0.167" name="bottom"/>
  <anchor x="260" y="714" name="top"/>
  <outline>
    <contour>
      <point x="452" y="714" type="line"/>
      <point x="452" y="487" type="line"/>
      <point x="546" y="487" type="line"/>
      <point x="546" y="714" type="line"/>
    </contour>
    <contour>
      <point x="460" y="708" type="line"/>
      <point x="460" y="714" type="line"/>
      <point x="60" y="714" type="line"/>
      <point x="60" y="708" type="line"/>
      <point x="260" y="589" type="line"/>
    </contour>
    <contour>
      <point x="452" y="549" type="line"/>
      <point x="452" y="229" type="line"/>
      <point x="546" y="179" type="line"/>
      <point x="546" y="549" type="line"/>
    </contour>
    <contour>
      <point x="156" y="514" type="curve" smooth="yes"/>
      <point x="74" y="514"/>
      <point x="14" y="463"/>
      <point x="14" y="376" type="curve" smooth="yes"/>
      <point x="14" y="280"/>
      <point x="83" y="229"/>
      <point x="192" y="229" type="curve" smooth="yes"/>
      <point x="292" y="229"/>
      <point x="394" y="275"/>
      <point x="501" y="409" type="curve"/>
      <point x="453" y="427" type="line"/>
      <point x="370" y="333"/>
      <point x="287" y="289"/>
      <point x="199" y="289" type="curve" smooth="yes"/>
      <point x="128" y="289"/>
      <point x="88" y="321"/>
      <point x="88" y="373" type="curve" smooth="yes"/>
      <point x="88" y="419"/>
      <point x="117" y="450"/>
      <point x="171" y="450" type="curve" smooth="yes"/>
      <point x="209" y="450"/>
      <point x="242" y="435"/>
      <point x="267" y="402" type="curve"/>
      <point x="302" y="423" type="line"/>
      <point x="270" y="485"/>
      <point x="221" y="514"/>
    </contour>
    <contour>
      <point x="452" y="279" type="line"/>
      <point x="452" y="0" type="line"/>
      <point x="546" y="-50" type="line"/>
      <point x="546" y="229" type="line"/>
    </contour>
  </outline>
</glyph>
<glyph name="pha-soyo" format="2">
  <advance width="630"/>
  <unicode hex="11A71"/>
  <anchor x="462" y="-0.035" name="bottom"/>
  <anchor x="270" y="714" name="top"/>
  <outline>
    <contour>
      <point x="462" y="714" type="line"/>
      <point x="462" y="487" type="line"/>
      <point x="556" y="487" type="line"/>
      <point x="556" y="714" type="line"/>
    </contour>
    <contour>
      <point x="470" y="708" type="line"/>
      <point x="470" y="714" type="line"/>
      <point x="70" y="714" type="line"/>
      <point x="70" y="708" type="line"/>
      <point x="270" y="589" type="line"/>
    </contour>
    <contour>
      <point x="462" y="549" type="line"/>
      <point x="462" y="402" type="line"/>
      <point x="556" y="352" type="line"/>
      <point x="556" y="549" type="line"/>
    </contour>
    <contour>
      <point x="120" y="609" type="curve" smooth="yes"/>
      <point x="77" y="609"/>
      <point x="44" y="581"/>
      <point x="44" y="535" type="curve" smooth="yes"/>
      <point x="44" y="468"/>
      <point x="111" y="433"/>
      <point x="206" y="433" type="curve" smooth="yes"/>
      <point x="297" y="433"/>
      <point x="367" y="462"/>
      <point x="438" y="535" type="curve"/>
      <point x="409" y="572" type="line"/>
      <point x="355" y="528"/>
      <point x="300" y="504"/>
      <point x="235" y="504" type="curve" smooth="yes"/>
      <point x="183" y="504"/>
      <point x="158" y="524"/>
      <point x="158" y="553" type="curve" smooth="yes"/>
      <point x="158" y="567"/>
      <point x="163" y="582"/>
      <point x="173" y="591" type="curve"/>
      <point x="163" y="602"/>
      <point x="144" y="609"/>
    </contour>
    <contour>
      <point x="462" y="402" type="line"/>
      <point x="462" y="118" type="line"/>
      <point x="556" y="68" type="line"/>
      <point x="556" y="402" type="line"/>
    </contour>
    <contour>
      <point x="159" y="373" type="curve" smooth="yes"/>
      <point x="81" y="373"/>
      <point x="24" y="328"/>
      <point x="24" y="249" type="curve" smooth="yes"/>
      <point x="24" y="163"/>
      <point x="88" y="118"/>
      <point x="195" y="118" type="curve" smooth="yes"/>
      <point x="297" y="118"/>
      <point x="399" y="161"/>
      <point x="507" y="286" type="curve"/>
      <point x="463" y="309" type="line"/>
      <point x="378" y="220"/>
      <point x="294" y="178"/>
      <point x="202" y="178" type="curve" smooth="yes"/>
      <point x="134" y="178"/>
      <point x="98" y="204"/>
      <point x="98" y="247" type="curve" smooth="yes"/>
      <point x="98" y="284"/>
      <point x="124" y="309"/>
      <point x="175" y="309" type="curve" smooth="yes"/>
      <point x="211" y="309"/>
      <point x="245" y="296"/>
      <point x="271" y="266" type="curve"/>
      <point x="306" y="287" type="line"/>
      <point x="272" y="345"/>
      <point x="223" y="373"/>
    </contour>
    <contour>
      <point x="462" y="168" type="line"/>
      <point x="462" y="0" type="line"/>
      <point x="556" y="-50" type="line"/>
      <point x="556" y="118" type="line"/>
    </contour>
  </outline>
</glyph>
<glyph name="ba-soyo" format="2">
  <advance width="580"/>
  <unicode hex="11A72"/>
  <anchor x="412" y="0.148" name="bottom"/>
  <anchor x="220" y="714" name="top"/>
  <outline>
    <contour>
      <point x="412" y="714" type="line"/>
      <point x="412" y="487" type="line"/>
      <point x="506" y="487" type="line"/>
      <point x="506" y="714" type="line"/>
    </contour>
    <contour>
      <point x="420" y="708" type="line"/>
      <point x="420" y="714" type="line"/>
      <point x="20" y="714" type="line"/>
      <point x="20" y="708" type="line"/>
      <point x="220" y="589" type="line"/>
    </contour>
    <contour>
      <point x="412" y="549" type="line"/>
      <point x="412" y="122" type="line"/>
      <point x="506" y="72" type="line"/>
      <point x="506" y="549" type="line"/>
    </contour>
    <contour>
      <point x="368" y="269" type="curve" smooth="yes"/>
      <point x="368" y="332"/>
      <point x="330" y="377"/>
      <point x="267" y="405" type="curve"/>
      <point x="246" y="370" type="line"/>
      <point x="286" y="348"/>
      <point x="304" y="319"/>
      <point x="304" y="284" type="curve" smooth="yes"/>
      <point x="304" y="228"/>
      <point x="265" y="196"/>
      <point x="197" y="196" type="curve" smooth="yes"/>
      <point x="137" y="196"/>
      <point x="93" y="221"/>
      <point x="93" y="286" type="curve" smooth="yes"/>
      <point x="93" y="347"/>
      <point x="133" y="412"/>
      <point x="244" y="514" type="curve"/>
      <point x="212" y="549" type="line"/>
      <point x="67" y="424"/>
      <point x="33" y="360"/>
      <point x="33" y="280" type="curve" smooth="yes"/>
      <point x="33" y="178"/>
      <point x="95" y="122"/>
      <point x="203" y="122" type="curve" smooth="yes"/>
      <point x="310" y="122"/>
      <point x="368" y="184"/>
    </contour>
    <contour>
      <point x="412" y="172" type="line"/>
      <point x="412" y="0" type="line"/>
      <point x="506" y="-50" type="line"/>
      <point x="506" y="122" type="line"/>
    </contour>
  </outline>
</glyph>
<glyph name="bha-soyo" format="2">
  <advance width="610"/>
  <unicode hex="11A73"/>
  <anchor x="442" y="-0.005" name="bottom"/>
  <anchor x="250" y="714" name="top"/>
  <outline>
    <contour>
      <point x="442" y="714" type="line"/>
      <point x="442" y="487" type="line"/>
      <point x="536" y="487" type="line"/>
      <point x="536" y="714" type="line"/>
    </contour>
    <contour>
      <point x="450" y="708" type="line"/>
      <point x="450" y="714" type="line"/>
      <point x="50" y="714" type="line"/>
      <point x="50" y="708" type="line"/>
      <point x="250" y="589" type="line"/>
    </contour>
    <contour>
      <point x="442" y="549" type="line"/>
      <point x="442" y="402" type="line"/>
      <point x="536" y="352" type="line"/>
      <point x="536" y="549" type="line"/>
    </contour>
    <contour>
      <point x="100" y="609" type="curve" smooth="yes"/>
      <point x="57" y="609"/>
      <point x="24" y="581"/>
      <point x="24" y="535" type="curve" smooth="yes"/>
      <point x="24" y="468"/>
      <point x="91" y="433"/>
      <point x="186" y="433" type="curve" smooth="yes"/>
      <point x="277" y="433"/>
      <point x="347" y="462"/>
      <point x="418" y="535" type="curve"/>
      <point x="389" y="572" type="line"/>
      <point x="335" y="528"/>
      <point x="280" y="504"/>
      <point x="215" y="504" type="curve" smooth="yes"/>
      <point x="163" y="504"/>
      <point x="138" y="524"/>
      <point x="138" y="553" type="curve" smooth="yes"/>
      <point x="138" y="567"/>
      <point x="143" y="582"/>
      <point x="153" y="591" type="curve"/>
      <point x="143" y="602"/>
      <point x="124" y="609"/>
    </contour>
    <contour>
      <point x="442" y="402" type="line"/>
      <point x="442" y="75" type="line"/>
      <point x="536" y="25" type="line"/>
      <point x="536" y="402" type="line"/>
    </contour>
    <contour>
      <point x="398" y="188" type="curve" smooth="yes"/>
      <point x="398" y="241"/>
      <point x="358" y="274"/>
      <point x="292" y="295" type="curve"/>
      <point x="276" y="258" type="line"/>
      <point x="316" y="243"/>
      <point x="334" y="225"/>
      <point x="334" y="203" type="curve" smooth="yes"/>
      <point x="334" y="169"/>
      <point x="295" y="149"/>
      <point x="227" y="149" type="curve" smooth="yes"/>
      <point x="167" y="149"/>
      <point x="123" y="166"/>
      <point x="123" y="210" type="curve" smooth="yes"/>
      <point x="123" y="250"/>
      <point x="162" y="295"/>
      <point x="269" y="363" type="curve"/>
      <point x="246" y="402" type="line"/>
      <point x="100" y="316"/>
      <point x="63" y="268"/>
      <point x="63" y="203" type="curve" smooth="yes"/>
      <point x="63" y="121"/>
      <point x="125" y="75"/>
      <point x="233" y="75" type="curve" smooth="yes"/>
      <point x="340" y="75"/>
      <point x="398" y="123"/>
    </contour>
    <contour>
      <point x="442" y="125" type="line"/>
      <point x="442" y="0" type="line"/>
      <point x="536" y="-50" type="line"/>
      <point x="536" y="75" type="line"/>
    </contour>
  </outline>
</glyph>
<glyph name="ma-soyo" format="2">
  <advance width="610"/>
  <unicode hex="11A74"/>
  <anchor x="442" y="31.203" name="bottom"/>
  <anchor x="250" y="714" name="top"/>
  <outline>
    <contour>
      <point x="442" y="714" type="line"/>
      <point x="442" y="487" type="line"/>
      <point x="536" y="487" type="line"/>
      <point x="536" y="714" type="line"/>
    </contour>
    <contour>
      <point x="450" y="708" type="line"/>
      <point x="450" y="714" type="line"/>
      <point x="50" y="714" type="line"/>
      <point x="50" y="708" type="line"/>
      <point x="250" y="589" type="line"/>
    </contour>
    <contour>
      <point x="442" y="549" type="line"/>
      <point x="442" y="372" type="line"/>
      <point x="536" y="322" type="line"/>
      <point x="536" y="549" type="line"/>
    </contour>
    <contour>
      <point x="100" y="609" type="curve" smooth="yes"/>
      <point x="57" y="609"/>
      <point x="24" y="581"/>
      <point x="24" y="535" type="curve" smooth="yes"/>
      <point x="24" y="468"/>
      <point x="91" y="433"/>
      <point x="186" y="433" type="curve" smooth="yes"/>
      <point x="277" y="433"/>
      <point x="348" y="462"/>
      <point x="418" y="535" type="curve"/>
      <point x="389" y="572" type="line"/>
      <point x="335" y="528"/>
      <point x="280" y="504"/>
      <point x="215" y="504" type="curve" smooth="yes"/>
      <point x="163" y="504"/>
      <point x="138" y="524"/>
      <point x="138" y="553" type="curve" smooth="yes"/>
      <point x="138" y="567"/>
      <point x="143" y="582"/>
      <point x="153" y="591" type="curve"/>
      <point x="143" y="602"/>
      <point x="124" y="609"/>
    </contour>
    <contour>
      <point x="247" y="102" type="curve" smooth="yes"/>
      <point x="328" y="102"/>
      <point x="384" y="157"/>
      <point x="384" y="237" type="curve" smooth="yes"/>
      <point x="384" y="317"/>
      <point x="328" y="372"/>
      <point x="247" y="372" type="curve" smooth="yes"/>
      <point x="166" y="372"/>
      <point x="110" y="317"/>
      <point x="110" y="237" type="curve" smooth="yes"/>
      <point x="110" y="157"/>
      <point x="166" y="102"/>
    </contour>
    <contour>
      <point x="247" y="168" type="curve" smooth="yes"/>
      <point x="204" y="168"/>
      <point x="176" y="195"/>
      <point x="176" y="237" type="curve" smooth="yes"/>
      <point x="176" y="279"/>
      <point x="204" y="306"/>
      <point x="247" y="306" type="curve" smooth="yes"/>
      <point x="290" y="306"/>
      <point x="318" y="279"/>
      <point x="318" y="237" type="curve" smooth="yes"/>
      <point x="318" y="195"/>
      <point x="290" y="168"/>
    </contour>
    <contour>
      <point x="536" y="52" type="line"/>
      <point x="536" y="372" type="line"/>
      <point x="442" y="372" type="line"/>
      <point x="442" y="102" type="line"/>
    </contour>
    <contour>
      <point x="442" y="152" type="line"/>
      <point x="442" y="31" type="line"/>
      <point x="536" y="-19" type="line"/>
      <point x="536" y="102" type="line"/>
    </contour>
  </outline>
</glyph>
<glyph name="tsa-soyo" format="2">
  <advance width="570"/>
  <unicode hex="11A75"/>
  <anchor x="402" y="0.055" name="bottom"/>
  <anchor x="210" y="714" name="top"/>
  <outline>
    <contour>
      <point x="402" y="714" type="line"/>
      <point x="402" y="487" type="line"/>
      <point x="496" y="487" type="line"/>
      <point x="496" y="714" type="line"/>
    </contour>
    <contour>
      <point x="410" y="708" type="line"/>
      <point x="410" y="714" type="line"/>
      <point x="10" y="714" type="line"/>
      <point x="10" y="708" type="line"/>
      <point x="210" y="589" type="line"/>
    </contour>
    <contour>
      <point x="402" y="549" type="line"/>
      <point x="402" y="159" type="line"/>
      <point x="496" y="109" type="line"/>
      <point x="496" y="549" type="line"/>
    </contour>
    <contour>
      <point x="207" y="159" type="line"/>
      <point x="402" y="354" type="line"/>
      <point x="350" y="406" type="line"/>
      <point x="155" y="211" type="line"/>
    </contour>
    <contour>
      <point x="207" y="549" type="line"/>
      <point x="155" y="497" type="line"/>
      <point x="350" y="302" type="line"/>
      <point x="402" y="354" type="line"/>
    </contour>
    <contour>
      <point x="207" y="549" type="line"/>
      <point x="12" y="354" type="line"/>
      <point x="64" y="302" type="line"/>
      <point x="259" y="497" type="line"/>
    </contour>
    <contour>
      <point x="207" y="159" type="line"/>
      <point x="259" y="211" type="line"/>
      <point x="64" y="406" type="line"/>
      <point x="12" y="354" type="line"/>
    </contour>
    <contour>
      <point x="402" y="209" type="line"/>
      <point x="402" y="0" type="line"/>
      <point x="496" y="-50" type="line"/>
      <point x="496" y="159" type="line"/>
    </contour>
  </outline>
</glyph>
<glyph name="za-soyo" format="2">
  <advance width="620"/>
  <unicode hex="11A79"/>
  <anchor x="452" y="-0.059" name="bottom"/>
  <anchor x="260" y="714" name="top"/>
  <outline>
    <contour>
      <point x="452" y="714" type="line"/>
      <point x="452" y="487" type="line"/>
      <point x="546" y="487" type="line"/>
      <point x="546" y="714" type="line"/>
    </contour>
    <contour>
      <point x="460" y="708" type="line"/>
      <point x="460" y="714" type="line"/>
      <point x="60" y="714" type="line"/>
      <point x="60" y="708" type="line"/>
      <point x="260" y="589" type="line"/>
    </contour>
    <contour>
      <point x="452" y="549" type="line"/>
      <point x="452" y="342" type="line"/>
      <point x="546" y="292" type="line"/>
      <point x="546" y="549" type="line"/>
    </contour>
    <contour>
      <point x="110" y="569" type="curve" smooth="yes"/>
      <point x="67" y="569"/>
      <point x="34" y="541"/>
      <point x="34" y="495" type="curve" smooth="yes"/>
      <point x="34" y="428"/>
      <point x="101" y="393"/>
      <point x="196" y="393" type="curve" smooth="yes"/>
      <point x="287" y="393"/>
      <point x="360" y="421"/>
      <point x="428" y="495" type="curve"/>
      <point x="399" y="532" type="line"/>
      <point x="345" y="487"/>
      <point x="290" y="464"/>
      <point x="225" y="464" type="curve" smooth="yes"/>
      <point x="173" y="464"/>
      <point x="148" y="484"/>
      <point x="148" y="513" type="curve" smooth="yes"/>
      <point x="148" y="527"/>
      <point x="153" y="542"/>
      <point x="163" y="551" type="curve"/>
      <point x="153" y="561"/>
      <point x="134" y="569"/>
    </contour>
    <contour>
      <point x="546" y="137" type="line"/>
      <point x="546" y="342" type="line"/>
      <point x="452" y="342" type="line"/>
      <point x="452" y="187" type="line"/>
    </contour>
    <contour>
      <point x="196" y="423" type="line"/>
      <point x="196" y="231" type="line"/>
      <point x="263" y="231" type="line"/>
      <point x="263" y="423" type="line"/>
    </contour>
    <contour>
      <point x="38" y="254" type="line"/>
      <point x="38" y="187" type="line"/>
      <point x="415" y="187" type="line"/>
      <point x="415" y="254" type="line"/>
    </contour>
    <contour>
      <point x="452" y="237" type="line"/>
      <point x="452" y="0" type="line"/>
      <point x="546" y="-50" type="line"/>
      <point x="546" y="187" type="line"/>
    </contour>
  </outline>
</glyph>
<glyph name="aa-soyo" format="2">
  <advance width="570"/>
  <unicode hex="11A7A"/>
  <anchor x="402" y="0.148" name="bottom"/>
  <anchor x="210" y="714" name="top"/>
  <outline>
    <contour>
      <point x="402" y="714" type="line"/>
      <point x="402" y="487" type="line"/>
      <point x="496" y="487" type="line"/>
      <point x="496" y="714" type="line"/>
    </contour>
    <contour>
      <point x="410" y="708" type="line"/>
      <point x="410" y="714" type="line"/>
      <point x="10" y="714" type="line"/>
      <point x="10" y="708" type="line"/>
      <point x="210" y="589" type="line"/>
    </contour>
    <contour>
      <point x="402" y="549" type="line"/>
      <point x="402" y="122" type="line"/>
      <point x="496" y="72" type="line"/>
      <point x="496" y="549" type="line"/>
    </contour>
    <contour>
      <point x="23" y="402" type="curve" smooth="yes"/>
      <point x="23" y="339"/>
      <point x="61" y="294"/>
      <point x="124" y="266" type="curve"/>
      <point x="145" y="301" type="line"/>
      <point x="105" y="323"/>
      <point x="87" y="352"/>
      <point x="87" y="387" type="curve" smooth="yes"/>
      <point x="87" y="443"/>
      <point x="126" y="475"/>
      <point x="194" y="475" type="curve" smooth="yes"/>
      <point x="254" y="475"/>
      <point x="298" y="450"/>
      <point x="298" y="385" type="curve" smooth="yes"/>
      <point x="298" y="324"/>
      <point x="258" y="259"/>
      <point x="147" y="157" type="curve"/>
      <point x="179" y="122" type="line"/>
      <point x="324" y="247"/>
      <point x="358" y="311"/>
      <point x="358" y="391" type="curve" smooth="yes"/>
      <point x="358" y="493"/>
      <point x="296" y="549"/>
      <point x="188" y="549" type="curve" smooth="yes"/>
      <point x="81" y="549"/>
      <point x="23" y="487"/>
    </contour>
    <contour>
      <point x="402" y="172" type="line"/>
      <point x="402" y="0" type="line"/>
      <point x="496" y="-50" type="line"/>
      <point x="496" y="122" type="line"/>
    </contour>
  </outline>
</glyph>
<glyph name="ya-soyo" format="2">
  <advance width="610"/>
  <unicode hex="11A7B"/>
  <anchor x="442" y="0.368" name="bottom"/>
  <anchor x="250" y="714" name="top"/>
  <outline>
    <contour>
      <point x="442" y="714" type="line"/>
      <point x="442" y="487" type="line"/>
      <point x="536" y="487" type="line"/>
      <point x="536" y="714" type="line"/>
    </contour>
    <contour>
      <point x="450" y="708" type="line"/>
      <point x="450" y="714" type="line"/>
      <point x="50" y="714" type="line"/>
      <point x="50" y="708" type="line"/>
      <point x="250" y="589" type="line"/>
    </contour>
    <contour>
      <point x="442" y="549" type="line"/>
      <point x="442" y="382" type="line"/>
      <point x="536" y="332" type="line"/>
      <point x="536" y="549" type="line"/>
    </contour>
    <contour>
      <point x="100" y="609" type="curve" smooth="yes"/>
      <point x="57" y="609"/>
      <point x="24" y="581"/>
      <point x="24" y="535" type="curve" smooth="yes"/>
      <point x="24" y="468"/>
      <point x="91" y="433"/>
      <point x="186" y="433" type="curve" smooth="yes"/>
      <point x="277" y="433"/>
      <point x="348" y="462"/>
      <point x="418" y="535" type="curve"/>
      <point x="389" y="572" type="line"/>
      <point x="335" y="528"/>
      <point x="280" y="504"/>
      <point x="215" y="504" type="curve" smooth="yes"/>
      <point x="163" y="504"/>
      <point x="138" y="524"/>
      <point x="138" y="553" type="curve" smooth="yes"/>
      <point x="138" y="567"/>
      <point x="143" y="582"/>
      <point x="153" y="591" type="curve"/>
      <point x="143" y="602"/>
      <point x="124" y="609"/>
    </contour>
    <contour>
      <point x="134" y="81" type="line"/>
      <point x="134" y="251"/>
      <point x="147" y="302"/>
      <point x="247" y="302" type="curve" smooth="yes"/>
      <point x="346" y="302"/>
      <point x="360" y="254"/>
      <point x="360" y="81" type="curve"/>
      <point x="422" y="81" type="line"/>
      <point x="422" y="289"/>
      <point x="386" y="369"/>
      <point x="247" y="369" type="curve" smooth="yes"/>
      <point x="110" y="369"/>
      <point x="72" y="292"/>
      <point x="72" y="81" type="curve"/>
    </contour>
    <contour>
      <point x="536" y="31" type="line"/>
      <point x="536" y="382" type="line"/>
      <point x="442" y="382" type="line"/>
      <point x="442" y="81" type="line"/>
    </contour>
    <contour>
      <point x="115" y="149" type="line"/>
      <point x="115" y="81" type="line"/>
      <point x="379" y="81" type="line"/>
      <point x="379" y="149" type="line"/>
    </contour>
    <contour>
      <point x="442" y="131" type="line"/>
      <point x="442" y="0" type="line"/>
      <point x="536" y="-50" type="line"/>
      <point x="536" y="81" type="line"/>
    </contour>
  </outline>
</glyph>
<glyph name="ra-soyo" format="2">
  <advance width="610"/>
  <unicode hex="11A7C"/>
  <anchor x="442" y="-0.252" name="bottom"/>
  <anchor x="250" y="714" name="top"/>
  <outline>
    <contour>
      <point x="442" y="714" type="line"/>
      <point x="442" y="487" type="line"/>
      <point x="536" y="487" type="line"/>
      <point x="536" y="714" type="line"/>
    </contour>
    <contour>
      <point x="450" y="708" type="line"/>
      <point x="450" y="714" type="line"/>
      <point x="50" y="714" type="line"/>
      <point x="50" y="708" type="line"/>
      <point x="250" y="589" type="line"/>
    </contour>
    <contour>
      <point x="442" y="549" type="line"/>
      <point x="442" y="382" type="line"/>
      <point x="536" y="332" type="line"/>
      <point x="536" y="549" type="line"/>
    </contour>
    <contour>
      <point x="100" y="609" type="curve" smooth="yes"/>
      <point x="57" y="609"/>
      <point x="24" y="581"/>
      <point x="24" y="535" type="curve" smooth="yes"/>
      <point x="24" y="468"/>
      <point x="91" y="433"/>
      <point x="186" y="433" type="curve" smooth="yes"/>
      <point x="277" y="433"/>
      <point x="348" y="462"/>
      <point x="418" y="535" type="curve"/>
      <point x="389" y="572" type="line"/>
      <point x="335" y="528"/>
      <point x="280" y="504"/>
      <point x="215" y="504" type="curve" smooth="yes"/>
      <point x="163" y="504"/>
      <point x="138" y="524"/>
      <point x="138" y="553" type="curve" smooth="yes"/>
      <point x="138" y="567"/>
      <point x="143" y="582"/>
      <point x="153" y="591" type="curve"/>
      <point x="143" y="602"/>
      <point x="124" y="609"/>
    </contour>
    <contour>
      <point x="536" y="33" type="line"/>
      <point x="536" y="382" type="line"/>
      <point x="442" y="382" type="line"/>
      <point x="442" y="83" type="line"/>
    </contour>
    <contour>
      <point x="442" y="83" type="line"/>
      <point x="247" y="382" type="line"/>
      <point x="52" y="83" type="line"/>
    </contour>
    <contour>
      <point x="370" y="146" type="line"/>
      <point x="124" y="146" type="line"/>
      <point x="138" y="97" type="line"/>
      <point x="271" y="303" type="line"/>
      <point x="223" y="303" type="line"/>
      <point x="356" y="97" type="line"/>
    </contour>
    <contour>
      <point x="442" y="133" type="line"/>
      <point x="442" y="0" type="line"/>
      <point x="536" y="-50" type="line"/>
      <point x="536" y="83" type="line"/>
    </contour>
  </outline>
</glyph>
<glyph name="la-soyo" format="2">
  <advance width="610"/>
  <unicode hex="11A7D"/>
  <anchor x="442" y="-1.041" name="bottom"/>
  <anchor x="250" y="714" name="top"/>
  <outline>
    <contour>
      <point x="442" y="714" type="line"/>
      <point x="442" y="487" type="line"/>
      <point x="536" y="487" type="line"/>
      <point x="536" y="714" type="line"/>
    </contour>
    <contour>
      <point x="450" y="708" type="line"/>
      <point x="450" y="714" type="line"/>
      <point x="50" y="714" type="line"/>
      <point x="50" y="708" type="line"/>
      <point x="250" y="589" type="line"/>
    </contour>
    <contour>
      <point x="442" y="549" type="line"/>
      <point x="442" y="342" type="line"/>
      <point x="536" y="292" type="line"/>
      <point x="536" y="549" type="line"/>
    </contour>
    <contour>
      <point x="100" y="569" type="curve" smooth="yes"/>
      <point x="57" y="569"/>
      <point x="24" y="541"/>
      <point x="24" y="495" type="curve" smooth="yes"/>
      <point x="24" y="428"/>
      <point x="91" y="393"/>
      <point x="186" y="393" type="curve" smooth="yes"/>
      <point x="277" y="393"/>
      <point x="350" y="421"/>
      <point x="418" y="495" type="curve"/>
      <point x="389" y="532" type="line"/>
      <point x="335" y="487"/>
      <point x="280" y="464"/>
      <point x="215" y="464" type="curve" smooth="yes"/>
      <point x="163" y="464"/>
      <point x="138" y="484"/>
      <point x="138" y="513" type="curve" smooth="yes"/>
      <point x="138" y="527"/>
      <point x="143" y="542"/>
      <point x="153" y="551" type="curve"/>
      <point x="143" y="561"/>
      <point x="124" y="569"/>
    </contour>
    <contour>
      <point x="57" y="130" type="curve"/>
      <point x="102" y="146" type="line"/>
      <point x="98" y="155"/>
      <point x="96" y="169"/>
      <point x="96" y="181" type="curve" smooth="yes"/>
      <point x="96" y="232"/>
      <point x="136" y="262"/>
      <point x="205" y="262" type="curve" smooth="yes"/>
      <point x="267" y="262"/>
      <point x="330" y="243"/>
      <point x="390" y="203" type="curve"/>
      <point x="418" y="245" type="line"/>
      <point x="340" y="302"/>
      <point x="262" y="322"/>
      <point x="191" y="322" type="curve" smooth="yes"/>
      <point x="91" y="322"/>
      <point x="24" y="283"/>
      <point x="24" y="208" type="curve" smooth="yes"/>
      <point x="24" y="178"/>
      <point x="35" y="151"/>
    </contour>
    <contour>
      <point x="187" y="288" type="line"/>
      <point x="253" y="288" type="line"/>
      <point x="253" y="415" type="line"/>
      <point x="187" y="415" type="line"/>
    </contour>
    <contour>
      <point x="536" y="80" type="line"/>
      <point x="536" y="342" type="line"/>
      <point x="442" y="342" type="line"/>
      <point x="442" y="130" type="line"/>
    </contour>
    <contour>
      <point x="442" y="180" type="line"/>
      <point x="442" y="-1" type="line"/>
      <point x="536" y="-51" type="line"/>
      <point x="536" y="130" type="line"/>
    </contour>
  </outline>
</glyph>
<glyph name="va-soyo" format="2">
  <advance width="570"/>
  <unicode hex="11A7E"/>
  <anchor x="402" y="20.337" name="bottom"/>
  <anchor x="210" y="714" name="top"/>
  <outline>
    <contour>
      <point x="402" y="714" type="line"/>
      <point x="402" y="487" type="line"/>
      <point x="496" y="487" type="line"/>
      <point x="496" y="714" type="line"/>
    </contour>
    <contour>
      <point x="410" y="708" type="line"/>
      <point x="410" y="714" type="line"/>
      <point x="10" y="714" type="line"/>
      <point x="10" y="708" type="line"/>
      <point x="210" y="589" type="line"/>
    </contour>
    <contour>
      <point x="207" y="199" type="curve" smooth="yes"/>
      <point x="303" y="199"/>
      <point x="382" y="278"/>
      <point x="382" y="374" type="curve" smooth="yes"/>
      <point x="382" y="470"/>
      <point x="303" y="549"/>
      <point x="207" y="549" type="curve" smooth="yes"/>
      <point x="111" y="549"/>
      <point x="32" y="470"/>
      <point x="32" y="374" type="curve" smooth="yes"/>
      <point x="32" y="278"/>
      <point x="111" y="199"/>
    </contour>
    <contour>
      <point x="207" y="273" type="curve" smooth="yes"/>
      <point x="149" y="273"/>
      <point x="106" y="316"/>
      <point x="106" y="374" type="curve" smooth="yes"/>
      <point x="106" y="432"/>
      <point x="149" y="475"/>
      <point x="207" y="475" type="curve" smooth="yes"/>
      <point x="265" y="475"/>
      <point x="308" y="432"/>
      <point x="308" y="374" type="curve" smooth="yes"/>
      <point x="308" y="316"/>
      <point x="265" y="273"/>
    </contour>
    <contour>
      <point x="496" y="149" type="line"/>
      <point x="496" y="549" type="line"/>
      <point x="402" y="549" type="line"/>
      <point x="402" y="199" type="line"/>
    </contour>
    <contour>
      <point x="402" y="249" type="line"/>
      <point x="402" y="20" type="line"/>
      <point x="496" y="-30" type="line"/>
      <point x="496" y="199" type="line"/>
    </contour>
  </outline>
</glyph>
<glyph name="sha-soyo" format="2">
  <advance width="590"/>
  <unicode hex="11A7F"/>
  <anchor x="422" y="0.347" name="bottom"/>
  <anchor x="230" y="714" name="top"/>
  <outline>
    <contour>
      <point x="422" y="714" type="line"/>
      <point x="422" y="487" type="line"/>
      <point x="516" y="487" type="line"/>
      <point x="516" y="714" type="line"/>
    </contour>
    <contour>
      <point x="430" y="708" type="line"/>
      <point x="430" y="714" type="line"/>
      <point x="30" y="714" type="line"/>
      <point x="30" y="708" type="line"/>
      <point x="230" y="589" type="line"/>
    </contour>
    <contour>
      <point x="422" y="549" type="line"/>
      <point x="422" y="179" type="line"/>
      <point x="516" y="129" type="line"/>
      <point x="516" y="549" type="line"/>
    </contour>
    <contour>
      <point x="32" y="213" type="line"/>
      <point x="432" y="485" type="line"/>
      <point x="432" y="576" type="line"/>
      <point x="32" y="304" type="line"/>
    </contour>
    <contour>
      <point x="32" y="569" type="line"/>
      <point x="32" y="478" type="line"/>
      <point x="432" y="206" type="line"/>
      <point x="432" y="297" type="line"/>
    </contour>
    <contour>
      <point x="422" y="229" type="line"/>
      <point x="422" y="0" type="line"/>
      <point x="516" y="-50" type="line"/>
      <point x="516" y="179" type="line"/>
    </contour>
  </outline>
</glyph>
<glyph name="ssa-soyo" format="2">
  <advance width="600"/>
  <unicode hex="11A80"/>
  <anchor x="432" y="-6.41" name="bottom"/>
  <anchor x="240" y="714" name="top"/>
  <outline>
    <contour>
      <point x="432" y="714" type="line"/>
      <point x="432" y="487" type="line"/>
      <point x="526" y="487" type="line"/>
      <point x="526" y="714" type="line"/>
    </contour>
    <contour>
      <point x="440" y="708" type="line"/>
      <point x="440" y="714" type="line"/>
      <point x="40" y="714" type="line"/>
      <point x="40" y="708" type="line"/>
      <point x="240" y="589" type="line"/>
    </contour>
    <contour>
      <point x="432" y="549" type="line"/>
      <point x="432" y="147" type="line"/>
      <point x="526" y="97" type="line"/>
      <point x="526" y="549" type="line"/>
    </contour>
    <contour>
      <point x="173" y="302" type="line"/>
      <point x="442" y="485" type="line"/>
      <point x="442" y="576" type="line"/>
      <point x="110" y="350" type="line"/>
    </contour>
    <contour>
      <point x="42" y="569" type="line"/>
      <point x="42" y="478" type="line"/>
      <point x="442" y="206" type="line"/>
      <point x="442" y="297" type="line"/>
    </contour>
    <contour>
      <point x="110" y="350" type="line"/>
      <point x="166" y="291"/>
      <point x="177" y="269"/>
      <point x="177" y="247" type="curve" smooth="yes"/>
      <point x="177" y="229"/>
      <point x="164" y="217"/>
      <point x="141" y="217" type="curve" smooth="yes"/>
      <point x="115" y="217"/>
      <point x="92" y="244"/>
      <point x="50" y="309" type="curve"/>
      <point x="6" y="279" type="line"/>
      <point x="58" y="180"/>
      <point x="94" y="147"/>
      <point x="151" y="147" type="curve" smooth="yes"/>
      <point x="211" y="147"/>
      <point x="250" y="184"/>
      <point x="250" y="236" type="curve" smooth="yes"/>
      <point x="250" y="271"/>
      <point x="238" y="300"/>
      <point x="177" y="355" type="curve"/>
    </contour>
    <contour>
      <point x="432" y="197" type="line"/>
      <point x="432" y="-6" type="line"/>
      <point x="526" y="-56" type="line"/>
      <point x="526" y="147" type="line"/>
    </contour>
  </outline>
</glyph>
<glyph name="sa-soyo" format="2">
  <advance width="600"/>
  <unicode hex="11A81"/>
  <anchor x="432" y="0.106" name="bottom"/>
  <anchor x="240" y="714" name="top"/>
  <outline>
    <contour>
      <point x="432" y="714" type="line"/>
      <point x="432" y="487" type="line"/>
      <point x="526" y="487" type="line"/>
      <point x="526" y="714" type="line"/>
    </contour>
    <contour>
      <point x="440" y="708" type="line"/>
      <point x="440" y="714" type="line"/>
      <point x="40" y="714" type="line"/>
      <point x="40" y="708" type="line"/>
      <point x="240" y="589" type="line"/>
    </contour>
    <contour>
      <point x="432" y="549" type="line"/>
      <point x="432" y="266" type="line"/>
      <point x="526" y="216" type="line"/>
      <point x="526" y="549" type="line"/>
    </contour>
    <contour>
      <point x="237" y="619" type="line"/>
      <point x="185" y="567" type="line"/>
      <point x="452" y="300" type="line"/>
      <point x="504" y="352" type="line"/>
    </contour>
    <contour>
      <point x="237" y="619" type="line"/>
      <point x="101" y="483" type="line"/>
      <point x="170" y="448" type="line"/>
      <point x="289" y="567" type="line"/>
    </contour>
    <contour>
      <point x="101" y="483" type="line"/>
      <point x="177" y="416"/>
      <point x="197" y="391"/>
      <point x="197" y="366" type="curve" smooth="yes"/>
      <point x="197" y="348"/>
      <point x="184" y="336"/>
      <point x="161" y="336" type="curve" smooth="yes"/>
      <point x="128" y="336"/>
      <point x="99" y="361"/>
      <point x="46" y="421" type="curve"/>
      <point x="6" y="381" type="line"/>
      <point x="77" y="295"/>
      <point x="117" y="266"/>
      <point x="171" y="266" type="curve" smooth="yes"/>
      <point x="231" y="266"/>
      <point x="270" y="303"/>
      <point x="270" y="355" type="curve" smooth="yes"/>
      <point x="270" y="395"/>
      <point x="246" y="428"/>
      <point x="171" y="491" type="curve"/>
    </contour>
    <contour>
      <point x="432" y="316" type="line"/>
      <point x="432" y="0" type="line"/>
      <point x="526" y="-50" type="line"/>
      <point x="526" y="266" type="line"/>
    </contour>
  </outline>
</glyph>
<glyph name="ha-soyo" format="2">
  <advance width="670"/>
  <unicode hex="11A82"/>
  <anchor x="502" y="-0.012" name="bottom"/>
  <anchor x="310" y="714" name="top"/>
  <outline>
    <contour>
      <point x="502" y="574" type="line"/>
      <point x="502" y="487" type="line"/>
      <point x="596" y="487" type="line"/>
      <point x="596" y="634" type="line"/>
    </contour>
    <contour>
      <point x="510" y="708" type="line"/>
      <point x="510" y="714" type="line"/>
      <point x="110" y="714" type="line"/>
      <point x="110" y="708" type="line"/>
      <point x="310" y="589" type="line"/>
    </contour>
    <contour>
      <point x="502" y="549" type="line"/>
      <point x="502" y="159" type="line"/>
      <point x="596" y="109" type="line"/>
      <point x="596" y="599" type="line"/>
    </contour>
    <contour>
      <point x="307" y="649" type="line"/>
      <point x="255" y="597" type="line"/>
      <point x="522" y="388" type="line"/>
      <point x="574" y="440" type="line"/>
    </contour>
    <contour>
      <point x="307" y="649" type="line"/>
      <point x="40" y="440" type="line"/>
      <point x="92" y="388" type="line"/>
      <point x="359" y="597" type="line"/>
    </contour>
    <contour>
      <point x="118" y="579" type="line"/>
      <point x="24" y="629" type="line"/>
      <point x="24" y="159" type="line"/>
      <point x="118" y="209" type="line"/>
    </contour>
    <contour>
      <point x="292" y="238" type="curve" smooth="yes"/>
      <point x="337" y="238"/>
      <point x="357" y="262"/>
      <point x="357" y="316" type="curve" smooth="yes"/>
      <point x="357" y="396"/>
      <point x="311" y="437"/>
      <point x="223" y="437" type="curve" smooth="yes"/>
      <point x="179" y="437"/>
      <point x="141" y="428"/>
      <point x="111" y="413" type="curve"/>
      <point x="111" y="363" type="line"/>
      <point x="133" y="375"/>
      <point x="165" y="383"/>
      <point x="194" y="383" type="curve" smooth="yes"/>
      <point x="244" y="383"/>
      <point x="263" y="358"/>
      <point x="263" y="312" type="curve" smooth="yes"/>
      <point x="263" y="288"/>
      <point x="258" y="266"/>
      <point x="247" y="248" type="curve"/>
      <point x="261" y="241"/>
      <point x="276" y="238"/>
    </contour>
    <contour>
      <point x="502" y="209" type="line"/>
      <point x="502" y="0" type="line"/>
      <point x="596" y="-50" type="line"/>
      <point x="596" y="159" type="line"/>
    </contour>
  </outline>
</glyph>
<glyph name="jihvamuliya-soyo" format="2">
  <advance width="620"/>
  <unicode hex="11A84"/>
  <anchor x="452" y="468" name="bottom"/>
  <anchor x="260" y="714" name="top"/>
  <outline>
    <contour>
      <point x="500" y="670" type="line"/>
      <point x="500" y="714" type="line"/>
      <point x="60" y="714" type="line"/>
      <point x="60" y="670" type="line"/>
    </contour>
    <contour>
      <point x="500" y="508" type="line"/>
      <point x="500" y="552" type="line"/>
      <point x="60" y="552" type="line"/>
      <point x="60" y="508" type="line"/>
    </contour>
    <contour>
      <point x="60" y="670" type="line"/>
      <point x="393" y="552" type="line"/>
      <point x="500" y="552" type="line"/>
      <point x="167" y="670" type="line"/>
    </contour>
    <contour>
      <point x="60" y="552" type="line"/>
      <point x="167" y="552" type="line"/>
      <point x="500" y="670" type="line"/>
      <point x="393" y="670" type="line"/>
    </contour>
  </outline>
</glyph>
<glyph name="upadhmaniya-soyo" format="2">
  <advance width="620"/>
  <unicode hex="11A85"/>
  <anchor x="452" y="479" name="bottom"/>
  <anchor x="260" y="714" name="top"/>
  <outline>
    <contour>
      <point x="152" y="724" type="curve" smooth="yes"/>
      <point x="83" y="724"/>
      <point x="45" y="663"/>
      <point x="45" y="591" type="curve" smooth="yes"/>
      <point x="45" y="563"/>
      <point x="51" y="534"/>
      <point x="63" y="509" type="curve"/>
      <point x="119" y="526" type="line"/>
      <point x="115" y="539"/>
      <point x="112" y="559"/>
      <point x="112" y="577" type="curve" smooth="yes"/>
      <point x="112" y="620"/>
      <point x="129" y="645"/>
      <point x="161" y="645" type="curve" smooth="yes"/>
      <point x="204" y="645"/>
      <point x="216" y="600"/>
      <point x="231" y="517" type="curve"/>
      <point x="299" y="517" type="line"/>
      <point x="314" y="605"/>
      <point x="327" y="645"/>
      <point x="369" y="645" type="curve" smooth="yes"/>
      <point x="401" y="645"/>
      <point x="418" y="620"/>
      <point x="418" y="577" type="curve" smooth="yes"/>
      <point x="418" y="559"/>
      <point x="415" y="539"/>
      <point x="411" y="526" type="curve"/>
      <point x="467" y="509" type="line"/>
      <point x="479" y="534"/>
      <point x="485" y="563"/>
      <point x="485" y="591" type="curve" smooth="yes"/>
      <point x="485" y="663"/>
      <point x="447" y="724"/>
      <point x="378" y="724" type="curve" smooth="yes"/>
      <point x="307" y="724"/>
      <point x="266" y="659"/>
      <point x="259" y="586" type="curve"/>
      <point x="271" y="586" type="line"/>
      <point x="264" y="659"/>
      <point x="223" y="724"/>
    </contour>
  </outline>
</glyph>
<glyph name="raInitial-soyo" format="2">
  <unicode hex="11A86"/>
  <outline>
    <contour>
      <point x="115" y="706" type="line"/>
      <point x="115" y="572" type="line"/>
      <point x="218" y="644" type="line"/>
    </contour>
  </outline>
</glyph>
<glyph name="laInitial-soyo" format="2">
  <unicode hex="11A87"/>
  <outline>
    <contour>
      <point x="50" y="666" type="line"/>
      <point x="50" y="622" type="line"/>
      <point x="259" y="622" type="line"/>
      <point x="259" y="666" type="line"/>
    </contour>
  </outline>
</glyph>
<glyph name="shaInitial-soyo" format="2">
  <unicode hex="11A88"/>
  <outline>
    <contour>
      <point x="189" y="666" type="line"/>
      <point x="50" y="666" type="line"/>
      <point x="50" y="622" type="line"/>
      <point x="141" y="622" type="line"/>
      <point x="141" y="559" type="line"/>
      <point x="189" y="559" type="line"/>
    </contour>
  </outline>
</glyph>
<glyph name="saInitial-soyo" format="2">
  <unicode hex="11A89"/>
  <outline>
    <contour>
      <point x="168" y="686" type="line"/>
      <point x="65" y="624" type="line"/>
      <point x="168" y="552" type="line"/>
    </contour>
  </outline>
</glyph>
<glyph name="gFinal-soyo" format="2">
  <unicode hex="11A8A"/>
  <anchor x="-148" y="-11" name="_bottom"/>
  <anchor x="-148" y="0" name="bottom"/>
  <outline>
    <contour>
      <point x="-325" y="170" type="curve" smooth="yes"/>
      <point x="-361" y="170"/>
      <point x="-377" y="152"/>
      <point x="-377" y="116" type="curve" smooth="yes"/>
      <point x="-377" y="38"/>
      <point x="-299" y="0"/>
      <point x="-141" y="0" type="curve" smooth="yes"/>
      <point x="-123" y="0" type="line"/>
      <point x="-123" y="44" type="line"/>
      <point x="-141" y="44" type="line" smooth="yes"/>
      <point x="-258" y="44"/>
      <point x="-303" y="71"/>
      <point x="-303" y="120" type="curve" smooth="yes"/>
      <point x="-303" y="134"/>
      <point x="-300" y="150"/>
      <point x="-294" y="163" type="curve"/>
      <point x="-303" y="168"/>
      <point x="-314" y="170"/>
    </contour>
  </outline>
</glyph>
<glyph name="kFinal-soyo" format="2">
  <unicode hex="11A8B"/>
  <anchor x="-148" y="0" name="_bottom"/>
  <anchor x="-148" y="0" name="bottom"/>
  <outline>
    <contour>
      <point x="-325" y="0" type="curve" smooth="yes"/>
      <point x="-314" y="0"/>
      <point x="-303" y="2"/>
      <point x="-294" y="7" type="curve"/>
      <point x="-300" y="20"/>
      <point x="-303" y="36"/>
      <point x="-303" y="50" type="curve" smooth="yes"/>
      <point x="-303" y="99"/>
      <point x="-258" y="126"/>
      <point x="-141" y="126" type="curve" smooth="yes"/>
      <point x="-123" y="126" type="line"/>
      <point x="-123" y="170" type="line"/>
      <point x="-141" y="170" type="line" smooth="yes"/>
      <point x="-299" y="170"/>
      <point x="-377" y="132"/>
      <point x="-377" y="54" type="curve" smooth="yes"/>
      <point x="-377" y="18"/>
      <point x="-361" y="0"/>
    </contour>
  </outline>
</glyph>
<glyph name="ngFinal-soyo" format="2">
  <unicode hex="11A8C"/>
  <anchor x="-148" y="0" name="_bottom"/>
  <anchor x="-148" y="0" name="bottom"/>
  <outline>
    <contour>
      <point x="-237" y="110" type="line"/>
      <point x="-237" y="66" type="line"/>
      <point x="-123" y="66" type="line"/>
      <point x="-123" y="110" type="line"/>
    </contour>
    <contour>
      <point x="-296" y="175" type="line"/>
      <point x="-296" y="67" type="line"/>
      <point x="-220" y="0" type="line"/>
      <point x="-220" y="175" type="line"/>
    </contour>
  </outline>
</glyph>
<glyph name="dFinal-soyo" format="2">
  <unicode hex="11A8D"/>
  <anchor x="-148" y="0" name="_bottom"/>
  <anchor x="-148" y="0" name="bottom"/>
  <outline>
    <contour>
      <point x="-302" y="0" type="curve" smooth="yes"/>
      <point x="-276" y="0"/>
      <point x="-253" y="10"/>
      <point x="-239" y="27" type="curve"/>
      <point x="-241" y="35" type="line"/>
      <point x="-284" y="43"/>
      <point x="-303" y="59"/>
      <point x="-303" y="79" type="curve" smooth="yes"/>
      <point x="-303" y="97"/>
      <point x="-289" y="112"/>
      <point x="-253" y="112" type="curve" smooth="yes"/>
      <point x="-210" y="112"/>
      <point x="-165" y="91"/>
      <point x="-123" y="45" type="curve"/>
      <point x="-123" y="100" type="line"/>
      <point x="-170" y="152"/>
      <point x="-218" y="170"/>
      <point x="-267" y="170" type="curve" smooth="yes"/>
      <point x="-337" y="170"/>
      <point x="-377" y="134"/>
      <point x="-377" y="78" type="curve" smooth="yes"/>
      <point x="-377" y="28"/>
      <point x="-345" y="0"/>
    </contour>
  </outline>
</glyph>
<glyph name="nFinal-soyo" format="2">
  <unicode hex="11A8E"/>
  <anchor x="-148" y="0" name="_bottom"/>
  <anchor x="-148" y="0" name="bottom"/>
  <outline>
    <contour>
      <point x="-227" y="110" type="line"/>
      <point x="-227" y="66" type="line"/>
      <point x="-123" y="66" type="line"/>
      <point x="-123" y="110" type="line"/>
    </contour>
    <contour>
      <point x="-254" y="175" type="line" smooth="yes"/>
      <point x="-327" y="175"/>
      <point x="-377" y="148"/>
      <point x="-377" y="87" type="curve" smooth="yes"/>
      <point x="-377" y="26"/>
      <point x="-327" y="0"/>
      <point x="-254" y="0" type="curve" smooth="yes"/>
      <point x="-210" y="0" type="line"/>
      <point x="-210" y="175" type="line"/>
    </contour>
    <contour>
      <point x="-254" y="43" type="line"/>
      <point x="-310" y="43"/>
      <point x="-333" y="57"/>
      <point x="-333" y="87" type="curve" smooth="yes"/>
      <point x="-333" y="117"/>
      <point x="-310" y="132"/>
      <point x="-254" y="132" type="curve"/>
    </contour>
  </outline>
</glyph>
<glyph name="bFinal-soyo" format="2">
  <unicode hex="11A8F"/>
  <anchor x="-148" y="0" name="_bottom"/>
  <anchor x="-148" y="0" name="bottom"/>
  <outline>
    <contour>
      <point x="-302" y="170" type="curve" smooth="yes"/>
      <point x="-345" y="170"/>
      <point x="-377" y="142"/>
      <point x="-377" y="92" type="curve" smooth="yes"/>
      <point x="-377" y="36"/>
      <point x="-337" y="0"/>
      <point x="-267" y="0" type="curve" smooth="yes"/>
      <point x="-218" y="0"/>
      <point x="-170" y="18"/>
      <point x="-123" y="70" type="curve"/>
      <point x="-123" y="125" type="line"/>
      <point x="-165" y="79"/>
      <point x="-210" y="58"/>
      <point x="-253" y="58" type="curve" smooth="yes"/>
      <point x="-289" y="58"/>
      <point x="-303" y="73"/>
      <point x="-303" y="91" type="curve" smooth="yes"/>
      <point x="-303" y="111"/>
      <point x="-284" y="127"/>
      <point x="-241" y="135" type="curve"/>
      <point x="-239" y="143" type="line"/>
      <point x="-253" y="160"/>
      <point x="-276" y="170"/>
    </contour>
  </outline>
</glyph>
<glyph name="mFinal-soyo" format="2">
  <unicode hex="11A90"/>
  <anchor x="-148" y="0" name="_bottom"/>
  <anchor x="-148" y="0" name="bottom"/>
  <outline>
    <contour>
      <point x="-285" y="180" type="curve" smooth="yes"/>
      <point x="-340" y="180"/>
      <point x="-377" y="142"/>
      <point x="-377" y="87" type="curve" smooth="yes"/>
      <point x="-377" y="32"/>
      <point x="-340" y="-5"/>
      <point x="-285" y="-5" type="curve" smooth="yes"/>
      <point x="-230" y="-5"/>
      <point x="-193" y="32"/>
      <point x="-193" y="87" type="curve" smooth="yes"/>
      <point x="-193" y="142"/>
      <point x="-230" y="180"/>
    </contour>
    <contour>
      <point x="-285" y="39" type="curve" smooth="yes"/>
      <point x="-314" y="39"/>
      <point x="-333" y="58"/>
      <point x="-333" y="87" type="curve" smooth="yes"/>
      <point x="-333" y="117"/>
      <point x="-314" y="136"/>
      <point x="-285" y="136" type="curve" smooth="yes"/>
      <point x="-256" y="136"/>
      <point x="-237" y="117"/>
      <point x="-237" y="87" type="curve" smooth="yes"/>
      <point x="-237" y="58"/>
      <point x="-256" y="39"/>
    </contour>
  </outline>
</glyph>
<glyph name="rFinal-soyo" format="2">
  <unicode hex="11A91"/>
  <anchor x="-148" y="0" name="_bottom"/>
  <anchor x="-148" y="0" name="bottom"/>
  <outline>
    <contour>
      <point x="-327" y="121" type="line"/>
      <point x="-327" y="76" type="line"/>
      <point x="-148" y="130" type="line"/>
      <point x="-123" y="130" type="line"/>
      <point x="-123" y="175" type="line"/>
      <point x="-148" y="175" type="line"/>
    </contour>
    <contour>
      <point x="-327" y="99" type="line"/>
      <point x="-327" y="54" type="line"/>
      <point x="-148" y="0" type="line"/>
      <point x="-123" y="0" type="line"/>
      <point x="-123" y="45" type="line"/>
      <point x="-148" y="45" type="line"/>
    </contour>
  </outline>
</glyph>
<glyph name="lFinal-soyo" format="2">
  <unicode hex="11A92"/>
  <anchor x="-148" y="0" name="_bottom"/>
  <anchor x="-148" y="0" name="bottom"/>
  <outline>
    <contour>
      <point x="-377" y="175" type="line"/>
      <point x="-377" y="131" type="line"/>
      <point x="-123" y="131" type="line"/>
      <point x="-123" y="175" type="line"/>
    </contour>
    <contour>
      <point x="-377" y="44" type="line"/>
      <point x="-377" y="0" type="line"/>
      <point x="-123" y="0" type="line"/>
      <point x="-123" y="44" type="line"/>
    </contour>
    <contour>
      <point x="-284" y="150" type="line"/>
      <point x="-284" y="16" type="line"/>
      <point x="-240" y="16" type="line"/>
      <point x="-240" y="150" type="line"/>
    </contour>
  </outline>
</glyph>
<glyph name="shFinal-soyo" format="2">
  <unicode hex="11A93"/>
  <anchor x="-148" y="0" name="_bottom"/>
  <anchor x="-148" y="0" name="bottom"/>
  <outline>
    <contour>
      <point x="-377" y="45" type="line"/>
      <point x="-377" y="0" type="line"/>
      <point x="-148" y="130" type="line"/>
      <point x="-123" y="130" type="line"/>
      <point x="-123" y="175" type="line"/>
      <point x="-148" y="175" type="line"/>
    </contour>
    <contour>
      <point x="-377" y="175" type="line"/>
      <point x="-377" y="130" type="line"/>
      <point x="-148" y="0" type="line"/>
      <point x="-123" y="0" type="line"/>
      <point x="-123" y="45" type="line"/>
      <point x="-148" y="45" type="line"/>
    </contour>
  </outline>
</glyph>
<glyph name="sFinal-soyo" format="2">
  <unicode hex="11A94"/>
  <anchor x="-148" y="0" name="_bottom"/>
  <anchor x="-148" y="0" name="bottom"/>
  <outline>
    <contour>
      <point x="-248" y="140" type="line"/>
      <point x="-219" y="106" type="line"/>
      <point x="-123" y="133" type="line"/>
      <point x="-123" y="175" type="line"/>
    </contour>
    <contour>
      <point x="-278" y="0" type="curve" smooth="yes"/>
      <point x="-228" y="0"/>
      <point x="-194" y="35"/>
      <point x="-194" y="83" type="curve" smooth="yes"/>
      <point x="-194" y="97"/>
      <point x="-197" y="114"/>
      <point x="-204" y="130" type="curve"/>
      <point x="-248" y="140" type="line"/>
      <point x="-241" y="124"/>
      <point x="-238" y="109"/>
      <point x="-238" y="96" type="curve" smooth="yes"/>
      <point x="-238" y="64"/>
      <point x="-250" y="44"/>
      <point x="-279" y="44" type="curve" smooth="yes"/>
      <point x="-312" y="44"/>
      <point x="-333" y="72"/>
      <point x="-333" y="118" type="curve"/>
      <point x="-377" y="118" type="line"/>
      <point x="-377" y="48"/>
      <point x="-338" y="0"/>
    </contour>
  </outline>
</glyph>
<glyph name="aFinal-soyo" format="2">
  <unicode hex="11A95"/>
  <anchor x="-148" y="0" name="_bottom"/>
  <anchor x="-148" y="0" name="bottom"/>
  <outline>
    <contour>
      <point x="-69" y="222" type="line"/>
      <point x="-69" y="149" type="line"/>
      <point x="30" y="98" type="line"/>
      <point x="30" y="136" type="line"/>
    </contour>
  </outline>
</glyph>
<glyph name="anusvara-soyo" format="2">
  <unicode hex="11A96"/>
  <anchor x="-319" y="714" name="_top"/>
  <outline>
    <contour>
      <point x="-319" y="756" type="curve" smooth="yes"/>
      <point x="-264" y="756"/>
      <point x="-219" y="801"/>
      <point x="-219" y="856" type="curve" smooth="yes"/>
      <point x="-219" y="911"/>
      <point x="-264" y="956"/>
      <point x="-319" y="956" type="curve" smooth="yes"/>
      <point x="-374" y="956"/>
      <point x="-419" y="911"/>
      <point x="-419" y="856" type="curve" smooth="yes"/>
      <point x="-419" y="801"/>
      <point x="-374" y="756"/>
    </contour>
    <contour>
      <point x="-319" y="801" type="curve" smooth="yes"/>
      <point x="-350" y="801"/>
      <point x="-374" y="825"/>
      <point x="-374" y="856" type="curve" smooth="yes"/>
      <point x="-374" y="887"/>
      <point x="-350" y="911"/>
      <point x="-319" y="911" type="curve" smooth="yes"/>
      <point x="-288" y="911"/>
      <point x="-264" y="887"/>
      <point x="-264" y="856" type="curve" smooth="yes"/>
      <point x="-264" y="825"/>
      <point x="-288" y="801"/>
    </contour>
  </outline>
</glyph>
<glyph name="visagra-soyo" format="2">
  <advance width="285"/>
  <unicode hex="11A97"/>
  <outline>
    <contour>
      <point x="90" y="250" type="line"/>
      <point x="245" y="405" type="line"/>
      <point x="90" y="560" type="line"/>
      <point x="-65" y="405" type="line"/>
    </contour>
    <contour>
      <point x="90" y="325" type="line"/>
      <point x="10" y="405" type="line"/>
      <point x="90" y="485" type="line"/>
      <point x="170" y="405" type="line"/>
    </contour>
    <contour>
      <point x="90" y="560" type="line"/>
      <point x="244" y="714" type="line"/>
      <point x="-64" y="714" type="line"/>
    </contour>
    <contour>
      <point x="90" y="-60" type="line"/>
      <point x="245" y="95" type="line"/>
      <point x="90" y="250" type="line"/>
      <point x="-65" y="95" type="line"/>
    </contour>
    <contour>
      <point x="90" y="15" type="line"/>
      <point x="10" y="95" type="line"/>
      <point x="90" y="175" type="line"/>
      <point x="170" y="95" type="line"/>
    </contour>
  </outline>
</glyph>
<glyph name="gemination-soyo" format="2">
  <advance width="620"/>
  <unicode hex="11A98"/>
  <anchor x="452" y="614" name="bottom"/>
  <anchor x="260" y="714" name="top"/>
  <outline>
    <contour>
      <point x="460" y="708" type="line"/>
      <point x="460" y="714" type="line"/>
      <point x="60" y="714" type="line"/>
      <point x="60" y="708" type="line"/>
      <point x="260" y="589" type="line"/>
    </contour>
  </outline>
</glyph>
<glyph name="subjoiner-soyo" format="2">
  <unicode hex="11A99"/>
  <anchor x="-213" y="0" name="_bottom"/>
  <outline>
    <contour>
      <point x="-93" y="-204" type="line"/>
      <point x="-183" y="-204" type="line"/>
      <point x="-183" y="-114" type="line"/>
      <point x="-243" y="-114" type="line"/>
      <point x="-243" y="-204" type="line"/>
      <point x="-333" y="-204" type="line"/>
      <point x="-333" y="-264" type="line"/>
      <point x="-243" y="-264" type="line"/>
      <point x="-243" y="-354" type="line"/>
      <point x="-183" y="-354" type="line"/>
      <point x="-183" y="-264" type="line"/>
      <point x="-93" y="-264" type="line"/>
    </contour>
  </outline>
</glyph>
<glyph name="tsheg-soyo" format="2">
  <advance width="260"/>
  <unicode hex="11A9A"/>
  <outline>
    <contour>
      <point x="130" y="589" type="line"/>
      <point x="230" y="714" type="line"/>
      <point x="30" y="714" type="line"/>
    </contour>
  </outline>
</glyph>
<glyph name="shad-soyo" format="2">
  <advance width="200"/>
  <unicode hex="11A9B"/>
  <outline>
    <contour>
      <point x="60" y="714" type="line"/>
      <point x="60" y="-30" type="line"/>
      <point x="140" y="-73" type="line"/>
      <point x="140" y="714" type="line"/>
    </contour>
  </outline>
</glyph>
<glyph name="shaddouble-soyo" format="2">
  <advance width="420"/>
  <unicode hex="11A9C"/>
  <outline>
    <contour>
      <point x="60" y="714" type="line"/>
      <point x="60" y="-30" type="line"/>
      <point x="140" y="-73" type="line"/>
      <point x="140" y="714" type="line"/>
    </contour>
    <contour>
      <point x="280" y="714" type="line"/>
      <point x="280" y="-30" type="line"/>
      <point x="360" y="-73" type="line"/>
      <point x="360" y="714" type="line"/>
    </contour>
  </outline>
</glyph>
<glyph name="pluta-soyo" format="2">
  <advance width="245"/>
  <unicode hex="11A9D"/>
  <outline>
    <contour>
      <point x="69" y="448" type="curve"/>
      <point x="42" y="421" type="line"/>
      <point x="96" y="388"/>
      <point x="124" y="361"/>
      <point x="124" y="325" type="curve" smooth="yes"/>
      <point x="124" y="246"/>
      <point x="-17" y="199"/>
      <point x="-17" y="121" type="curve" smooth="yes"/>
      <point x="-17" y="72"/>
      <point x="40" y="21"/>
      <point x="114" y="-28" type="curve"/>
      <point x="133" y="-4" type="line"/>
      <point x="93" y="27"/>
      <point x="64" y="64"/>
      <point x="64" y="94" type="curve" smooth="yes"/>
      <point x="64" y="161"/>
      <point x="205" y="198"/>
      <point x="205" y="299" type="curve" smooth="yes"/>
      <point x="205" y="365"/>
      <point x="145" y="404"/>
    </contour>
    <contour>
      <point x="-35" y="454" type="curve"/>
      <point x="18" y="393" type="line"/>
      <point x="136" y="463"/>
      <point x="205" y="516"/>
      <point x="205" y="577" type="curve" smooth="yes"/>
      <point x="205" y="644"/>
      <point x="130" y="714"/>
      <point x="30" y="714" type="curve" smooth="yes"/>
      <point x="-5" y="714"/>
      <point x="-36" y="700"/>
      <point x="-62" y="676" type="curve"/>
      <point x="-5" y="617" type="line"/>
      <point x="25" y="643"/>
      <point x="50" y="658"/>
      <point x="77" y="658" type="curve" smooth="yes"/>
      <point x="106" y="658"/>
      <point x="125" y="642"/>
      <point x="125" y="613" type="curve" smooth="yes"/>
      <point x="125" y="568"/>
      <point x="73" y="523"/>
    </contour>
  </outline>
</glyph>
<glyph name="headMoonSunTripleFlame-soyo" format="2">
  <advance width="748"/>
  <unicode hex="11A9E"/>
  <outline>
    <contour>
      <point x="534" y="0" type="line"/>
      <point x="674" y="0" type="line"/>
      <point x="674" y="714" type="line"/>
      <point x="534" y="714" type="line"/>
    </contour>
    <contour>
      <point x="374" y="0" type="line"/>
      <point x="514" y="110" type="line"/>
      <point x="234" y="110" type="line"/>
    </contour>
    <contour>
      <point x="74" y="0" type="line"/>
      <point x="214" y="0" type="line"/>
      <point x="214" y="714" type="line"/>
      <point x="74" y="714" type="line"/>
    </contour>
    <contour>
      <point x="234" y="136" type="line"/>
      <point x="514" y="136" type="line"/>
      <point x="514" y="206" type="line"/>
      <point x="234" y="206" type="line"/>
    </contour>
    <contour>
      <point x="374" y="266" type="curve" smooth="yes"/>
      <point x="362" y="266"/>
      <point x="353" y="275"/>
      <point x="353" y="287" type="curve" smooth="yes"/>
      <point x="353" y="299"/>
      <point x="362" y="308"/>
      <point x="374" y="308" type="curve" smooth="yes"/>
      <point x="386" y="308"/>
      <point x="395" y="299"/>
      <point x="395" y="287" type="curve" smooth="yes"/>
      <point x="395" y="275"/>
      <point x="386" y="266"/>
    </contour>
    <contour>
      <point x="317" y="236" type="curve"/>
      <point x="317" y="238" type="line"/>
      <point x="303" y="250"/>
      <point x="295" y="265"/>
      <point x="295" y="287" type="curve" smooth="yes"/>
      <point x="295" y="329"/>
      <point x="321" y="359"/>
      <point x="370" y="373" type="curve" smooth="yes"/>
      <point x="414" y="386"/>
      <point x="433" y="408"/>
      <point x="433" y="441" type="curve" smooth="yes"/>
      <point x="433" y="480"/>
      <point x="407" y="504"/>
      <point x="374" y="504" type="curve" smooth="yes"/>
      <point x="297" y="504"/>
      <point x="234" y="441"/>
      <point x="234" y="364" type="curve" smooth="yes"/>
      <point x="234" y="304"/>
      <point x="271" y="257"/>
    </contour>
    <contour>
      <point x="374" y="420" type="curve" smooth="yes"/>
      <point x="362" y="420"/>
      <point x="353" y="429"/>
      <point x="353" y="441" type="curve" smooth="yes"/>
      <point x="353" y="453"/>
      <point x="362" y="462"/>
      <point x="374" y="462" type="curve" smooth="yes"/>
      <point x="386" y="462"/>
      <point x="395" y="453"/>
      <point x="395" y="441" type="curve" smooth="yes"/>
      <point x="395" y="429"/>
      <point x="386" y="420"/>
    </contour>
    <contour>
      <point x="234" y="522" type="line"/>
      <point x="514" y="522" type="line"/>
      <point x="514" y="592" type="line"/>
      <point x="234" y="592" type="line"/>
    </contour>
    <contour>
      <point x="374" y="604" type="line"/>
      <point x="514" y="714" type="line"/>
      <point x="234" y="714" type="line"/>
    </contour>
    <contour>
      <point x="374" y="744" type="curve" smooth="yes"/>
      <point x="456" y="744"/>
      <point x="507" y="807"/>
      <point x="507" y="894" type="curve"/>
      <point x="502" y="895" type="line"/>
      <point x="486" y="836"/>
      <point x="450" y="793"/>
      <point x="374" y="793" type="curve" smooth="yes"/>
      <point x="298" y="793"/>
      <point x="262" y="836"/>
      <point x="246" y="895" type="curve"/>
      <point x="241" y="894" type="line"/>
      <point x="241" y="807"/>
      <point x="292" y="744"/>
    </contour>
    <contour>
      <point x="374" y="823" type="curve" smooth="yes"/>
      <point x="424" y="823"/>
      <point x="464" y="863"/>
      <point x="464" y="913" type="curve" smooth="yes"/>
      <point x="464" y="963"/>
      <point x="424" y="1003"/>
      <point x="374" y="1003" type="curve" smooth="yes"/>
      <point x="324" y="1003"/>
      <point x="284" y="963"/>
      <point x="284" y="913" type="curve" smooth="yes"/>
      <point x="284" y="863"/>
      <point x="324" y="823"/>
    </contour>
    <contour>
      <point x="431" y="492" type="curve"/>
      <point x="431" y="490" type="line"/>
      <point x="445" y="478"/>
      <point x="453" y="463"/>
      <point x="453" y="441" type="curve" smooth="yes"/>
      <point x="453" y="399"/>
      <point x="427" y="369"/>
      <point x="378" y="355" type="curve" smooth="yes"/>
      <point x="334" y="342"/>
      <point x="315" y="320"/>
      <point x="315" y="287" type="curve" smooth="yes"/>
      <point x="315" y="248"/>
      <point x="341" y="224"/>
      <point x="374" y="224" type="curve" smooth="yes"/>
      <point x="451" y="224"/>
      <point x="514" y="287"/>
      <point x="514" y="364" type="curve" smooth="yes"/>
      <point x="514" y="424"/>
      <point x="477" y="471"/>
    </contour>
    <contour>
      <point x="374" y="1023" type="curve" smooth="yes"/>
      <point x="412" y="1023"/>
      <point x="434" y="1049"/>
      <point x="434" y="1080" type="curve" smooth="yes"/>
      <point x="434" y="1098"/>
      <point x="423" y="1105"/>
      <point x="423" y="1112" type="curve" smooth="yes"/>
      <point x="423" y="1116"/>
      <point x="426" y="1119"/>
      <point x="426" y="1125" type="curve" smooth="yes"/>
      <point x="426" y="1131"/>
      <point x="423" y="1137"/>
      <point x="416" y="1143" type="curve"/>
      <point x="414" y="1142" type="line"/>
      <point x="417" y="1127"/>
      <point x="406" y="1124"/>
      <point x="406" y="1111" type="curve" smooth="yes"/>
      <point x="406" y="1104"/>
      <point x="411" y="1100"/>
      <point x="411" y="1094" type="curve" smooth="yes"/>
      <point x="411" y="1087"/>
      <point x="407" y="1082"/>
      <point x="400" y="1082" type="curve" smooth="yes"/>
      <point x="393" y="1082"/>
      <point x="388" y="1087"/>
      <point x="388" y="1094" type="curve" smooth="yes"/>
      <point x="388" y="1107"/>
      <point x="397" y="1115"/>
      <point x="397" y="1130" type="curve" smooth="yes"/>
      <point x="397" y="1158"/>
      <point x="373" y="1172"/>
      <point x="373" y="1191" type="curve" smooth="yes"/>
      <point x="373" y="1194"/>
      <point x="374" y="1199"/>
      <point x="377" y="1204" type="curve"/>
      <point x="374" y="1206" type="line"/>
      <point x="363" y="1197"/>
      <point x="358" y="1188"/>
      <point x="358" y="1179" type="curve" smooth="yes"/>
      <point x="358" y="1172"/>
      <point x="361" y="1168"/>
      <point x="361" y="1163" type="curve" smooth="yes"/>
      <point x="361" y="1151"/>
      <point x="351" y="1143"/>
      <point x="351" y="1129" type="curve" smooth="yes"/>
      <point x="351" y="1110"/>
      <point x="360" y="1105"/>
      <point x="360" y="1094" type="curve" smooth="yes"/>
      <point x="360" y="1087"/>
      <point x="355" y="1082"/>
      <point x="348" y="1082" type="curve" smooth="yes"/>
      <point x="341" y="1082"/>
      <point x="337" y="1087"/>
      <point x="337" y="1094" type="curve" smooth="yes"/>
      <point x="337" y="1100"/>
      <point x="340" y="1103"/>
      <point x="340" y="1109" type="curve" smooth="yes"/>
      <point x="340" y="1120"/>
      <point x="330" y="1123"/>
      <point x="333" y="1137" type="curve"/>
      <point x="331" y="1138" type="line"/>
      <point x="324" y="1133"/>
      <point x="321" y="1127"/>
      <point x="321" y="1121" type="curve" smooth="yes"/>
      <point x="321" y="1116"/>
      <point x="323" y="1114"/>
      <point x="323" y="1110" type="curve" smooth="yes"/>
      <point x="323" y="1104"/>
      <point x="314" y="1098"/>
      <point x="314" y="1080" type="curve" smooth="yes"/>
      <point x="314" y="1049"/>
      <point x="336" y="1023"/>
    </contour>
  </outline>
</glyph>
<glyph name="headMoonSun-soyo" format="2">
  <advance width="748"/>
  <unicode hex="11AA0"/>
  <outline>
    <contour>
      <point x="534" y="0" type="line"/>
      <point x="674" y="0" type="line"/>
      <point x="674" y="714" type="line"/>
      <point x="534" y="714" type="line"/>
    </contour>
    <contour>
      <point x="374" y="0" type="line"/>
      <point x="514" y="110" type="line"/>
      <point x="234" y="110" type="line"/>
    </contour>
    <contour>
      <point x="74" y="0" type="line"/>
      <point x="214" y="0" type="line"/>
      <point x="214" y="714" type="line"/>
      <point x="74" y="714" type="line"/>
    </contour>
    <contour>
      <point x="234" y="136" type="line"/>
      <point x="514" y="136" type="line"/>
      <point x="514" y="206" type="line"/>
      <point x="234" y="206" type="line"/>
    </contour>
    <contour>
      <point x="374" y="266" type="curve" smooth="yes"/>
      <point x="362" y="266"/>
      <point x="353" y="275"/>
      <point x="353" y="287" type="curve" smooth="yes"/>
      <point x="353" y="299"/>
      <point x="362" y="308"/>
      <point x="374" y="308" type="curve" smooth="yes"/>
      <point x="386" y="308"/>
      <point x="395" y="299"/>
      <point x="395" y="287" type="curve" smooth="yes"/>
      <point x="395" y="275"/>
      <point x="386" y="266"/>
    </contour>
    <contour>
      <point x="317" y="236" type="curve"/>
      <point x="317" y="238" type="line"/>
      <point x="303" y="250"/>
      <point x="295" y="265"/>
      <point x="295" y="287" type="curve" smooth="yes"/>
      <point x="295" y="329"/>
      <point x="321" y="359"/>
      <point x="370" y="373" type="curve" smooth="yes"/>
      <point x="414" y="386"/>
      <point x="433" y="408"/>
      <point x="433" y="441" type="curve" smooth="yes"/>
      <point x="433" y="480"/>
      <point x="407" y="504"/>
      <point x="374" y="504" type="curve" smooth="yes"/>
      <point x="297" y="504"/>
      <point x="234" y="441"/>
      <point x="234" y="364" type="curve" smooth="yes"/>
      <point x="234" y="304"/>
      <point x="271" y="257"/>
    </contour>
    <contour>
      <point x="374" y="420" type="curve" smooth="yes"/>
      <point x="362" y="420"/>
      <point x="353" y="429"/>
      <point x="353" y="441" type="curve" smooth="yes"/>
      <point x="353" y="453"/>
      <point x="362" y="462"/>
      <point x="374" y="462" type="curve" smooth="yes"/>
      <point x="386" y="462"/>
      <point x="395" y="453"/>
      <point x="395" y="441" type="curve" smooth="yes"/>
      <point x="395" y="429"/>
      <point x="386" y="420"/>
    </contour>
    <contour>
      <point x="234" y="522" type="line"/>
      <point x="514" y="522" type="line"/>
      <point x="514" y="592" type="line"/>
      <point x="234" y="592" type="line"/>
    </contour>
    <contour>
      <point x="374" y="604" type="line"/>
      <point x="514" y="714" type="line"/>
      <point x="234" y="714" type="line"/>
    </contour>
    <contour>
      <point x="374" y="744" type="curve" smooth="yes"/>
      <point x="456" y="744"/>
      <point x="507" y="807"/>
      <point x="507" y="894" type="curve"/>
      <point x="502" y="895" type="line"/>
      <point x="486" y="836"/>
      <point x="450" y="793"/>
      <point x="374" y="793" type="curve" smooth="yes"/>
      <point x="298" y="793"/>
      <point x="262" y="836"/>
      <point x="246" y="895" type="curve"/>
      <point x="241" y="894" type="line"/>
      <point x="241" y="807"/>
      <point x="292" y="744"/>
    </contour>
    <contour>
      <point x="374" y="823" type="curve" smooth="yes"/>
      <point x="424" y="823"/>
      <point x="464" y="863"/>
      <point x="464" y="913" type="curve" smooth="yes"/>
      <point x="464" y="963"/>
      <point x="424" y="1003"/>
      <point x="374" y="1003" type="curve" smooth="yes"/>
      <point x="324" y="1003"/>
      <point x="284" y="963"/>
      <point x="284" y="913" type="curve" smooth="yes"/>
      <point x="284" y="863"/>
      <point x="324" y="823"/>
    </contour>
    <contour>
      <point x="431" y="492" type="curve"/>
      <point x="431" y="490" type="line"/>
      <point x="445" y="478"/>
      <point x="453" y="463"/>
      <point x="453" y="441" type="curve" smooth="yes"/>
      <point x="453" y="399"/>
      <point x="427" y="369"/>
      <point x="378" y="355" type="curve" smooth="yes"/>
      <point x="334" y="342"/>
      <point x="315" y="320"/>
      <point x="315" y="287" type="curve" smooth="yes"/>
      <point x="315" y="248"/>
      <point x="341" y="224"/>
      <point x="374" y="224" type="curve" smooth="yes"/>
      <point x="451" y="224"/>
      <point x="514" y="287"/>
      <point x="514" y="364" type="curve" smooth="yes"/>
      <point x="514" y="424"/>
      <point x="477" y="471"/>
    </contour>
  </outline>
</glyph>
<glyph name="terminal1-soyo" format="2">
  <advance width="748"/>
  <unicode hex="11AA1"/>
  <outline>
    <contour>
      <point x="74" y="0" type="line"/>
      <point x="214" y="0" type="line"/>
      <point x="214" y="714" type="line"/>
      <point x="74" y="714" type="line"/>
    </contour>
    <contour>
      <point x="381" y="887" type="curve"/>
      <point x="367" y="887" type="line"/>
      <point x="355" y="859"/>
      <point x="336" y="837"/>
      <point x="312" y="808" type="curve" smooth="yes"/>
      <point x="277" y="765"/>
      <point x="232" y="711"/>
      <point x="232" y="612" type="curve" smooth="yes"/>
      <point x="232" y="530"/>
      <point x="253" y="384"/>
      <point x="300" y="219" type="curve"/>
      <point x="324" y="225" type="line"/>
      <point x="277" y="390"/>
      <point x="256" y="532"/>
      <point x="256" y="612" type="curve" smooth="yes"/>
      <point x="256" y="703"/>
      <point x="295" y="750"/>
      <point x="331" y="793" type="curve" smooth="yes"/>
      <point x="354" y="821"/>
      <point x="377" y="849"/>
      <point x="382" y="874" type="curve"/>
      <point x="366" y="874" type="line"/>
      <point x="371" y="849"/>
      <point x="394" y="821"/>
      <point x="417" y="793" type="curve" smooth="yes"/>
      <point x="453" y="750"/>
      <point x="492" y="703"/>
      <point x="492" y="612" type="curve" smooth="yes"/>
      <point x="492" y="532"/>
      <point x="471" y="390"/>
      <point x="424" y="225" type="curve"/>
      <point x="448" y="219" type="line"/>
      <point x="495" y="384"/>
      <point x="516" y="530"/>
      <point x="516" y="612" type="curve" smooth="yes"/>
      <point x="516" y="711"/>
      <point x="471" y="765"/>
      <point x="436" y="808" type="curve" smooth="yes"/>
      <point x="412" y="837"/>
      <point x="393" y="859"/>
    </contour>
    <contour>
      <point x="314" y="24" type="line"/>
      <point x="280" y="24" type="line" smooth="yes"/>
      <point x="260" y="24"/>
      <point x="253" y="29"/>
      <point x="253" y="37" type="curve" smooth="yes"/>
      <point x="253" y="48"/>
      <point x="260" y="55"/>
      <point x="273" y="55" type="curve" smooth="yes"/>
      <point x="281" y="55"/>
      <point x="287" y="53"/>
      <point x="292" y="48" type="curve"/>
      <point x="308" y="66" type="line"/>
      <point x="298" y="75"/>
      <point x="286" y="79"/>
      <point x="273" y="79" type="curve" smooth="yes"/>
      <point x="247" y="79"/>
      <point x="229" y="62"/>
      <point x="229" y="37" type="curve" smooth="yes"/>
      <point x="229" y="13"/>
      <point x="248" y="0"/>
      <point x="280" y="0" type="curve" smooth="yes"/>
      <point x="314" y="0" type="line"/>
    </contour>
    <contour>
      <point x="224" y="218" type="curve"/>
      <point x="224" y="202" type="line"/>
      <point x="249" y="195"/>
      <point x="281" y="173"/>
      <point x="310" y="145" type="curve"/>
      <point x="326" y="161" type="line"/>
      <point x="305" y="183"/>
      <point x="282" y="201"/>
      <point x="260" y="212" type="curve"/>
      <point x="266" y="215"/>
      <point x="273" y="216"/>
      <point x="280" y="216" type="curve" smooth="yes"/>
      <point x="297" y="216"/>
      <point x="314" y="210"/>
      <point x="334" y="195" type="curve"/>
      <point x="348" y="215" type="line"/>
      <point x="323" y="232"/>
      <point x="303" y="240"/>
      <point x="280" y="240" type="curve" smooth="yes"/>
      <point x="259" y="240"/>
      <point x="240" y="233"/>
    </contour>
    <contour>
      <point x="346" y="153" type="line"/>
      <point x="331" y="163"/>
      <point x="318" y="167"/>
      <point x="304" y="167" type="curve" smooth="yes"/>
      <point x="269" y="167"/>
      <point x="243" y="148"/>
      <point x="233" y="113" type="curve"/>
      <point x="245" y="100" type="line"/>
      <point x="252" y="103"/>
      <point x="262" y="105"/>
      <point x="271" y="105" type="curve" smooth="yes"/>
      <point x="292" y="105"/>
      <point x="315" y="94"/>
      <point x="330" y="76" type="curve"/>
      <point x="348" y="92" type="line"/>
      <point x="329" y="115"/>
      <point x="299" y="129"/>
      <point x="271" y="129" type="curve" smooth="yes"/>
      <point x="268" y="129" type="line"/>
      <point x="276" y="138"/>
      <point x="289" y="143"/>
      <point x="304" y="143" type="curve" smooth="yes"/>
      <point x="314" y="143"/>
      <point x="325" y="140"/>
      <point x="334" y="133" type="curve"/>
    </contour>
    <contour>
      <point x="386" y="0" type="line"/>
      <point x="386" y="43" type="line" smooth="yes"/>
      <point x="386" y="73"/>
      <point x="366" y="93"/>
      <point x="336" y="93" type="curve" smooth="yes"/>
      <point x="307" y="93"/>
      <point x="286" y="73"/>
      <point x="286" y="45" type="curve" smooth="yes"/>
      <point x="286" y="28"/>
      <point x="294" y="13"/>
      <point x="308" y="0" type="curve"/>
    </contour>
    <contour>
      <point x="362" y="27" type="line"/>
      <point x="318" y="27" type="line"/>
      <point x="313" y="34"/>
      <point x="310" y="40"/>
      <point x="310" y="48" type="curve" smooth="yes"/>
      <point x="310" y="63"/>
      <point x="320" y="72"/>
      <point x="336" y="72" type="curve" smooth="yes"/>
      <point x="353" y="72"/>
      <point x="362" y="63"/>
      <point x="362" y="46" type="curve" smooth="yes"/>
    </contour>
    <contour>
      <point x="674" y="0" type="line"/>
      <point x="674" y="714" type="line"/>
      <point x="534" y="714" type="line"/>
      <point x="534" y="0" type="line"/>
    </contour>
    <contour>
      <point x="434" y="24" type="line"/>
      <point x="434" y="0" type="line"/>
      <point x="468" y="0" type="line" smooth="yes"/>
      <point x="500" y="0"/>
      <point x="519" y="13"/>
      <point x="519" y="37" type="curve" smooth="yes"/>
      <point x="519" y="62"/>
      <point x="501" y="79"/>
      <point x="475" y="79" type="curve" smooth="yes"/>
      <point x="462" y="79"/>
      <point x="450" y="75"/>
      <point x="440" y="66" type="curve"/>
      <point x="456" y="48" type="line"/>
      <point x="461" y="53"/>
      <point x="467" y="55"/>
      <point x="475" y="55" type="curve" smooth="yes"/>
      <point x="488" y="55"/>
      <point x="495" y="48"/>
      <point x="495" y="37" type="curve" smooth="yes"/>
      <point x="495" y="29"/>
      <point x="488" y="24"/>
      <point x="468" y="24" type="curve" smooth="yes"/>
    </contour>
    <contour>
      <point x="524" y="218" type="line"/>
      <point x="508" y="233"/>
      <point x="489" y="240"/>
      <point x="468" y="240" type="curve" smooth="yes"/>
      <point x="445" y="240"/>
      <point x="425" y="232"/>
      <point x="400" y="215" type="curve"/>
      <point x="414" y="195" type="line"/>
      <point x="434" y="210"/>
      <point x="451" y="216"/>
      <point x="468" y="216" type="curve" smooth="yes"/>
      <point x="475" y="216"/>
      <point x="482" y="215"/>
      <point x="488" y="212" type="curve"/>
      <point x="466" y="201"/>
      <point x="443" y="183"/>
      <point x="422" y="161" type="curve"/>
      <point x="438" y="145" type="line"/>
      <point x="467" y="173"/>
      <point x="499" y="195"/>
      <point x="524" y="202" type="curve"/>
    </contour>
    <contour>
      <point x="402" y="153" type="curve"/>
      <point x="414" y="133" type="line"/>
      <point x="423" y="140"/>
      <point x="434" y="143"/>
      <point x="444" y="143" type="curve" smooth="yes"/>
      <point x="459" y="143"/>
      <point x="472" y="138"/>
      <point x="480" y="129" type="curve"/>
      <point x="477" y="129" type="line" smooth="yes"/>
      <point x="449" y="129"/>
      <point x="419" y="115"/>
      <point x="400" y="92" type="curve"/>
      <point x="418" y="76" type="line"/>
      <point x="433" y="94"/>
      <point x="456" y="105"/>
      <point x="477" y="105" type="curve" smooth="yes"/>
      <point x="486" y="105"/>
      <point x="496" y="103"/>
      <point x="503" y="100" type="curve"/>
      <point x="515" y="113" type="line"/>
      <point x="505" y="148"/>
      <point x="479" y="167"/>
      <point x="444" y="167" type="curve" smooth="yes"/>
      <point x="430" y="167"/>
      <point x="417" y="163"/>
    </contour>
    <contour>
      <point x="362" y="0" type="line"/>
      <point x="440" y="0" type="line"/>
      <point x="454" y="13"/>
      <point x="462" y="28"/>
      <point x="462" y="45" type="curve" smooth="yes"/>
      <point x="462" y="73"/>
      <point x="441" y="93"/>
      <point x="412" y="93" type="curve" smooth="yes"/>
      <point x="382" y="93"/>
      <point x="362" y="73"/>
      <point x="362" y="43" type="curve" smooth="yes"/>
    </contour>
    <contour>
      <point x="386" y="27" type="line"/>
      <point x="386" y="46" type="line" smooth="yes"/>
      <point x="386" y="63"/>
      <point x="395" y="72"/>
      <point x="412" y="72" type="curve" smooth="yes"/>
      <point x="428" y="72"/>
      <point x="438" y="63"/>
      <point x="438" y="48" type="curve" smooth="yes"/>
      <point x="438" y="40"/>
      <point x="435" y="34"/>
      <point x="430" y="27" type="curve"/>
    </contour>
    <contour>
      <point x="426" y="483" type="curve" smooth="yes"/>
      <point x="426" y="504"/>
      <point x="431" y="527"/>
      <point x="437" y="552" type="curve" smooth="yes"/>
      <point x="443" y="576"/>
      <point x="448" y="601"/>
      <point x="448" y="623" type="curve" smooth="yes"/>
      <point x="448" y="674"/>
      <point x="419" y="707"/>
      <point x="374" y="707" type="curve" smooth="yes"/>
      <point x="329" y="707"/>
      <point x="300" y="674"/>
      <point x="300" y="623" type="curve" smooth="yes"/>
      <point x="300" y="601"/>
      <point x="306" y="576"/>
      <point x="311" y="552" type="curve" smooth="yes"/>
      <point x="317" y="527"/>
      <point x="322" y="504"/>
      <point x="322" y="483" type="curve" smooth="yes"/>
      <point x="322" y="447"/>
      <point x="306" y="429"/>
      <point x="266" y="421" type="curve"/>
      <point x="270" y="397" type="line"/>
      <point x="321" y="407"/>
      <point x="346" y="436"/>
      <point x="346" y="483" type="curve" smooth="yes"/>
      <point x="346" y="507"/>
      <point x="340" y="533"/>
      <point x="335" y="557" type="curve" smooth="yes"/>
      <point x="329" y="581"/>
      <point x="324" y="604"/>
      <point x="324" y="623" type="curve" smooth="yes"/>
      <point x="324" y="661"/>
      <point x="343" y="683"/>
      <point x="374" y="683" type="curve" smooth="yes"/>
      <point x="405" y="683"/>
      <point x="424" y="661"/>
      <point x="424" y="623" type="curve" smooth="yes"/>
      <point x="424" y="604"/>
      <point x="419" y="581"/>
      <point x="413" y="557" type="curve" smooth="yes"/>
      <point x="407" y="533"/>
      <point x="402" y="507"/>
      <point x="402" y="483" type="curve" smooth="yes"/>
      <point x="402" y="436"/>
      <point x="427" y="407"/>
      <point x="478" y="397" type="curve"/>
      <point x="482" y="421" type="line"/>
      <point x="442" y="429"/>
      <point x="426" y="447"/>
    </contour>
    <contour>
      <point x="374" y="275" type="curve"/>
      <point x="340" y="246"/>
      <point x="326" y="216"/>
      <point x="326" y="175" type="curve" smooth="yes"/>
      <point x="326" y="145"/>
      <point x="332" y="110"/>
      <point x="344" y="74" type="curve"/>
      <point x="366" y="82" type="line"/>
      <point x="356" y="115"/>
      <point x="350" y="147"/>
      <point x="350" y="175" type="curve" smooth="yes"/>
      <point x="350" y="202"/>
      <point x="357" y="222"/>
      <point x="374" y="242" type="curve"/>
      <point x="391" y="222"/>
      <point x="398" y="202"/>
      <point x="398" y="175" type="curve" smooth="yes"/>
      <point x="398" y="147"/>
      <point x="392" y="115"/>
      <point x="382" y="82" type="curve"/>
      <point x="404" y="74" type="line"/>
      <point x="416" y="110"/>
      <point x="422" y="145"/>
      <point x="422" y="175" type="curve" smooth="yes"/>
      <point x="422" y="216"/>
      <point x="408" y="246"/>
    </contour>
  </outline>
</glyph>
<glyph name="terminal2-soyo" format="2">
  <advance width="748"/>
  <unicode hex="11AA2"/>
  <outline>
    <contour>
      <point x="374" y="276" type="curve" smooth="yes"/>
      <point x="467" y="276"/>
      <point x="508" y="324"/>
      <point x="508" y="430" type="curve" smooth="yes"/>
      <point x="508" y="554"/>
      <point x="466" y="670"/>
      <point x="374" y="804" type="curve"/>
      <point x="282" y="670"/>
      <point x="240" y="554"/>
      <point x="240" y="430" type="curve" smooth="yes"/>
      <point x="240" y="324"/>
      <point x="281" y="276"/>
    </contour>
    <contour>
      <point x="374" y="2" type="curve"/>
      <point x="411" y="12"/>
      <point x="434" y="37"/>
      <point x="440" y="69" type="curve"/>
      <point x="416" y="73" type="line"/>
      <point x="412" y="51"/>
      <point x="398" y="35"/>
      <point x="374" y="27" type="curve"/>
      <point x="350" y="35"/>
      <point x="336" y="51"/>
      <point x="332" y="73" type="curve"/>
      <point x="308" y="69" type="line"/>
      <point x="314" y="37"/>
      <point x="337" y="12"/>
    </contour>
    <contour>
      <point x="258" y="21" type="curve"/>
      <point x="295" y="36"/>
      <point x="335" y="64"/>
      <point x="364" y="94" type="curve"/>
      <point x="346" y="110" type="line"/>
      <point x="324" y="88"/>
      <point x="295" y="66"/>
      <point x="267" y="52" type="curve"/>
      <point x="264" y="58"/>
      <point x="263" y="65"/>
      <point x="263" y="72" type="curve" smooth="yes"/>
      <point x="263" y="92"/>
      <point x="273" y="101"/>
      <point x="293" y="101" type="curve" smooth="yes"/>
      <point x="303" y="101"/>
      <point x="310" y="99"/>
      <point x="321" y="96" type="curve" smooth="yes"/>
      <point x="334" y="93"/>
      <point x="350" y="89"/>
      <point x="374" y="89" type="curve" smooth="yes"/>
      <point x="398" y="89"/>
      <point x="414" y="93"/>
      <point x="427" y="96" type="curve" smooth="yes"/>
      <point x="438" y="99"/>
      <point x="445" y="101"/>
      <point x="455" y="101" type="curve" smooth="yes"/>
      <point x="475" y="101"/>
      <point x="485" y="92"/>
      <point x="485" y="72" type="curve" smooth="yes"/>
      <point x="485" y="65"/>
      <point x="484" y="58"/>
      <point x="481" y="52" type="curve"/>
      <point x="453" y="66"/>
      <point x="424" y="88"/>
      <point x="402" y="110" type="curve"/>
      <point x="384" y="94" type="line"/>
      <point x="413" y="64"/>
      <point x="453" y="36"/>
      <point x="490" y="21" type="curve"/>
      <point x="502" y="35"/>
      <point x="509" y="53"/>
      <point x="509" y="72" type="curve" smooth="yes"/>
      <point x="509" y="105"/>
      <point x="488" y="125"/>
      <point x="455" y="125" type="curve" smooth="yes"/>
      <point x="442" y="125"/>
      <point x="432" y="122"/>
      <point x="421" y="120" type="curve" smooth="yes"/>
      <point x="408" y="116"/>
      <point x="395" y="113"/>
      <point x="374" y="113" type="curve" smooth="yes"/>
      <point x="353" y="113"/>
      <point x="340" y="116"/>
      <point x="327" y="120" type="curve" smooth="yes"/>
      <point x="316" y="122"/>
      <point x="306" y="125"/>
      <point x="293" y="125" type="curve" smooth="yes"/>
      <point x="260" y="125"/>
      <point x="239" y="105"/>
      <point x="239" y="72" type="curve" smooth="yes"/>
      <point x="239" y="53"/>
      <point x="246" y="35"/>
    </contour>
    <contour>
      <point x="278" y="102" type="curve"/>
      <point x="290" y="122" type="line"/>
      <point x="276" y="131"/>
      <point x="271" y="143"/>
      <point x="271" y="168" type="curve" smooth="yes"/>
      <point x="271" y="185"/>
      <point x="269" y="199"/>
      <point x="265" y="215" type="curve"/>
      <point x="289" y="208"/>
      <point x="315" y="190"/>
      <point x="323" y="172" type="curve"/>
      <point x="345" y="182" type="line"/>
      <point x="328" y="217"/>
      <point x="270" y="250"/>
      <point x="231" y="240" type="curve"/>
      <point x="242" y="212"/>
      <point x="247" y="194"/>
      <point x="247" y="168" type="curve" smooth="yes"/>
      <point x="247" y="135"/>
      <point x="257" y="114"/>
    </contour>
    <contour>
      <point x="74" y="0" type="line"/>
      <point x="214" y="0" type="line"/>
      <point x="214" y="714" type="line"/>
      <point x="74" y="714" type="line"/>
    </contour>
    <contour>
      <point x="74" y="0" type="line"/>
      <point x="214" y="0" type="line"/>
      <point x="214" y="714" type="line"/>
      <point x="74" y="714" type="line"/>
    </contour>
    <contour>
      <point x="335" y="98" type="curve"/>
      <point x="355" y="110" type="line"/>
      <point x="347" y="123"/>
      <point x="343" y="138"/>
      <point x="343" y="153" type="curve" smooth="yes"/>
      <point x="343" y="179"/>
      <point x="354" y="204"/>
      <point x="374" y="223" type="curve"/>
      <point x="394" y="204"/>
      <point x="405" y="179"/>
      <point x="405" y="153" type="curve" smooth="yes"/>
      <point x="405" y="138"/>
      <point x="401" y="123"/>
      <point x="393" y="110" type="curve"/>
      <point x="413" y="98" type="line"/>
      <point x="424" y="114"/>
      <point x="429" y="133"/>
      <point x="429" y="153" type="curve" smooth="yes"/>
      <point x="429" y="192"/>
      <point x="409" y="230"/>
      <point x="374" y="254" type="curve"/>
      <point x="339" y="230"/>
      <point x="319" y="192"/>
      <point x="319" y="153" type="curve" smooth="yes"/>
      <point x="319" y="133"/>
      <point x="324" y="114"/>
    </contour>
    <contour>
      <point x="470" y="102" type="line"/>
      <point x="491" y="114"/>
      <point x="501" y="135"/>
      <point x="501" y="168" type="curve" smooth="yes"/>
      <point x="501" y="194"/>
      <point x="506" y="212"/>
      <point x="517" y="240" type="curve"/>
      <point x="478" y="250"/>
      <point x="420" y="217"/>
      <point x="403" y="182" type="curve"/>
      <point x="425" y="172" type="line"/>
      <point x="433" y="190"/>
      <point x="459" y="208"/>
      <point x="483" y="215" type="curve"/>
      <point x="479" y="199"/>
      <point x="477" y="185"/>
      <point x="477" y="168" type="curve" smooth="yes"/>
      <point x="477" y="143"/>
      <point x="472" y="131"/>
      <point x="458" y="122" type="curve"/>
    </contour>
    <contour>
      <point x="374" y="300" type="curve" smooth="yes"/>
      <point x="295" y="300"/>
      <point x="264" y="337"/>
      <point x="264" y="430" type="curve" smooth="yes"/>
      <point x="264" y="540"/>
      <point x="298" y="644"/>
      <point x="374" y="761" type="curve"/>
      <point x="450" y="644"/>
      <point x="484" y="540"/>
      <point x="484" y="430" type="curve" smooth="yes"/>
      <point x="484" y="337"/>
      <point x="453" y="300"/>
    </contour>
    <contour>
      <point x="534" y="0" type="line"/>
      <point x="674" y="0" type="line"/>
      <point x="674" y="714" type="line"/>
      <point x="534" y="714" type="line"/>
    </contour>
    <contour>
      <point x="534" y="0" type="line"/>
      <point x="674" y="0" type="line"/>
      <point x="674" y="714" type="line"/>
      <point x="534" y="714" type="line"/>
    </contour>
    <contour>
      <point x="374" y="289" type="curve" smooth="yes"/>
      <point x="414" y="289"/>
      <point x="447" y="303"/>
      <point x="473" y="333" type="curve"/>
      <point x="497" y="383" type="line"/>
      <point x="484" y="430" type="line"/>
      <point x="484" y="396"/>
      <point x="444" y="358"/>
      <point x="374" y="358" type="curve" smooth="yes"/>
      <point x="304" y="358"/>
      <point x="264" y="396"/>
      <point x="264" y="430" type="curve"/>
      <point x="251" y="383" type="line"/>
      <point x="275" y="333" type="line"/>
      <point x="301" y="303"/>
      <point x="334" y="289"/>
    </contour>
    <contour>
      <point x="374" y="437" type="curve" smooth="yes"/>
      <point x="422" y="437"/>
      <point x="462" y="451"/>
      <point x="493" y="481" type="curve"/>
      <point x="472" y="545" type="line"/>
      <point x="446" y="521"/>
      <point x="411" y="511"/>
      <point x="374" y="511" type="curve" smooth="yes"/>
      <point x="337" y="511"/>
      <point x="302" y="521"/>
      <point x="276" y="545" type="curve"/>
      <point x="255" y="481" type="line"/>
      <point x="286" y="451"/>
      <point x="326" y="437"/>
    </contour>
    <contour>
      <point x="374" y="584" type="curve" smooth="yes"/>
      <point x="403" y="584"/>
      <point x="430" y="593"/>
      <point x="453" y="612" type="curve"/>
      <point x="431" y="671" type="line"/>
      <point x="416" y="659"/>
      <point x="396" y="653"/>
      <point x="374" y="653" type="curve" smooth="yes"/>
      <point x="352" y="653"/>
      <point x="332" y="659"/>
      <point x="317" y="671" type="curve"/>
      <point x="295" y="612" type="line"/>
      <point x="318" y="593"/>
      <point x="345" y="584"/>
    </contour>
  </outline>
</glyph>
<glyph name="aSub-soyo.2" format="2">
  <anchor x="-168" y="549" name="_bottom"/>
  <anchor x="-168" y="40" name="bottom"/>
  <outline>
    <contour>
      <point x="-168" y="549" type="line"/>
      <point x="-168" y="347" type="line"/>
      <point x="-74" y="297" type="line"/>
      <point x="-74" y="549" type="line"/>
    </contour>
    <contour>
      <point x="-513" y="539" type="curve" smooth="yes"/>
      <point x="-554" y="539"/>
      <point x="-586" y="513"/>
      <point x="-586" y="471" type="curve" smooth="yes"/>
      <point x="-586" y="409"/>
      <point x="-519" y="377"/>
      <point x="-426" y="377" type="curve" smooth="yes"/>
      <point x="-335" y="377"/>
      <point x="-260" y="402"/>
      <point x="-192" y="471" type="curve"/>
      <point x="-219" y="510" type="line"/>
      <point x="-275" y="468"/>
      <point x="-330" y="446"/>
      <point x="-396" y="446" type="curve" smooth="yes"/>
      <point x="-448" y="446"/>
      <point x="-472" y="464"/>
      <point x="-472" y="491" type="curve" smooth="yes"/>
      <point x="-472" y="502"/>
      <point x="-468" y="515"/>
      <point x="-460" y="521" type="curve"/>
      <point x="-470" y="532"/>
      <point x="-488" y="539"/>
    </contour>
    <contour>
      <point x="-168" y="347" type="line"/>
      <point x="-168" y="40" type="line"/>
      <point x="-74" y="-10" type="line"/>
      <point x="-74" y="347" type="line"/>
    </contour>
    <contour>
      <point x="-333" y="323" type="curve" smooth="yes"/>
      <point x="-391" y="323"/>
      <point x="-437" y="295"/>
      <point x="-469" y="239" type="curve"/>
      <point x="-434" y="218" type="line"/>
      <point x="-412" y="246"/>
      <point x="-381" y="259"/>
      <point x="-348" y="259" type="curve" smooth="yes"/>
      <point x="-307" y="259"/>
      <point x="-286" y="237"/>
      <point x="-286" y="206" type="curve" smooth="yes"/>
      <point x="-286" y="169"/>
      <point x="-316" y="147"/>
      <point x="-374" y="147" type="curve" smooth="yes"/>
      <point x="-445" y="147"/>
      <point x="-509" y="179"/>
      <point x="-573" y="250" type="curve"/>
      <point x="-606" y="212" type="line"/>
      <point x="-525" y="118"/>
      <point x="-448" y="87"/>
      <point x="-367" y="87" type="curve" smooth="yes"/>
      <point x="-273" y="87"/>
      <point x="-212" y="130"/>
      <point x="-212" y="209" type="curve" smooth="yes"/>
      <point x="-212" y="281"/>
      <point x="-263" y="323"/>
    </contour>
  </outline>
</glyph>
<glyph name="aSub-soyo.3" format="2">
  <anchor x="-168" y="549" name="_bottom"/>
  <anchor x="-168" y="95" name="bottom"/>
  <outline>
    <contour>
      <point x="-168" y="549" type="line"/>
      <point x="-168" y="372" type="line"/>
      <point x="-74" y="322" type="line"/>
      <point x="-74" y="549" type="line"/>
    </contour>
    <contour>
      <point x="-515" y="539" type="curve" smooth="yes"/>
      <point x="-555" y="539"/>
      <point x="-586" y="515"/>
      <point x="-586" y="477" type="curve" smooth="yes"/>
      <point x="-586" y="420"/>
      <point x="-520" y="390"/>
      <point x="-428" y="390" type="curve" smooth="yes"/>
      <point x="-337" y="390"/>
      <point x="-261" y="413"/>
      <point x="-192" y="477" type="curve"/>
      <point x="-218" y="517" type="line"/>
      <point x="-275" y="479"/>
      <point x="-330" y="459"/>
      <point x="-397" y="459" type="curve" smooth="yes"/>
      <point x="-448" y="459"/>
      <point x="-472" y="475"/>
      <point x="-472" y="498" type="curve" smooth="yes"/>
      <point x="-472" y="507"/>
      <point x="-469" y="517"/>
      <point x="-463" y="522" type="curve"/>
      <point x="-473" y="532"/>
      <point x="-491" y="539"/>
    </contour>
    <contour>
      <point x="-168" y="372" type="line"/>
      <point x="-168" y="95" type="line"/>
      <point x="-74" y="45" type="line"/>
      <point x="-74" y="372" type="line"/>
    </contour>
    <contour>
      <point x="-328" y="352" type="curve" smooth="yes"/>
      <point x="-386" y="352"/>
      <point x="-432" y="326"/>
      <point x="-465" y="271" type="curve"/>
      <point x="-430" y="250" type="line"/>
      <point x="-407" y="276"/>
      <point x="-376" y="288"/>
      <point x="-344" y="288" type="curve" smooth="yes"/>
      <point x="-305" y="288"/>
      <point x="-286" y="271"/>
      <point x="-286" y="246" type="curve" smooth="yes"/>
      <point x="-286" y="215"/>
      <point x="-315" y="197"/>
      <point x="-372" y="197" type="curve" smooth="yes"/>
      <point x="-444" y="197"/>
      <point x="-508" y="226"/>
      <point x="-573" y="288" type="curve"/>
      <point x="-606" y="250" type="line"/>
      <point x="-523" y="165"/>
      <point x="-445" y="137"/>
      <point x="-365" y="137" type="curve" smooth="yes"/>
      <point x="-271" y="137"/>
      <point x="-212" y="177"/>
      <point x="-212" y="249" type="curve" smooth="yes"/>
      <point x="-212" y="314"/>
      <point x="-261" y="352"/>
    </contour>
  </outline>
</glyph>
<glyph name="aSub-soyo" format="2">
  <anchor x="-168" y="549" name="_bottom"/>
  <anchor x="-168" y="65" name="bottom"/>
  <outline>
    <contour>
      <point x="-168" y="549" type="line"/>
      <point x="-168" y="402" type="line"/>
      <point x="-74" y="352" type="line"/>
      <point x="-74" y="549" type="line"/>
    </contour>
    <contour>
      <point x="-510" y="609" type="curve" smooth="yes"/>
      <point x="-553" y="609"/>
      <point x="-586" y="581"/>
      <point x="-586" y="535" type="curve" smooth="yes"/>
      <point x="-586" y="468"/>
      <point x="-519" y="433"/>
      <point x="-424" y="433" type="curve" smooth="yes"/>
      <point x="-333" y="433"/>
      <point x="-263" y="462"/>
      <point x="-192" y="535" type="curve"/>
      <point x="-221" y="572" type="line"/>
      <point x="-275" y="528"/>
      <point x="-330" y="504"/>
      <point x="-395" y="504" type="curve" smooth="yes"/>
      <point x="-447" y="504"/>
      <point x="-472" y="524"/>
      <point x="-472" y="553" type="curve" smooth="yes"/>
      <point x="-472" y="567"/>
      <point x="-467" y="582"/>
      <point x="-457" y="591" type="curve"/>
      <point x="-467" y="602"/>
      <point x="-486" y="609"/>
    </contour>
    <contour>
      <point x="-168" y="402" type="line"/>
      <point x="-168" y="65" type="line"/>
      <point x="-74" y="15" type="line"/>
      <point x="-74" y="402" type="line"/>
    </contour>
    <contour>
      <point x="-337" y="373" type="curve" smooth="yes"/>
      <point x="-397" y="373"/>
      <point x="-442" y="345"/>
      <point x="-474" y="286" type="curve"/>
      <point x="-439" y="265" type="line"/>
      <point x="-416" y="295"/>
      <point x="-386" y="309"/>
      <point x="-353" y="309" type="curve" smooth="yes"/>
      <point x="-309" y="309"/>
      <point x="-286" y="283"/>
      <point x="-286" y="246" type="curve" smooth="yes"/>
      <point x="-286" y="202"/>
      <point x="-318" y="176"/>
      <point x="-376" y="176" type="curve" smooth="yes"/>
      <point x="-447" y="176"/>
      <point x="-509" y="213"/>
      <point x="-572" y="291" type="curve"/>
      <point x="-606" y="255" type="line"/>
      <point x="-527" y="151"/>
      <point x="-452" y="116"/>
      <point x="-369" y="116" type="curve" smooth="yes"/>
      <point x="-274" y="116"/>
      <point x="-212" y="163"/>
      <point x="-212" y="250" type="curve" smooth="yes"/>
      <point x="-212" y="327"/>
      <point x="-265" y="373"/>
    </contour>
  </outline>
</glyph>
<glyph name="aSub-soyo.ini2" format="2">
  <anchor x="-168" y="549" name="_bottom"/>
  <anchor x="-168" y="110" name="bottom"/>
  <outline>
    <contour>
      <point x="-168" y="549" type="line"/>
      <point x="-168" y="417" type="line"/>
      <point x="-74" y="367" type="line"/>
      <point x="-74" y="549" type="line"/>
    </contour>
    <contour>
      <point x="-513" y="609" type="curve" smooth="yes"/>
      <point x="-554" y="609"/>
      <point x="-586" y="583"/>
      <point x="-586" y="541" type="curve" smooth="yes"/>
      <point x="-586" y="479"/>
      <point x="-519" y="447"/>
      <point x="-426" y="447" type="curve" smooth="yes"/>
      <point x="-335" y="447"/>
      <point x="-264" y="472"/>
      <point x="-192" y="541" type="curve"/>
      <point x="-219" y="580" type="line"/>
      <point x="-275" y="538"/>
      <point x="-330" y="516"/>
      <point x="-396" y="516" type="curve" smooth="yes"/>
      <point x="-448" y="516"/>
      <point x="-472" y="534"/>
      <point x="-472" y="561" type="curve" smooth="yes"/>
      <point x="-472" y="572"/>
      <point x="-468" y="585"/>
      <point x="-460" y="591" type="curve"/>
      <point x="-470" y="602"/>
      <point x="-488" y="609"/>
    </contour>
    <contour>
      <point x="-168" y="417" type="line"/>
      <point x="-168" y="110" type="line"/>
      <point x="-74" y="60" type="line"/>
      <point x="-74" y="417" type="line"/>
    </contour>
    <contour>
      <point x="-333" y="393" type="curve" smooth="yes"/>
      <point x="-391" y="393"/>
      <point x="-437" y="365"/>
      <point x="-469" y="309" type="curve"/>
      <point x="-434" y="288" type="line"/>
      <point x="-412" y="316"/>
      <point x="-381" y="329"/>
      <point x="-348" y="329" type="curve" smooth="yes"/>
      <point x="-307" y="329"/>
      <point x="-286" y="307"/>
      <point x="-286" y="276" type="curve" smooth="yes"/>
      <point x="-286" y="239"/>
      <point x="-316" y="217"/>
      <point x="-374" y="217" type="curve" smooth="yes"/>
      <point x="-445" y="217"/>
      <point x="-509" y="249"/>
      <point x="-573" y="320" type="curve"/>
      <point x="-606" y="282" type="line"/>
      <point x="-525" y="188"/>
      <point x="-448" y="157"/>
      <point x="-367" y="157" type="curve" smooth="yes"/>
      <point x="-273" y="157"/>
      <point x="-212" y="200"/>
      <point x="-212" y="279" type="curve" smooth="yes"/>
      <point x="-212" y="351"/>
      <point x="-263" y="393"/>
    </contour>
  </outline>
</glyph>
<glyph name="aaSub-soyo.3" format="2">
  <anchor x="-148" y="714" name="_bottom"/>
  <anchor x="-148" y="487" name="bottom"/>
  <outline>
    <contour>
      <point x="-148" y="714" type="line"/>
      <point x="-148" y="487" type="line"/>
      <point x="-54" y="437" type="line"/>
      <point x="-54" y="714" type="line"/>
    </contour>
    <contour>
      <point x="-527" y="635" type="curve" smooth="yes"/>
      <point x="-527" y="592"/>
      <point x="-485" y="572"/>
      <point x="-416" y="558" type="curve"/>
      <point x="-405" y="596" type="line"/>
      <point x="-445" y="604"/>
      <point x="-463" y="611"/>
      <point x="-463" y="620" type="curve" smooth="yes"/>
      <point x="-463" y="633"/>
      <point x="-424" y="640"/>
      <point x="-356" y="640" type="curve" smooth="yes"/>
      <point x="-296" y="640"/>
      <point x="-252" y="632"/>
      <point x="-252" y="608" type="curve" smooth="yes"/>
      <point x="-252" y="589"/>
      <point x="-289" y="565"/>
      <point x="-393" y="530" type="curve"/>
      <point x="-378" y="487" type="line"/>
      <point x="-231" y="535"/>
      <point x="-192" y="567"/>
      <point x="-192" y="616" type="curve" smooth="yes"/>
      <point x="-192" y="679"/>
      <point x="-254" y="714"/>
      <point x="-362" y="714" type="curve" smooth="yes"/>
      <point x="-469" y="714"/>
      <point x="-527" y="681"/>
    </contour>
  </outline>
</glyph>
<glyph name="aaSub-soyo" format="2">
  <anchor x="-148" y="714" name="_bottom"/>
  <anchor x="-148" y="287" name="bottom"/>
  <outline>
    <contour>
      <point x="-148" y="714" type="line"/>
      <point x="-148" y="287" type="line"/>
      <point x="-54" y="237" type="line"/>
      <point x="-54" y="714" type="line"/>
    </contour>
    <contour>
      <point x="-527" y="567" type="curve" smooth="yes"/>
      <point x="-527" y="504"/>
      <point x="-489" y="459"/>
      <point x="-426" y="431" type="curve"/>
      <point x="-405" y="466" type="line"/>
      <point x="-445" y="488"/>
      <point x="-463" y="517"/>
      <point x="-463" y="552" type="curve" smooth="yes"/>
      <point x="-463" y="608"/>
      <point x="-424" y="640"/>
      <point x="-356" y="640" type="curve" smooth="yes"/>
      <point x="-296" y="640"/>
      <point x="-252" y="615"/>
      <point x="-252" y="550" type="curve" smooth="yes"/>
      <point x="-252" y="489"/>
      <point x="-292" y="424"/>
      <point x="-403" y="322" type="curve"/>
      <point x="-371" y="287" type="line"/>
      <point x="-226" y="412"/>
      <point x="-192" y="476"/>
      <point x="-192" y="556" type="curve" smooth="yes"/>
      <point x="-192" y="658"/>
      <point x="-254" y="714"/>
      <point x="-362" y="714" type="curve" smooth="yes"/>
      <point x="-469" y="714"/>
      <point x="-527" y="652"/>
    </contour>
  </outline>
</glyph>
<glyph name="aaSub-soyo.ini2" format="2">
  <anchor x="-148" y="714" name="_bottom"/>
  <anchor x="-148" y="387" name="bottom"/>
  <outline>
    <contour>
      <point x="-148" y="714" type="line"/>
      <point x="-148" y="387" type="line"/>
      <point x="-54" y="337" type="line"/>
      <point x="-54" y="714" type="line"/>
    </contour>
    <contour>
      <point x="-527" y="601" type="curve" smooth="yes"/>
      <point x="-527" y="548"/>
      <point x="-487" y="516"/>
      <point x="-421" y="495" type="curve"/>
      <point x="-405" y="531" type="line"/>
      <point x="-445" y="546"/>
      <point x="-463" y="564"/>
      <point x="-463" y="586" type="curve" smooth="yes"/>
      <point x="-463" y="621"/>
      <point x="-424" y="640"/>
      <point x="-356" y="640" type="curve" smooth="yes"/>
      <point x="-296" y="640"/>
      <point x="-252" y="624"/>
      <point x="-252" y="579" type="curve" smooth="yes"/>
      <point x="-252" y="539"/>
      <point x="-290" y="495"/>
      <point x="-398" y="426" type="curve"/>
      <point x="-374" y="387" type="line"/>
      <point x="-228" y="474"/>
      <point x="-192" y="522"/>
      <point x="-192" y="586" type="curve" smooth="yes"/>
      <point x="-192" y="669"/>
      <point x="-254" y="714"/>
      <point x="-362" y="714" type="curve" smooth="yes"/>
      <point x="-469" y="714"/>
      <point x="-527" y="667"/>
    </contour>
  </outline>
</glyph>
<glyph name="aiMatra-soyo.open" format="2">
  <advance width="195"/>
  <outline>
    <contour>
      <point x="-74" y="634" type="line"/>
      <point x="-94" y="549" type="line"/>
      <point x="70" y="549" type="line"/>
      <point x="155" y="628" type="line"/>
      <point x="155" y="634" type="line"/>
    </contour>
    <contour>
      <point x="97" y="628" type="line"/>
      <point x="-84" y="397" type="line"/>
      <point x="-26" y="397" type="line"/>
      <point x="155" y="628" type="line"/>
    </contour>
    <contour>
      <point x="-84" y="397" type="line"/>
      <point x="71" y="285" type="line"/>
      <point x="149" y="325" type="line"/>
      <point x="-6" y="437" type="line"/>
    </contour>
    <contour>
      <point x="78" y="325" type="line"/>
      <point x="-90" y="188" type="line"/>
      <point x="-19" y="188" type="line"/>
      <point x="149" y="325" type="line"/>
    </contour>
    <contour>
      <point x="-90" y="188" type="line"/>
      <point x="-26" y="119"/>
      <point x="15" y="33"/>
      <point x="27" y="-50" type="curve"/>
      <point x="153" y="-50" type="line"/>
      <point x="119" y="53"/>
      <point x="41" y="157"/>
      <point x="-32" y="204" type="curve"/>
    </contour>
  </outline>
</glyph>
<glyph name="auMatra-soyo.open" format="2">
  <advance width="195"/>
  <outline>
    <contour>
      <point x="-90" y="174" type="line"/>
      <point x="-26" y="110"/>
      <point x="15" y="28"/>
      <point x="27" y="-50" type="curve"/>
      <point x="153" y="-50" type="line"/>
      <point x="119" y="49"/>
      <point x="41" y="145"/>
      <point x="-32" y="190" type="curve"/>
    </contour>
    <contour>
      <point x="-74" y="634" type="curve"/>
      <point x="-90" y="594" type="line"/>
      <point x="8" y="594"/>
      <point x="58" y="568"/>
      <point x="58" y="514" type="curve" smooth="yes"/>
      <point x="58" y="460"/>
      <point x="8" y="434"/>
      <point x="-90" y="434" type="curve"/>
      <point x="-90" y="394" type="line"/>
      <point x="39" y="394"/>
      <point x="149" y="430"/>
      <point x="149" y="514" type="curve" smooth="yes"/>
      <point x="149" y="598"/>
      <point x="46" y="634"/>
    </contour>
    <contour>
      <point x="-90" y="414" type="curve"/>
      <point x="-90" y="374" type="line"/>
      <point x="8" y="374"/>
      <point x="58" y="348"/>
      <point x="58" y="294" type="curve" smooth="yes"/>
      <point x="58" y="240"/>
      <point x="8" y="214"/>
      <point x="-90" y="214" type="curve"/>
      <point x="-90" y="174" type="line"/>
      <point x="39" y="174"/>
      <point x="149" y="210"/>
      <point x="149" y="294" type="curve" smooth="yes"/>
      <point x="149" y="378"/>
      <point x="39" y="414"/>
    </contour>
  </outline>
</glyph>
<glyph name="bFinal-soyo.half" format="2">
  <anchor x="-148" y="0" name="_bottom"/>
  <anchor x="-148" y="0" name="bottom"/>
  <outline>
    <contour>
      <point x="-250" y="170" type="curve" smooth="yes"/>
      <point x="-287" y="170"/>
      <point x="-313" y="142"/>
      <point x="-313" y="92" type="curve" smooth="yes"/>
      <point x="-313" y="36"/>
      <point x="-283" y="0"/>
      <point x="-230" y="0" type="curve" smooth="yes"/>
      <point x="-197" y="0"/>
      <point x="-169" y="15"/>
      <point x="-143" y="60" type="curve"/>
      <point x="-143" y="115" type="line"/>
      <point x="-170" y="76"/>
      <point x="-192" y="58"/>
      <point x="-216" y="58" type="curve" smooth="yes"/>
      <point x="-238" y="58"/>
      <point x="-249" y="73"/>
      <point x="-249" y="91" type="curve" smooth="yes"/>
      <point x="-249" y="111"/>
      <point x="-236" y="127"/>
      <point x="-209" y="135" type="curve"/>
      <point x="-207" y="143" type="line"/>
      <point x="-217" y="160"/>
      <point x="-232" y="170"/>
    </contour>
  </outline>
</glyph>
<glyph name="baSub-soyo.2" format="2">
  <anchor x="-148" y="714" name="_bottom"/>
  <anchor x="-148" y="387" name="bottom"/>
  <outline>
    <contour>
      <point x="-148" y="714" type="line"/>
      <point x="-148" y="387" type="line"/>
      <point x="-54" y="337" type="line"/>
      <point x="-54" y="714" type="line"/>
    </contour>
    <contour>
      <point x="-192" y="500" type="curve" smooth="yes"/>
      <point x="-192" y="553"/>
      <point x="-232" y="586"/>
      <point x="-298" y="607" type="curve"/>
      <point x="-314" y="570" type="line"/>
      <point x="-274" y="555"/>
      <point x="-256" y="537"/>
      <point x="-256" y="515" type="curve" smooth="yes"/>
      <point x="-256" y="481"/>
      <point x="-295" y="461"/>
      <point x="-363" y="461" type="curve" smooth="yes"/>
      <point x="-423" y="461"/>
      <point x="-467" y="478"/>
      <point x="-467" y="522" type="curve" smooth="yes"/>
      <point x="-467" y="562"/>
      <point x="-428" y="607"/>
      <point x="-321" y="675" type="curve"/>
      <point x="-344" y="714" type="line"/>
      <point x="-490" y="628"/>
      <point x="-527" y="580"/>
      <point x="-527" y="515" type="curve" smooth="yes"/>
      <point x="-527" y="433"/>
      <point x="-465" y="387"/>
      <point x="-357" y="387" type="curve" smooth="yes"/>
      <point x="-250" y="387"/>
      <point x="-192" y="435"/>
    </contour>
  </outline>
</glyph>
<glyph name="baSub-soyo.3" format="2">
  <anchor x="-148" y="714" name="_bottom"/>
  <anchor x="-148" y="487" name="bottom"/>
  <outline>
    <contour>
      <point x="-148" y="714" type="line"/>
      <point x="-148" y="487" type="line"/>
      <point x="-54" y="437" type="line"/>
      <point x="-54" y="714" type="line"/>
    </contour>
    <contour>
      <point x="-192" y="566" type="curve" smooth="yes"/>
      <point x="-192" y="609"/>
      <point x="-234" y="629"/>
      <point x="-303" y="643" type="curve"/>
      <point x="-314" y="605" type="line"/>
      <point x="-274" y="597"/>
      <point x="-256" y="590"/>
      <point x="-256" y="581" type="curve" smooth="yes"/>
      <point x="-256" y="568"/>
      <point x="-295" y="561"/>
      <point x="-363" y="561" type="curve" smooth="yes"/>
      <point x="-423" y="561"/>
      <point x="-467" y="569"/>
      <point x="-467" y="593" type="curve" smooth="yes"/>
      <point x="-467" y="612"/>
      <point x="-430" y="636"/>
      <point x="-326" y="671" type="curve"/>
      <point x="-341" y="714" type="line"/>
      <point x="-488" y="666"/>
      <point x="-527" y="634"/>
      <point x="-527" y="585" type="curve" smooth="yes"/>
      <point x="-527" y="522"/>
      <point x="-465" y="487"/>
      <point x="-357" y="487" type="curve" smooth="yes"/>
      <point x="-250" y="487"/>
      <point x="-192" y="520"/>
    </contour>
  </outline>
</glyph>
<glyph name="baSub-soyo" format="2">
  <anchor x="-148" y="714" name="_bottom"/>
  <anchor x="-148" y="287" name="bottom"/>
  <outline>
    <contour>
      <point x="-148" y="714" type="line"/>
      <point x="-148" y="287" type="line"/>
      <point x="-54" y="237" type="line"/>
      <point x="-54" y="714" type="line"/>
    </contour>
    <contour>
      <point x="-192" y="434" type="curve" smooth="yes"/>
      <point x="-192" y="497"/>
      <point x="-230" y="542"/>
      <point x="-293" y="570" type="curve"/>
      <point x="-314" y="535" type="line"/>
      <point x="-274" y="513"/>
      <point x="-256" y="484"/>
      <point x="-256" y="449" type="curve" smooth="yes"/>
      <point x="-256" y="393"/>
      <point x="-295" y="361"/>
      <point x="-363" y="361" type="curve" smooth="yes"/>
      <point x="-423" y="361"/>
      <point x="-467" y="386"/>
      <point x="-467" y="451" type="curve" smooth="yes"/>
      <point x="-467" y="512"/>
      <point x="-427" y="577"/>
      <point x="-316" y="679" type="curve"/>
      <point x="-348" y="714" type="line"/>
      <point x="-493" y="589"/>
      <point x="-527" y="525"/>
      <point x="-527" y="445" type="curve" smooth="yes"/>
      <point x="-527" y="343"/>
      <point x="-465" y="287"/>
      <point x="-357" y="287" type="curve" smooth="yes"/>
      <point x="-250" y="287"/>
      <point x="-192" y="349"/>
    </contour>
  </outline>
</glyph>
<glyph name="bhaSub-soyo.2" format="2">
  <anchor x="-168" y="714" name="_bottom"/>
  <anchor x="-168" y="245" name="bottom"/>
  <outline>
    <contour>
      <point x="-168" y="714" type="line"/>
      <point x="-168" y="522" type="line"/>
      <point x="-74" y="472" type="line"/>
      <point x="-74" y="714" type="line"/>
    </contour>
    <contour>
      <point x="-513" y="704" type="curve" smooth="yes"/>
      <point x="-554" y="704"/>
      <point x="-586" y="678"/>
      <point x="-586" y="636" type="curve" smooth="yes"/>
      <point x="-586" y="574"/>
      <point x="-519" y="542"/>
      <point x="-426" y="542" type="curve" smooth="yes"/>
      <point x="-335" y="542"/>
      <point x="-261" y="567"/>
      <point x="-192" y="636" type="curve"/>
      <point x="-219" y="675" type="line"/>
      <point x="-275" y="633"/>
      <point x="-330" y="611"/>
      <point x="-396" y="611" type="curve" smooth="yes"/>
      <point x="-448" y="611"/>
      <point x="-472" y="629"/>
      <point x="-472" y="656" type="curve" smooth="yes"/>
      <point x="-472" y="667"/>
      <point x="-468" y="680"/>
      <point x="-460" y="686" type="curve"/>
      <point x="-470" y="697"/>
      <point x="-488" y="704"/>
    </contour>
    <contour>
      <point x="-168" y="522" type="line"/>
      <point x="-168" y="245" type="line"/>
      <point x="-74" y="195" type="line"/>
      <point x="-74" y="522" type="line"/>
    </contour>
    <contour>
      <point x="-212" y="341" type="curve" smooth="yes"/>
      <point x="-212" y="389"/>
      <point x="-253" y="415"/>
      <point x="-320" y="433" type="curve"/>
      <point x="-334" y="396" type="line"/>
      <point x="-294" y="384"/>
      <point x="-276" y="372"/>
      <point x="-276" y="356" type="curve" smooth="yes"/>
      <point x="-276" y="332"/>
      <point x="-315" y="319"/>
      <point x="-383" y="319" type="curve" smooth="yes"/>
      <point x="-443" y="319"/>
      <point x="-487" y="331"/>
      <point x="-487" y="366" type="curve" smooth="yes"/>
      <point x="-487" y="395"/>
      <point x="-449" y="429"/>
      <point x="-343" y="481" type="curve"/>
      <point x="-363" y="522" type="line"/>
      <point x="-509" y="455"/>
      <point x="-547" y="415"/>
      <point x="-547" y="358" type="curve" smooth="yes"/>
      <point x="-547" y="285"/>
      <point x="-485" y="245"/>
      <point x="-377" y="245" type="curve" smooth="yes"/>
      <point x="-270" y="245"/>
      <point x="-212" y="285"/>
    </contour>
  </outline>
</glyph>
<glyph name="bhaSub-soyo.3" format="2">
  <anchor x="-168" y="714" name="_bottom"/>
  <anchor x="-168" y="310" name="bottom"/>
  <outline>
    <contour>
      <point x="-168" y="714" type="line"/>
      <point x="-168" y="537" type="line"/>
      <point x="-74" y="487" type="line"/>
      <point x="-74" y="714" type="line"/>
    </contour>
    <contour>
      <point x="-515" y="704" type="curve" smooth="yes"/>
      <point x="-555" y="704"/>
      <point x="-586" y="680"/>
      <point x="-586" y="642" type="curve" smooth="yes"/>
      <point x="-586" y="585"/>
      <point x="-520" y="555"/>
      <point x="-428" y="555" type="curve" smooth="yes"/>
      <point x="-337" y="555"/>
      <point x="-261" y="578"/>
      <point x="-192" y="642" type="curve"/>
      <point x="-218" y="682" type="line"/>
      <point x="-275" y="644"/>
      <point x="-330" y="624"/>
      <point x="-397" y="624" type="curve" smooth="yes"/>
      <point x="-448" y="624"/>
      <point x="-472" y="640"/>
      <point x="-472" y="663" type="curve" smooth="yes"/>
      <point x="-472" y="672"/>
      <point x="-469" y="682"/>
      <point x="-463" y="687" type="curve"/>
      <point x="-473" y="697"/>
      <point x="-491" y="704"/>
    </contour>
    <contour>
      <point x="-168" y="537" type="line"/>
      <point x="-168" y="310" type="line"/>
      <point x="-74" y="260" type="line"/>
      <point x="-74" y="537" type="line"/>
    </contour>
    <contour>
      <point x="-212" y="389" type="curve" smooth="yes"/>
      <point x="-212" y="432"/>
      <point x="-254" y="452"/>
      <point x="-323" y="466" type="curve"/>
      <point x="-334" y="428" type="line"/>
      <point x="-294" y="420"/>
      <point x="-276" y="413"/>
      <point x="-276" y="404" type="curve" smooth="yes"/>
      <point x="-276" y="391"/>
      <point x="-315" y="384"/>
      <point x="-383" y="384" type="curve" smooth="yes"/>
      <point x="-443" y="384"/>
      <point x="-487" y="392"/>
      <point x="-487" y="416" type="curve" smooth="yes"/>
      <point x="-487" y="435"/>
      <point x="-450" y="459"/>
      <point x="-346" y="494" type="curve"/>
      <point x="-361" y="537" type="line"/>
      <point x="-508" y="489"/>
      <point x="-547" y="457"/>
      <point x="-547" y="408" type="curve" smooth="yes"/>
      <point x="-547" y="345"/>
      <point x="-485" y="310"/>
      <point x="-377" y="310" type="curve" smooth="yes"/>
      <point x="-270" y="310"/>
      <point x="-212" y="343"/>
    </contour>
  </outline>
</glyph>
<glyph name="bhaSub-soyo" format="2">
  <anchor x="-158" y="714" name="_bottom"/>
  <anchor x="-158" y="240" name="bottom"/>
  <outline>
    <contour>
      <point x="-158" y="714" type="line"/>
      <point x="-158" y="567" type="line"/>
      <point x="-64" y="517" type="line"/>
      <point x="-64" y="714" type="line"/>
    </contour>
    <contour>
      <point x="-500" y="774" type="curve" smooth="yes"/>
      <point x="-543" y="774"/>
      <point x="-576" y="746"/>
      <point x="-576" y="700" type="curve" smooth="yes"/>
      <point x="-576" y="633"/>
      <point x="-509" y="598"/>
      <point x="-414" y="598" type="curve" smooth="yes"/>
      <point x="-323" y="598"/>
      <point x="-253" y="627"/>
      <point x="-182" y="700" type="curve"/>
      <point x="-211" y="737" type="line"/>
      <point x="-265" y="693"/>
      <point x="-320" y="669"/>
      <point x="-385" y="669" type="curve" smooth="yes"/>
      <point x="-437" y="669"/>
      <point x="-462" y="689"/>
      <point x="-462" y="718" type="curve" smooth="yes"/>
      <point x="-462" y="732"/>
      <point x="-457" y="747"/>
      <point x="-447" y="756" type="curve"/>
      <point x="-457" y="767"/>
      <point x="-476" y="774"/>
    </contour>
    <contour>
      <point x="-158" y="567" type="line"/>
      <point x="-158" y="240" type="line"/>
      <point x="-64" y="190" type="line"/>
      <point x="-64" y="567" type="line"/>
    </contour>
    <contour>
      <point x="-202" y="353" type="curve" smooth="yes"/>
      <point x="-202" y="406"/>
      <point x="-242" y="439"/>
      <point x="-308" y="460" type="curve"/>
      <point x="-324" y="423" type="line"/>
      <point x="-284" y="408"/>
      <point x="-266" y="390"/>
      <point x="-266" y="368" type="curve" smooth="yes"/>
      <point x="-266" y="334"/>
      <point x="-305" y="314"/>
      <point x="-373" y="314" type="curve" smooth="yes"/>
      <point x="-433" y="314"/>
      <point x="-477" y="331"/>
      <point x="-477" y="375" type="curve" smooth="yes"/>
      <point x="-477" y="415"/>
      <point x="-438" y="460"/>
      <point x="-331" y="528" type="curve"/>
      <point x="-354" y="567" type="line"/>
      <point x="-500" y="481"/>
      <point x="-537" y="433"/>
      <point x="-537" y="368" type="curve" smooth="yes"/>
      <point x="-537" y="286"/>
      <point x="-475" y="240"/>
      <point x="-367" y="240" type="curve" smooth="yes"/>
      <point x="-260" y="240"/>
      <point x="-202" y="288"/>
    </contour>
  </outline>
</glyph>
<glyph name="bhaSub-soyo.ini2" format="2">
  <anchor x="-168" y="549" name="_bottom"/>
  <anchor x="-168" y="150" name="bottom"/>
  <outline>
    <contour>
      <point x="-168" y="549" type="line"/>
      <point x="-168" y="427" type="line"/>
      <point x="-74" y="377" type="line"/>
      <point x="-74" y="549" type="line"/>
    </contour>
    <contour>
      <point x="-513" y="609" type="curve" smooth="yes"/>
      <point x="-554" y="609"/>
      <point x="-586" y="583"/>
      <point x="-586" y="541" type="curve" smooth="yes"/>
      <point x="-586" y="479"/>
      <point x="-519" y="447"/>
      <point x="-426" y="447" type="curve" smooth="yes"/>
      <point x="-335" y="447"/>
      <point x="-264" y="472"/>
      <point x="-192" y="541" type="curve"/>
      <point x="-219" y="580" type="line"/>
      <point x="-275" y="538"/>
      <point x="-330" y="516"/>
      <point x="-396" y="516" type="curve" smooth="yes"/>
      <point x="-448" y="516"/>
      <point x="-472" y="534"/>
      <point x="-472" y="561" type="curve" smooth="yes"/>
      <point x="-472" y="572"/>
      <point x="-468" y="585"/>
      <point x="-460" y="591" type="curve"/>
      <point x="-470" y="602"/>
      <point x="-488" y="609"/>
    </contour>
    <contour>
      <point x="-168" y="427" type="line"/>
      <point x="-168" y="150" type="line"/>
      <point x="-74" y="100" type="line"/>
      <point x="-74" y="427" type="line"/>
    </contour>
    <contour>
      <point x="-212" y="246" type="curve" smooth="yes"/>
      <point x="-212" y="294"/>
      <point x="-253" y="320"/>
      <point x="-320" y="338" type="curve"/>
      <point x="-334" y="301" type="line"/>
      <point x="-294" y="289"/>
      <point x="-276" y="277"/>
      <point x="-276" y="261" type="curve" smooth="yes"/>
      <point x="-276" y="237"/>
      <point x="-315" y="224"/>
      <point x="-383" y="224" type="curve" smooth="yes"/>
      <point x="-443" y="224"/>
      <point x="-487" y="236"/>
      <point x="-487" y="271" type="curve" smooth="yes"/>
      <point x="-487" y="300"/>
      <point x="-449" y="334"/>
      <point x="-343" y="386" type="curve"/>
      <point x="-363" y="427" type="line"/>
      <point x="-509" y="360"/>
      <point x="-547" y="320"/>
      <point x="-547" y="263" type="curve" smooth="yes"/>
      <point x="-547" y="190"/>
      <point x="-485" y="150"/>
      <point x="-377" y="150" type="curve" smooth="yes"/>
      <point x="-270" y="150"/>
      <point x="-212" y="190"/>
    </contour>
  </outline>
</glyph>
<glyph name="bhaSub-soyo.ini3" format="2">
  <anchor x="-168" y="549" name="_bottom"/>
  <anchor x="-168" y="215" name="bottom"/>
  <outline>
    <contour>
      <point x="-168" y="549" type="line"/>
      <point x="-168" y="442" type="line"/>
      <point x="-74" y="392" type="line"/>
      <point x="-74" y="549" type="line"/>
    </contour>
    <contour>
      <point x="-515" y="609" type="curve" smooth="yes"/>
      <point x="-555" y="609"/>
      <point x="-586" y="585"/>
      <point x="-586" y="547" type="curve" smooth="yes"/>
      <point x="-586" y="490"/>
      <point x="-520" y="460"/>
      <point x="-428" y="460" type="curve" smooth="yes"/>
      <point x="-337" y="460"/>
      <point x="-265" y="483"/>
      <point x="-192" y="547" type="curve"/>
      <point x="-218" y="587" type="line"/>
      <point x="-275" y="549"/>
      <point x="-330" y="529"/>
      <point x="-397" y="529" type="curve" smooth="yes"/>
      <point x="-448" y="529"/>
      <point x="-472" y="545"/>
      <point x="-472" y="568" type="curve" smooth="yes"/>
      <point x="-472" y="577"/>
      <point x="-469" y="587"/>
      <point x="-463" y="592" type="curve"/>
      <point x="-473" y="602"/>
      <point x="-491" y="609"/>
    </contour>
    <contour>
      <point x="-168" y="442" type="line"/>
      <point x="-168" y="215" type="line"/>
      <point x="-74" y="165" type="line"/>
      <point x="-74" y="442" type="line"/>
    </contour>
    <contour>
      <point x="-212" y="294" type="curve" smooth="yes"/>
      <point x="-212" y="337"/>
      <point x="-254" y="357"/>
      <point x="-323" y="371" type="curve"/>
      <point x="-334" y="333" type="line"/>
      <point x="-294" y="325"/>
      <point x="-276" y="318"/>
      <point x="-276" y="309" type="curve" smooth="yes"/>
      <point x="-276" y="296"/>
      <point x="-315" y="289"/>
      <point x="-383" y="289" type="curve" smooth="yes"/>
      <point x="-443" y="289"/>
      <point x="-487" y="297"/>
      <point x="-487" y="321" type="curve" smooth="yes"/>
      <point x="-487" y="340"/>
      <point x="-450" y="364"/>
      <point x="-346" y="399" type="curve"/>
      <point x="-361" y="442" type="line"/>
      <point x="-508" y="394"/>
      <point x="-547" y="362"/>
      <point x="-547" y="313" type="curve" smooth="yes"/>
      <point x="-547" y="250"/>
      <point x="-485" y="215"/>
      <point x="-377" y="215" type="curve" smooth="yes"/>
      <point x="-270" y="215"/>
      <point x="-212" y="248"/>
    </contour>
  </outline>
</glyph>
<glyph name="caSub-soyo" format="2">
  <anchor x="-148" y="714" name="_bottom"/>
  <anchor x="-148" y="324" name="bottom"/>
  <outline>
    <contour>
      <point x="-148" y="714" type="line"/>
      <point x="-148" y="324" type="line"/>
      <point x="-54" y="274" type="line"/>
      <point x="-54" y="714" type="line"/>
    </contour>
    <contour>
      <point x="-343" y="714" type="line"/>
      <point x="-390" y="667" type="line"/>
      <point x="-195" y="472" type="line"/>
      <point x="-148" y="519" type="line"/>
    </contour>
    <contour>
      <point x="-343" y="324" type="line"/>
      <point x="-148" y="519" type="line"/>
      <point x="-195" y="566" type="line"/>
      <point x="-390" y="371" type="line"/>
    </contour>
    <contour>
      <point x="-343" y="324" type="line"/>
      <point x="-296" y="371" type="line"/>
      <point x="-491" y="566" type="line"/>
      <point x="-538" y="519" type="line"/>
    </contour>
  </outline>
</glyph>
<glyph name="chaSub-soyo.2" format="2">
  <anchor x="-148" y="714" name="_bottom"/>
  <anchor x="-148" y="414" name="bottom"/>
  <outline>
    <contour>
      <point x="-148" y="714" type="line"/>
      <point x="-148" y="414" type="line"/>
      <point x="-54" y="364" type="line"/>
      <point x="-54" y="714" type="line"/>
    </contour>
    <contour>
      <point x="-323" y="714" type="line"/>
      <point x="-373" y="672" type="line"/>
      <point x="-198" y="522" type="line"/>
      <point x="-148" y="564" type="line"/>
    </contour>
    <contour>
      <point x="-323" y="414" type="line"/>
      <point x="-148" y="564" type="line"/>
      <point x="-198" y="607" type="line"/>
      <point x="-373" y="457" type="line"/>
    </contour>
    <contour>
      <point x="-323" y="714" type="line"/>
      <point x="-578" y="496" type="line"/>
      <point x="-528" y="453" type="line"/>
      <point x="-273" y="672" type="line"/>
    </contour>
    <contour>
      <point x="-323" y="414" type="line"/>
      <point x="-273" y="457" type="line"/>
      <point x="-528" y="675" type="line"/>
      <point x="-578" y="633" type="line"/>
    </contour>
  </outline>
</glyph>
<glyph name="chaSub-soyo" format="2">
  <anchor x="-148" y="714" name="_bottom"/>
  <anchor x="-148" y="364" name="bottom"/>
  <outline>
    <contour>
      <point x="-148" y="714" type="line"/>
      <point x="-148" y="364" type="line"/>
      <point x="-54" y="314" type="line"/>
      <point x="-54" y="714" type="line"/>
    </contour>
    <contour>
      <point x="-323" y="714" type="line"/>
      <point x="-370" y="667" type="line"/>
      <point x="-195" y="492" type="line"/>
      <point x="-148" y="539" type="line"/>
    </contour>
    <contour>
      <point x="-323" y="364" type="line"/>
      <point x="-148" y="539" type="line"/>
      <point x="-195" y="586" type="line"/>
      <point x="-370" y="411" type="line"/>
    </contour>
    <contour>
      <point x="-323" y="714" type="line"/>
      <point x="-578" y="459" type="line"/>
      <point x="-531" y="412" type="line"/>
      <point x="-276" y="667" type="line"/>
    </contour>
    <contour>
      <point x="-323" y="364" type="line"/>
      <point x="-276" y="411" type="line"/>
      <point x="-531" y="666" type="line"/>
      <point x="-578" y="619" type="line"/>
    </contour>
  </outline>
</glyph>
<glyph name="chaSub-soyo.ini3" format="2">
  <anchor x="-148" y="684" name="_bottom"/>
  <anchor x="-148" y="464" name="bottom"/>
  <outline>
    <contour>
      <point x="-148" y="684" type="line"/>
      <point x="-148" y="464" type="line"/>
      <point x="-54" y="414" type="line"/>
      <point x="-54" y="684" type="line"/>
    </contour>
    <contour>
      <point x="-323" y="714" type="line"/>
      <point x="-376" y="676" type="line"/>
      <point x="-201" y="551" type="line"/>
      <point x="-148" y="589" type="line"/>
    </contour>
    <contour>
      <point x="-323" y="464" type="line"/>
      <point x="-148" y="589" type="line"/>
      <point x="-201" y="627" type="line"/>
      <point x="-376" y="502" type="line"/>
    </contour>
    <contour>
      <point x="-323" y="714" type="line"/>
      <point x="-578" y="532" type="line"/>
      <point x="-525" y="494" type="line"/>
      <point x="-270" y="676" type="line"/>
    </contour>
    <contour>
      <point x="-323" y="464" type="line"/>
      <point x="-270" y="502" type="line"/>
      <point x="-525" y="684" type="line"/>
      <point x="-578" y="646" type="line"/>
    </contour>
  </outline>
</glyph>
<glyph name="dFinal-soyo.half" format="2">
  <anchor x="-148" y="0" name="_bottom"/>
  <anchor x="-148" y="0" name="bottom"/>
  <outline>
    <contour>
      <point x="-250" y="0" type="curve" smooth="yes"/>
      <point x="-232" y="0"/>
      <point x="-217" y="10"/>
      <point x="-207" y="27" type="curve"/>
      <point x="-209" y="35" type="line"/>
      <point x="-236" y="43"/>
      <point x="-249" y="59"/>
      <point x="-249" y="79" type="curve" smooth="yes"/>
      <point x="-249" y="97"/>
      <point x="-238" y="112"/>
      <point x="-216" y="112" type="curve" smooth="yes"/>
      <point x="-192" y="112"/>
      <point x="-170" y="94"/>
      <point x="-143" y="55" type="curve"/>
      <point x="-143" y="110" type="line"/>
      <point x="-169" y="155"/>
      <point x="-197" y="170"/>
      <point x="-230" y="170" type="curve" smooth="yes"/>
      <point x="-283" y="170"/>
      <point x="-313" y="134"/>
      <point x="-313" y="78" type="curve" smooth="yes"/>
      <point x="-313" y="28"/>
      <point x="-287" y="0"/>
    </contour>
  </outline>
</glyph>
<glyph name="daSub-soyo.2" format="2">
  <anchor x="-148" y="784" name="_bottom"/>
  <anchor x="-148" y="326" name="bottom"/>
  <outline>
    <contour>
      <point x="-148" y="784" type="line"/>
      <point x="-148" y="326" type="line"/>
      <point x="-54" y="276" type="line"/>
      <point x="-54" y="784" type="line"/>
    </contour>
    <contour>
      <point x="-293" y="498" type="line"/>
      <point x="-387" y="498" type="line"/>
      <point x="-387" y="376" type="line"/>
      <point x="-293" y="326" type="line"/>
    </contour>
    <contour>
      <point x="-293" y="515" type="line"/>
      <point x="-425" y="515"/>
      <point x="-479" y="533"/>
      <point x="-479" y="586" type="curve" smooth="yes"/>
      <point x="-479" y="640"/>
      <point x="-428" y="657"/>
      <point x="-293" y="657" type="curve"/>
      <point x="-293" y="714" type="line"/>
      <point x="-469" y="714"/>
      <point x="-553" y="677"/>
      <point x="-553" y="586" type="curve" smooth="yes"/>
      <point x="-553" y="495"/>
      <point x="-472" y="458"/>
      <point x="-293" y="458" type="curve"/>
    </contour>
    <contour>
      <point x="-387" y="678" type="line"/>
      <point x="-293" y="678" type="line"/>
      <point x="-293" y="784" type="line"/>
      <point x="-387" y="784" type="line"/>
    </contour>
  </outline>
</glyph>
<glyph name="daSub-soyo.3" format="2">
  <anchor x="-148" y="754" name="_bottom"/>
  <anchor x="-148" y="426" name="bottom"/>
  <outline>
    <contour>
      <point x="-148" y="754" type="line"/>
      <point x="-148" y="426" type="line"/>
      <point x="-54" y="376" type="line"/>
      <point x="-54" y="754" type="line"/>
    </contour>
    <contour>
      <point x="-293" y="565" type="line"/>
      <point x="-387" y="565" type="line"/>
      <point x="-387" y="476" type="line"/>
      <point x="-293" y="426" type="line"/>
    </contour>
    <contour>
      <point x="-293" y="582" type="line"/>
      <point x="-425" y="582"/>
      <point x="-479" y="592"/>
      <point x="-479" y="623" type="curve" smooth="yes"/>
      <point x="-479" y="654"/>
      <point x="-428" y="664"/>
      <point x="-293" y="664" type="curve"/>
      <point x="-293" y="714" type="line"/>
      <point x="-469" y="714"/>
      <point x="-553" y="688"/>
      <point x="-553" y="623" type="curve" smooth="yes"/>
      <point x="-553" y="559"/>
      <point x="-472" y="532"/>
      <point x="-293" y="532" type="curve"/>
    </contour>
    <contour>
      <point x="-387" y="685" type="line"/>
      <point x="-293" y="685" type="line"/>
      <point x="-293" y="754" type="line"/>
      <point x="-387" y="754" type="line"/>
    </contour>
  </outline>
</glyph>
<glyph name="daSub-soyo" format="2">
  <anchor x="-148" y="714" name="_bottom"/>
  <anchor x="-148" y="226" name="bottom"/>
  <outline>
    <contour>
      <point x="-148" y="714" type="line"/>
      <point x="-148" y="226" type="line"/>
      <point x="-54" y="176" type="line"/>
      <point x="-54" y="714" type="line"/>
    </contour>
    <contour>
      <point x="-293" y="431" type="line"/>
      <point x="-387" y="431" type="line"/>
      <point x="-387" y="276" type="line"/>
      <point x="-293" y="226" type="line"/>
    </contour>
    <contour>
      <point x="-293" y="448" type="line"/>
      <point x="-425" y="448"/>
      <point x="-479" y="473"/>
      <point x="-479" y="549" type="curve" smooth="yes"/>
      <point x="-479" y="625"/>
      <point x="-428" y="650"/>
      <point x="-293" y="650" type="curve"/>
      <point x="-293" y="714" type="line"/>
      <point x="-469" y="714"/>
      <point x="-553" y="667"/>
      <point x="-553" y="549" type="curve" smooth="yes"/>
      <point x="-553" y="432"/>
      <point x="-472" y="384"/>
      <point x="-293" y="384" type="curve"/>
    </contour>
    <contour>
      <point x="-387" y="671" type="line"/>
      <point x="-293" y="671" type="line"/>
      <point x="-293" y="804" type="line"/>
      <point x="-387" y="804" type="line"/>
    </contour>
  </outline>
</glyph>
<glyph name="daSub-soyo.ini2" format="2">
  <anchor x="-168" y="529" name="_bottom"/>
  <anchor x="-168" y="161" name="bottom"/>
  <outline>
    <contour>
      <point x="-168" y="529" type="line"/>
      <point x="-168" y="161" type="line"/>
      <point x="-74" y="111" type="line"/>
      <point x="-74" y="529" type="line"/>
    </contour>
    <contour>
      <point x="-313" y="333" type="line"/>
      <point x="-407" y="333" type="line"/>
      <point x="-407" y="211" type="line"/>
      <point x="-313" y="161" type="line"/>
    </contour>
    <contour>
      <point x="-313" y="350" type="line"/>
      <point x="-445" y="350"/>
      <point x="-499" y="368"/>
      <point x="-499" y="421" type="curve" smooth="yes"/>
      <point x="-499" y="475"/>
      <point x="-448" y="492"/>
      <point x="-313" y="492" type="curve"/>
      <point x="-313" y="549" type="line"/>
      <point x="-489" y="549"/>
      <point x="-573" y="513"/>
      <point x="-573" y="421" type="curve" smooth="yes"/>
      <point x="-573" y="331"/>
      <point x="-492" y="293"/>
      <point x="-313" y="293" type="curve"/>
    </contour>
    <contour>
      <point x="-407" y="513" type="line"/>
      <point x="-313" y="513" type="line"/>
      <point x="-313" y="619" type="line"/>
      <point x="-407" y="619" type="line"/>
    </contour>
  </outline>
</glyph>
<glyph name="daSub-soyo.ini3" format="2">
  <anchor x="-168" y="509" name="_bottom"/>
  <anchor x="-168" y="261" name="bottom"/>
  <outline>
    <contour>
      <point x="-168" y="509" type="line"/>
      <point x="-168" y="261" type="line"/>
      <point x="-74" y="211" type="line"/>
      <point x="-74" y="509" type="line"/>
    </contour>
    <contour>
      <point x="-313" y="400" type="line"/>
      <point x="-407" y="400" type="line"/>
      <point x="-407" y="311" type="line"/>
      <point x="-313" y="261" type="line"/>
    </contour>
    <contour>
      <point x="-313" y="417" type="line"/>
      <point x="-445" y="417"/>
      <point x="-499" y="427"/>
      <point x="-499" y="458" type="curve" smooth="yes"/>
      <point x="-499" y="489"/>
      <point x="-448" y="499"/>
      <point x="-313" y="499" type="curve"/>
      <point x="-313" y="549" type="line"/>
      <point x="-489" y="549"/>
      <point x="-573" y="523"/>
      <point x="-573" y="458" type="curve" smooth="yes"/>
      <point x="-573" y="394"/>
      <point x="-492" y="367"/>
      <point x="-313" y="367" type="curve"/>
    </contour>
    <contour>
      <point x="-407" y="520" type="line"/>
      <point x="-313" y="520" type="line"/>
      <point x="-313" y="599" type="line"/>
      <point x="-407" y="599" type="line"/>
    </contour>
  </outline>
</glyph>
<glyph name="ddaSub-soyo" format="2">
  <anchor x="-118" y="714" name="_bottom"/>
  <anchor x="-118" y="226" name="bottom"/>
  <outline>
    <contour>
      <point x="-118" y="714" type="line"/>
      <point x="-118" y="226" type="line"/>
      <point x="-24" y="176" type="line"/>
      <point x="-24" y="714" type="line"/>
    </contour>
    <contour>
      <point x="-357" y="814" type="line"/>
      <point x="-357" y="276" type="line"/>
      <point x="-263" y="226" type="line"/>
      <point x="-263" y="814" type="line"/>
    </contour>
    <contour>
      <point x="-469" y="549" type="line"/>
      <point x="-357" y="489" type="line"/>
      <point x="-357" y="609" type="line"/>
    </contour>
    <contour>
      <point x="-99" y="574" type="line"/>
      <point x="-99" y="524" type="line"/>
      <point x="-85" y="524" type="line"/>
      <point x="-85" y="574" type="line"/>
    </contour>
  </outline>
</glyph>
<glyph name="ddaSub-soyo.ini2" format="2">
  <anchor x="-168" y="489" name="_bottom"/>
  <anchor x="-168" y="161" name="bottom"/>
  <outline>
    <contour>
      <point x="-168" y="489" type="line"/>
      <point x="-168" y="161" type="line"/>
      <point x="-74" y="111" type="line"/>
      <point x="-74" y="489" type="line"/>
    </contour>
    <contour>
      <point x="-407" y="589" type="line"/>
      <point x="-407" y="211" type="line"/>
      <point x="-313" y="161" type="line"/>
      <point x="-313" y="589" type="line"/>
    </contour>
    <contour>
      <point x="-519" y="409" type="line"/>
      <point x="-407" y="349" type="line"/>
      <point x="-407" y="469" type="line"/>
    </contour>
    <contour>
      <point x="-149" y="434" type="line"/>
      <point x="-149" y="384" type="line"/>
      <point x="-135" y="384" type="line"/>
      <point x="-135" y="434" type="line"/>
    </contour>
  </outline>
</glyph>
<glyph name="ddaSub-soyo.ini3" format="2">
  <anchor x="-168" y="479" name="_bottom"/>
  <anchor x="-168" y="261" name="bottom"/>
  <outline>
    <contour>
      <point x="-168" y="479" type="line"/>
      <point x="-168" y="261" type="line"/>
      <point x="-74" y="211" type="line"/>
      <point x="-74" y="479" type="line"/>
    </contour>
    <contour>
      <point x="-407" y="579" type="line"/>
      <point x="-407" y="311" type="line"/>
      <point x="-313" y="261" type="line"/>
      <point x="-313" y="579" type="line"/>
    </contour>
    <contour>
      <point x="-519" y="434" type="line"/>
      <point x="-407" y="374" type="line"/>
      <point x="-407" y="494" type="line"/>
    </contour>
    <contour>
      <point x="-149" y="459" type="line"/>
      <point x="-149" y="409" type="line"/>
      <point x="-135" y="409" type="line"/>
      <point x="-135" y="459" type="line"/>
    </contour>
  </outline>
</glyph>
<glyph name="ddhaSub-soyo.2" format="2">
  <anchor x="-148" y="717" name="_bottom"/>
  <anchor x="-148" y="171" name="bottom"/>
  <outline>
    <contour>
      <point x="-148" y="717" type="line"/>
      <point x="-148" y="394" type="line"/>
      <point x="-54" y="344" type="line"/>
      <point x="-54" y="767" type="line"/>
    </contour>
    <contour>
      <point x="-387" y="717" type="line"/>
      <point x="-387" y="444" type="line"/>
      <point x="-293" y="394" type="line"/>
      <point x="-293" y="717" type="line"/>
    </contour>
    <contour>
      <point x="-119" y="572" type="line"/>
      <point x="-119" y="522" type="line"/>
      <point x="-115" y="522" type="line"/>
      <point x="-115" y="572" type="line"/>
    </contour>
    <contour>
      <point x="-558" y="685" type="curve" smooth="yes"/>
      <point x="-605" y="685"/>
      <point x="-626" y="662"/>
      <point x="-626" y="612" type="curve" smooth="yes"/>
      <point x="-626" y="520"/>
      <point x="-548" y="473"/>
      <point x="-395" y="473" type="curve" smooth="yes"/>
      <point x="-346" y="473" type="line"/>
      <point x="-346" y="523" type="line"/>
      <point x="-395" y="523" type="line" smooth="yes"/>
      <point x="-492" y="523"/>
      <point x="-532" y="553"/>
      <point x="-532" y="609" type="curve" smooth="yes"/>
      <point x="-532" y="633"/>
      <point x="-526" y="656"/>
      <point x="-513" y="674" type="curve"/>
      <point x="-527" y="682"/>
      <point x="-542" y="685"/>
    </contour>
    <contour>
      <point x="-148" y="394" type="line"/>
      <point x="-148" y="171" type="line"/>
      <point x="-54" y="121" type="line"/>
      <point x="-54" y="394" type="line"/>
    </contour>
    <contour>
      <point x="-387" y="484" type="line"/>
      <point x="-387" y="221" type="line"/>
      <point x="-293" y="171" type="line"/>
      <point x="-293" y="484" type="line"/>
    </contour>
    <contour>
      <point x="-499" y="363" type="line"/>
      <point x="-387" y="303" type="line"/>
      <point x="-387" y="423" type="line"/>
    </contour>
    <contour>
      <point x="-129" y="388" type="line"/>
      <point x="-129" y="338" type="line"/>
      <point x="-115" y="338" type="line"/>
      <point x="-115" y="388" type="line"/>
    </contour>
  </outline>
</glyph>
<glyph name="ddhaSub-soyo" format="2">
  <anchor x="-218" y="614" name="_bottom"/>
  <anchor x="-218" y="78" name="bottom"/>
  <outline>
    <contour>
      <point x="-218" y="614" type="line"/>
      <point x="-218" y="356" type="line"/>
      <point x="-124" y="306" type="line"/>
      <point x="-124" y="664" type="line"/>
    </contour>
    <contour>
      <point x="-457" y="714" type="line"/>
      <point x="-457" y="406" type="line"/>
      <point x="-363" y="356" type="line"/>
      <point x="-363" y="714" type="line"/>
    </contour>
    <contour>
      <point x="-189" y="549" type="line"/>
      <point x="-189" y="499" type="line"/>
      <point x="-185" y="499" type="line"/>
      <point x="-185" y="549" type="line"/>
    </contour>
    <contour>
      <point x="-625" y="679" type="curve" smooth="yes"/>
      <point x="-674" y="679"/>
      <point x="-696" y="652"/>
      <point x="-696" y="595" type="curve" smooth="yes"/>
      <point x="-696" y="493"/>
      <point x="-615" y="441"/>
      <point x="-461" y="441" type="curve" smooth="yes"/>
      <point x="-413" y="441" type="line"/>
      <point x="-413" y="491" type="line"/>
      <point x="-461" y="491" type="line" smooth="yes"/>
      <point x="-559" y="491"/>
      <point x="-602" y="526"/>
      <point x="-602" y="591" type="curve" smooth="yes"/>
      <point x="-602" y="621"/>
      <point x="-595" y="647"/>
      <point x="-580" y="669" type="curve"/>
      <point x="-594" y="676"/>
      <point x="-609" y="679"/>
    </contour>
    <contour>
      <point x="-218" y="356" type="line"/>
      <point x="-218" y="78" type="line"/>
      <point x="-124" y="28" type="line"/>
      <point x="-124" y="356" type="line"/>
    </contour>
    <contour>
      <point x="-457" y="416" type="line"/>
      <point x="-457" y="128" type="line"/>
      <point x="-363" y="78" type="line"/>
      <point x="-363" y="416" type="line"/>
    </contour>
    <contour>
      <point x="-569" y="289" type="line"/>
      <point x="-457" y="229" type="line"/>
      <point x="-457" y="349" type="line"/>
    </contour>
    <contour>
      <point x="-199" y="314" type="line"/>
      <point x="-199" y="264" type="line"/>
      <point x="-185" y="264" type="line"/>
      <point x="-185" y="314" type="line"/>
    </contour>
  </outline>
</glyph>
<glyph name="ddhaSub-soyo.ini2" format="2">
  <anchor x="-168" y="549" name="_bottom"/>
  <anchor x="-168" y="103" name="bottom"/>
  <outline>
    <contour>
      <point x="-168" y="549" type="line"/>
      <point x="-168" y="326" type="line"/>
      <point x="-74" y="276" type="line"/>
      <point x="-74" y="599" type="line"/>
    </contour>
    <contour>
      <point x="-407" y="649" type="line"/>
      <point x="-407" y="376" type="line"/>
      <point x="-313" y="326" type="line"/>
      <point x="-313" y="649" type="line"/>
    </contour>
    <contour>
      <point x="-139" y="504" type="line"/>
      <point x="-139" y="454" type="line"/>
      <point x="-135" y="454" type="line"/>
      <point x="-135" y="504" type="line"/>
    </contour>
    <contour>
      <point x="-578" y="617" type="curve" smooth="yes"/>
      <point x="-625" y="617"/>
      <point x="-646" y="594"/>
      <point x="-646" y="544" type="curve" smooth="yes"/>
      <point x="-646" y="452"/>
      <point x="-568" y="405"/>
      <point x="-415" y="405" type="curve" smooth="yes"/>
      <point x="-367" y="405" type="line"/>
      <point x="-367" y="455" type="line"/>
      <point x="-415" y="455" type="line" smooth="yes"/>
      <point x="-512" y="455"/>
      <point x="-552" y="485"/>
      <point x="-552" y="541" type="curve" smooth="yes"/>
      <point x="-552" y="565"/>
      <point x="-546" y="588"/>
      <point x="-533" y="606" type="curve"/>
      <point x="-547" y="614"/>
      <point x="-562" y="617"/>
    </contour>
    <contour>
      <point x="-168" y="326" type="line"/>
      <point x="-168" y="103" type="line"/>
      <point x="-74" y="53" type="line"/>
      <point x="-74" y="326" type="line"/>
    </contour>
    <contour>
      <point x="-407" y="416" type="line"/>
      <point x="-407" y="153" type="line"/>
      <point x="-313" y="103" type="line"/>
      <point x="-313" y="416" type="line"/>
    </contour>
    <contour>
      <point x="-519" y="295" type="line"/>
      <point x="-407" y="235" type="line"/>
      <point x="-407" y="355" type="line"/>
    </contour>
    <contour>
      <point x="-149" y="320" type="line"/>
      <point x="-149" y="270" type="line"/>
      <point x="-135" y="270" type="line"/>
      <point x="-135" y="320" type="line"/>
    </contour>
  </outline>
</glyph>
